<svg width="417" height="405" viewBox="0 0 417 405" fill="none" xmlns="http://www.w3.org/2000/svg">
<mask id="path-1-inside-1_94_334" fill="white">
<path d="M181.559 404.07C205.999 403.733 207.04 403.665 210.72 402.181C216.622 399.751 220.857 396.445 223.01 392.463C224.676 389.426 224.954 388.076 224.954 383.487C224.954 378.831 224.676 377.481 222.871 374.039C220.371 369.18 217.108 366.616 209.54 363.646C195.723 358.18 194.751 357.438 194.751 351.701C194.751 345.763 196.973 341.309 201.972 336.787C209.54 330.038 220.719 325.517 235.022 323.425C243.979 322.075 251.755 322.143 262.1 323.762C277.098 326.057 286.124 329.094 294.248 334.83C300.288 339.014 301.538 340.499 303.482 346.033C306.815 355.211 304.663 358.922 294.109 362.634C286.68 365.199 283.902 366.683 280.431 369.788C276.195 373.634 274.39 378.493 274.737 385.174C275.223 393.408 278.764 398.199 287.096 401.978L290.915 403.733L353.127 403.935C403.674 404.07 415.477 403.935 416.102 403.193C417.283 401.843 415.894 288.737 414.644 284.283C412.353 276.32 409.09 271.663 403.674 268.761C400.341 266.939 399.3 266.737 394.023 266.737C383.052 266.804 378.123 270.786 372.846 283.811C369.582 291.977 368.263 294.001 365.764 295.351C363.542 296.498 359.029 296.228 354.585 294.743C344.795 291.437 335.838 276.86 332.644 258.638C328.686 236.773 335.56 207.552 347.294 195.674C350.766 192.165 352.016 191.423 356.112 190.208C362.014 188.453 363.889 188.453 366.736 190.14C369.166 191.558 370.763 194.257 373.471 201.073C377.22 210.791 380.622 214.84 387.079 217.202C392.703 219.294 400.341 218.754 404.854 216.055C408.812 213.693 412.283 209.239 414.366 203.84C415.894 199.926 415.894 199.723 416.102 142.563C416.172 111.047 416.102 84.5251 415.894 83.6478L415.547 82.1631H354.585C286.402 82.1631 289.943 82.4331 284.041 77.3716C280.084 73.9974 278.487 70.0832 278.903 64.7518C279.459 56.856 283.486 52.7393 294.04 49.0276C302.58 46.0582 306.26 43.6962 307.926 40.1195C310.009 35.8004 309.592 31.2788 306.746 24.4628C304.316 18.8614 298.067 13.5301 288.832 9.21098C280.986 5.49926 273.418 3.47468 261.198 1.78754C251.547 0.437823 249.811 0.370337 240.923 1.0452C222.871 2.52988 208.429 7.86126 198.986 16.4994C194.89 20.2786 193.779 21.7633 192.598 25.1376C190.376 31.4138 190.168 35.463 191.835 39.1747C193.64 43.0888 197.042 45.3159 205.86 48.3527C217.108 52.2669 221.135 56.7885 221.135 65.3592C221.135 71.0955 219.191 74.8072 214.608 77.9115C207.526 82.6355 210.581 82.4331 145.801 82.6355C113.723 82.7705 86.7829 82.973 85.8802 83.1754L84.3527 83.5128V142.495C84.3527 206.742 84.4916 204.11 80.3951 209.846C78.0343 213.153 72.688 215.785 68.1749 215.785C58.8709 215.785 54.7744 212.343 50.0529 200.398C46.3036 191.153 43.9429 188.048 39.5686 186.834C35.4721 185.754 33.528 185.889 27.4179 187.846C22.4187 189.466 21.4467 190.073 17.7668 193.92C8.46277 203.57 3.18588 217.405 0.96402 238.19C-1.18839 258.571 5.19943 281.246 16.5864 293.124C20.7523 297.578 21.5161 298.05 26.6541 299.737C33.2502 301.829 36.4442 301.897 40.4018 300.142C44.0818 298.523 46.5119 294.946 49.5669 286.645C52.1359 279.829 55.0521 275.577 58.6626 273.485C60.6067 272.406 62.2731 272.136 67.1334 272.136C72.688 272.136 73.3129 272.271 76.0902 274.16C77.6872 275.307 79.909 277.737 81.02 279.627C84.9776 286.51 85.0471 287.185 85.0471 347.787C85.0471 395.297 85.1859 403.328 86.0191 404.07C87.0606 404.88 121.777 404.88 181.559 404.07ZM89.3519 379.303L89.5602 357.843L89.699 378.898L89.9073 400.021L106.085 400.224L122.194 400.359L105.669 400.561L89.213 400.696L89.3519 379.303ZM412.283 391.788C412.422 390.168 412.561 391.451 412.561 394.622C412.561 397.794 412.422 399.076 412.283 397.524C412.145 395.905 412.145 393.34 412.283 391.788ZM293.484 399.684C293.901 399.211 401.799 399.211 402.216 399.684C402.424 399.886 377.984 400.021 347.85 400.021C317.716 400.021 293.276 399.886 293.484 399.684ZM200.791 399.549C201.277 399.414 202.249 399.414 202.874 399.549C203.569 399.751 203.152 399.886 202.041 399.886C200.861 399.886 200.375 399.751 200.791 399.549ZM192.876 399.616C193.084 399.414 193.709 399.346 194.195 399.549C194.751 399.751 194.542 399.954 193.779 399.954C193.015 400.021 192.598 399.819 192.876 399.616ZM175.448 399.549C178.365 399.414 183.364 399.414 186.558 399.549C189.752 399.616 187.321 399.751 181.211 399.751C175.101 399.751 172.532 399.616 175.448 399.549ZM204.68 398.941C204.888 398.739 205.513 398.672 205.999 398.874C206.554 399.076 206.346 399.279 205.582 399.279C204.818 399.346 204.402 399.144 204.68 398.941ZM212.595 395.972C214.608 394.825 217.039 392.8 218.011 391.451C218.983 390.033 219.747 389.156 219.747 389.493C219.747 391.518 212.109 397.997 209.748 397.997C209.332 397.997 210.581 397.052 212.595 395.972ZM283.902 395.23C283.694 394.825 284.249 395.027 285.291 395.635C286.263 396.31 287.096 396.917 287.096 397.119C287.096 397.592 284.388 395.972 283.902 395.23ZM280.431 391.113C278.834 388.076 279.598 388.211 281.333 391.316C282.167 392.733 282.514 393.813 282.167 393.543C281.819 393.34 281.056 392.26 280.431 391.113ZM219.955 387.064C220.163 386.524 220.371 386.727 220.371 387.469C220.441 388.211 220.233 388.616 220.024 388.346C219.816 388.144 219.747 387.536 219.955 387.064ZM278.903 383.42L279.111 380.113L279.459 383.96C279.667 386.052 279.528 387.536 279.25 387.266C278.903 386.929 278.764 385.242 278.903 383.42ZM220.649 382.677C220.857 382.003 220.996 382.407 220.996 383.487C220.996 384.634 220.857 385.107 220.649 384.702C220.51 384.23 220.51 383.285 220.649 382.677ZM219.469 378.088C219.122 376.604 219.191 376.334 219.747 377.076C220.094 377.616 220.441 378.696 220.441 379.371C220.441 381.125 220.024 380.585 219.469 378.088ZM280.014 377.616C280.57 377.076 280.639 377.346 280.361 378.493C280.084 379.371 279.806 379.708 279.598 379.168C279.459 378.696 279.667 377.953 280.014 377.616ZM281.68 374.242C282.722 372.69 289.526 368.303 290.915 368.303C291.262 368.303 289.804 369.315 287.513 370.462C285.291 371.677 283 373.297 282.444 374.174C281.819 375.052 281.194 375.726 281.056 375.726C280.847 375.726 281.125 375.052 281.68 374.242ZM213.15 370.058C212.734 369.788 213.081 369.788 213.845 370.193C214.608 370.597 215.997 371.745 216.969 372.824L218.705 374.714L216.275 372.69C214.956 371.61 213.498 370.395 213.15 370.058ZM411.589 337.462C411.659 330.848 411.728 336.112 411.728 349.069C411.797 362.094 411.659 367.493 411.589 361.082C411.45 354.738 411.45 344.076 411.589 337.462ZM292.651 367.628C293.206 367.291 293.97 366.953 294.387 366.953C294.734 366.953 294.595 367.291 294.04 367.628C293.484 367.966 292.651 368.303 292.304 368.303C291.887 368.303 292.095 367.966 292.651 367.628ZM298.205 365.604C298.761 365.266 299.525 364.929 299.941 364.929C300.288 364.929 300.15 365.266 299.594 365.604C299.039 365.941 298.205 366.278 297.858 366.278C297.442 366.278 297.65 365.941 298.205 365.604ZM196.001 362.972C194.265 361.892 192.598 360.61 192.251 360.07C191.973 359.597 192.321 359.665 193.084 360.34C193.779 360.947 195.792 362.229 197.528 363.174C199.264 364.119 200.305 364.929 199.889 364.929C199.542 364.929 197.736 364.051 196.001 362.972ZM303.968 362.702C305.079 361.892 306.537 360.475 307.301 359.53C308.482 358.18 308.551 358.113 307.995 359.26C307.232 360.745 303.343 364.254 302.51 364.254C302.233 364.254 302.927 363.579 303.968 362.702ZM308.829 356.021C309.037 355.481 309.245 355.683 309.245 356.425C309.315 357.168 309.106 357.573 308.898 357.303C308.69 357.1 308.62 356.493 308.829 356.021ZM190.099 354.671C190.307 354.131 190.515 354.333 190.515 355.076C190.585 355.818 190.376 356.223 190.168 355.953C189.96 355.751 189.89 355.143 190.099 354.671ZM309.523 352.309C309.731 351.634 309.87 352.039 309.87 353.119C309.87 354.266 309.731 354.738 309.523 354.333C309.384 353.861 309.384 352.916 309.523 352.309ZM190.099 347.247C190.307 346.775 190.446 347.112 190.446 348.057C190.446 349.002 190.307 349.339 190.099 348.935C189.96 348.462 189.96 347.652 190.099 347.247ZM308.829 347.247C309.037 346.707 309.245 346.91 309.245 347.652C309.315 348.395 309.106 348.8 308.898 348.53C308.69 348.327 308.62 347.72 308.829 347.247ZM306.954 342.928C306.746 342.388 306.815 342.118 307.232 342.321C307.648 342.523 307.926 342.996 307.926 343.401C307.926 344.345 307.44 344.143 306.954 342.928ZM305.843 339.959C305.426 339.217 305.288 338.609 305.426 338.609C305.635 338.609 306.121 339.217 306.537 339.959C306.954 340.701 307.093 341.309 306.954 341.309C306.746 341.309 306.26 340.701 305.843 339.959ZM193.223 338.812C193.64 338.137 195.445 336.247 197.25 334.56L200.583 331.523L196.973 335.37C194.959 337.462 193.362 339.554 193.362 340.026C193.362 340.499 193.154 340.701 192.945 340.499C192.737 340.229 192.876 339.487 193.223 338.812ZM298.83 332.738C297.928 331.591 297.928 331.591 299.247 332.535C300.011 333.075 300.774 333.615 300.913 333.683C301.052 333.818 300.913 333.885 300.497 333.885C300.08 333.885 299.316 333.345 298.83 332.738ZM89.4213 331.726C89.6296 331.186 89.8379 331.388 89.8379 332.131C89.9073 332.873 89.699 333.278 89.4908 333.008C89.2824 332.805 89.213 332.198 89.4213 331.726ZM201 331.591C201 331.456 201.555 330.916 202.18 330.443C203.291 329.566 203.36 329.634 202.458 330.713C201.555 331.793 201 332.131 201 331.591ZM291.957 328.081C291.957 327.609 295.984 329.769 296.47 330.511C296.678 330.848 295.775 330.578 294.456 329.769C293.067 328.959 291.957 328.216 291.957 328.081ZM89.4213 329.026C89.6296 328.486 89.8379 328.689 89.8379 329.431C89.9073 330.173 89.699 330.578 89.4908 330.308C89.2824 330.106 89.213 329.499 89.4213 329.026ZM289.526 326.597C289.735 326.394 290.29 326.597 290.776 327.069C291.401 327.744 291.332 327.811 290.36 327.407C289.665 327.204 289.318 326.799 289.526 326.597ZM207.249 327.474C207.249 327.339 207.943 326.867 208.776 326.462C210.304 325.719 210.304 325.787 209.054 326.732C207.596 327.879 207.249 328.014 207.249 327.474ZM89.4213 326.327C89.6296 325.787 89.8379 325.989 89.8379 326.732C89.9073 327.474 89.699 327.879 89.4908 327.609C89.2824 327.407 89.213 326.799 89.4213 326.327ZM286.749 325.247C286.957 325.045 287.513 325.247 287.999 325.719C288.624 326.394 288.554 326.462 287.582 326.057C286.888 325.854 286.541 325.449 286.749 325.247ZM211.415 325.112C211.97 324.775 212.734 324.437 213.15 324.437C213.498 324.437 213.359 324.775 212.803 325.112C212.248 325.449 211.415 325.787 211.067 325.787C210.651 325.787 210.859 325.449 211.415 325.112ZM281.542 323.762C280.986 323.425 280.778 323.087 281.194 323.087C281.542 323.087 282.375 323.425 282.93 323.762C283.486 324.1 283.625 324.437 283.277 324.437C282.861 324.437 282.097 324.1 281.542 323.762ZM216.275 323.087C216.83 322.75 217.802 322.48 218.358 322.48C219.052 322.48 218.913 322.683 218.011 323.087C216.136 323.897 215.025 323.897 216.275 323.087ZM277.029 322.413C276.126 322.075 276.056 321.805 276.681 321.805C277.237 321.805 278.348 322.075 279.111 322.413C280.014 322.75 280.084 323.02 279.459 323.02C278.903 323.02 277.792 322.75 277.029 322.413ZM89.4213 321.603C89.6296 321.063 89.8379 321.265 89.8379 322.008C89.9073 322.75 89.699 323.155 89.4908 322.885C89.2824 322.683 89.213 322.075 89.4213 321.603ZM273.418 321.333C273.626 321.13 274.251 321.063 274.737 321.265C275.293 321.468 275.084 321.67 274.321 321.67C273.557 321.738 273.14 321.535 273.418 321.333ZM270.641 320.658C270.849 320.456 271.474 320.388 271.96 320.59C272.515 320.793 272.307 320.995 271.543 320.995C270.78 321.063 270.363 320.86 270.641 320.658ZM224.121 320.658C224.329 320.456 224.954 320.388 225.44 320.59C225.995 320.793 225.787 320.995 225.023 320.995C224.26 321.063 223.843 320.86 224.121 320.658ZM266.475 319.983C266.683 319.781 267.308 319.713 267.794 319.916C268.349 320.118 268.141 320.321 267.377 320.321C266.614 320.388 266.197 320.186 266.475 319.983ZM226.898 319.983C227.106 319.781 227.731 319.713 228.217 319.916C228.773 320.118 228.564 320.321 227.801 320.321C227.037 320.388 226.62 320.186 226.898 319.983ZM89.4213 317.891C89.6296 317.216 89.7685 317.621 89.7685 318.701C89.7685 319.848 89.6296 320.321 89.4213 319.916C89.2824 319.443 89.2824 318.498 89.4213 317.891ZM261.892 319.241C262.378 319.106 263.35 319.106 263.975 319.241C264.669 319.443 264.253 319.578 263.142 319.578C261.962 319.578 261.476 319.443 261.892 319.241ZM229.953 319.241C230.439 319.106 231.411 319.106 232.036 319.241C232.73 319.443 232.314 319.578 231.203 319.578C230.023 319.578 229.537 319.443 229.953 319.241ZM257.032 318.566C257.518 318.431 258.351 318.431 258.768 318.566C259.254 318.768 258.907 318.903 257.934 318.903C256.962 318.903 256.615 318.768 257.032 318.566ZM234.119 318.566C234.605 318.431 235.577 318.431 236.202 318.566C236.896 318.768 236.48 318.903 235.369 318.903C234.189 318.903 233.702 318.768 234.119 318.566ZM242.104 317.891C243.909 317.756 247.034 317.756 249.047 317.891C251.061 318.026 249.603 318.094 245.784 318.094C241.965 318.094 240.299 318.026 242.104 317.891ZM89.4213 312.83C89.5602 311.952 89.699 312.492 89.699 313.977C89.7685 315.462 89.6296 316.136 89.4213 315.529C89.2824 314.854 89.2824 313.639 89.4213 312.83ZM89.4213 309.455C89.6296 308.915 89.8379 309.118 89.8379 309.86C89.9073 310.603 89.699 311.008 89.4908 310.738C89.2824 310.535 89.213 309.928 89.4213 309.455ZM410.895 292.921C410.964 290.019 411.103 292.381 411.103 298.118C411.103 303.854 410.964 306.216 410.895 303.382C410.756 300.48 410.756 295.756 410.895 292.921ZM89.4213 306.756C89.6296 306.216 89.8379 306.418 89.8379 307.161C89.9073 307.903 89.699 308.308 89.4908 308.038C89.2824 307.836 89.213 307.228 89.4213 306.756ZM89.4213 304.056C89.6296 303.517 89.8379 303.719 89.8379 304.461C89.9073 305.204 89.699 305.609 89.4908 305.339C89.2824 305.136 89.213 304.529 89.4213 304.056ZM89.4213 299.332C89.5602 298.455 89.699 298.995 89.699 300.48C89.7685 301.964 89.6296 302.639 89.4213 302.032C89.2824 301.357 89.2824 300.142 89.4213 299.332ZM363.681 300.412C363.889 300.21 364.514 300.142 365 300.345C365.555 300.547 365.347 300.75 364.583 300.75C363.819 300.817 363.403 300.615 363.681 300.412ZM358.056 300.345C358.751 300.21 360.001 300.21 360.834 300.345C361.736 300.48 361.181 300.615 359.653 300.615C358.126 300.682 357.432 300.547 358.056 300.345ZM367.291 299.332C368.055 298.928 369.721 297.645 371.04 296.498L373.471 294.406L371.735 296.566C370.138 298.59 368.055 300.007 366.597 300.075C366.18 300.075 366.527 299.737 367.291 299.332ZM354.654 299.737C354.863 299.535 355.487 299.467 355.973 299.67C356.529 299.872 356.321 300.075 355.557 300.075C354.793 300.142 354.377 299.94 354.654 299.737ZM351.669 298.793C351.113 298.455 350.905 298.118 351.322 298.118C351.669 298.118 352.502 298.455 353.057 298.793C353.613 299.13 353.752 299.467 353.404 299.467C352.988 299.467 352.224 299.13 351.669 298.793ZM344.031 293.596L340.212 289.682L344.378 293.394C346.67 295.418 348.683 297.173 348.822 297.308C348.961 297.375 348.822 297.443 348.475 297.443C348.128 297.443 346.114 295.688 344.031 293.596ZM89.4213 295.958C89.6296 295.418 89.8379 295.621 89.8379 296.363C89.9073 297.105 89.699 297.51 89.4908 297.24C89.2824 297.038 89.213 296.431 89.4213 295.958ZM34.1529 296.97C34.6389 296.835 35.4721 296.835 35.8887 296.97C36.3747 297.173 36.0276 297.308 35.0555 297.308C34.0834 297.308 33.7363 297.173 34.1529 296.97ZM40.0547 294.946C40.6795 294.271 41.7905 292.516 42.5542 291.032C43.3874 289.547 44.0123 288.602 44.0818 288.872C44.1512 290.289 40.3324 296.093 39.3603 296.093C39.152 296.093 39.4992 295.553 40.0547 294.946ZM26.7236 295.418C25.4738 294.608 26.5847 294.608 28.4594 295.418C29.362 295.823 29.5009 296.026 28.8065 296.026C28.2511 296.026 27.279 295.756 26.7236 295.418ZM89.4213 292.246C89.6296 291.572 89.7685 291.977 89.7685 293.056C89.7685 294.204 89.6296 294.676 89.4213 294.271C89.2824 293.799 89.2824 292.854 89.4213 292.246ZM23.5991 294.069C23.3908 293.664 23.6685 293.596 24.224 293.799C25.4738 294.271 25.6821 294.743 24.71 294.743C24.2934 294.743 23.8074 294.473 23.5991 294.069ZM88.727 287.86C88.9353 287.387 89.0742 287.725 89.0742 288.67C89.0742 289.615 88.9353 289.952 88.727 289.547C88.5881 289.075 88.5881 288.265 88.727 287.86ZM18.0445 288.67C17.3502 287.927 17.0724 287.32 17.4196 287.32C17.7668 287.32 18.4611 287.927 18.9471 288.67C19.4331 289.412 19.7109 290.019 19.572 290.019C19.4331 290.019 18.7388 289.412 18.0445 288.67ZM339.101 288.197C338.199 287.118 338.268 287.05 339.31 287.927C340.49 288.805 340.837 289.345 340.282 289.345C340.143 289.345 339.587 288.805 339.101 288.197ZM376.456 286.308C376.664 285.7 377.012 285.363 377.15 285.565C377.359 285.768 377.289 286.173 377.012 286.578C376.387 287.657 375.97 287.455 376.456 286.308ZM410.2 285.16C410.409 284.621 410.617 284.823 410.617 285.565C410.686 286.308 410.478 286.713 410.27 286.443C410.062 286.24 409.992 285.633 410.2 285.16ZM88.0327 284.486C88.2409 283.946 88.4492 284.148 88.4492 284.891C88.5187 285.633 88.3104 286.038 88.1021 285.768C87.8938 285.565 87.8243 284.958 88.0327 284.486ZM45.401 284.148C46.2342 282.798 46.373 283.203 45.7481 284.958C45.4704 285.565 45.1232 285.903 44.9844 285.7C44.7761 285.565 44.9844 284.823 45.401 284.148ZM336.393 283.946C335.977 283.203 335.838 282.596 335.977 282.596C336.185 282.596 336.671 283.203 337.088 283.946C337.504 284.688 337.643 285.295 337.504 285.295C337.296 285.295 336.81 284.688 336.393 283.946ZM13.8785 282.596C13.2536 281.516 12.9759 280.571 13.1147 280.571C13.3231 280.571 13.9479 281.516 14.5728 282.596C15.1977 283.743 15.4755 284.621 15.3366 284.621C15.1283 284.621 14.5034 283.743 13.8785 282.596ZM379.303 279.424C380.067 278.007 381.386 276.252 382.288 275.51C383.747 274.295 383.747 274.295 382.15 276.252C381.178 277.4 379.997 279.357 379.442 280.504C378.956 281.651 378.4 282.528 378.261 282.326C378.123 282.191 378.539 280.909 379.303 279.424ZM46.7896 280.774C47.6228 279.424 47.7617 279.829 47.1368 281.584C46.859 282.191 46.5119 282.528 46.373 282.326C46.1647 282.191 46.373 281.449 46.7896 280.774ZM85.8108 279.222C85.0471 277.602 85.0471 277.602 86.0191 278.817C86.644 279.559 87.13 280.436 87.13 280.841C87.13 281.651 86.7829 281.314 85.8108 279.222ZM407.631 279.492C407.423 278.952 407.493 278.682 407.909 278.884C408.326 279.087 408.603 279.559 408.603 279.964C408.603 280.909 408.117 280.706 407.631 279.492ZM10.1292 274.835C10.1292 274.498 10.6846 275.24 11.4484 276.522C12.2121 277.804 12.7676 279.222 12.7676 279.559C12.7676 279.964 12.2121 279.154 11.4484 277.872C10.6846 276.59 10.1292 275.24 10.1292 274.835ZM332.922 276.86C332.922 276.522 333.269 276.657 333.616 277.197C333.963 277.737 334.31 278.547 334.31 278.884C334.31 279.289 333.963 279.087 333.616 278.547C333.269 278.007 332.922 277.265 332.922 276.86ZM84.0056 276.522C83.7973 276.185 83.8667 275.847 84.2833 275.847C84.6305 275.847 85.1859 276.185 85.3942 276.522C85.6025 276.927 85.5331 277.197 85.1165 277.197C84.7693 277.197 84.2139 276.927 84.0056 276.522ZM50.2613 274.633C51.025 273.553 52.2054 272.271 52.8997 271.731C53.5246 271.191 53.0386 272.068 51.7193 273.688C49.0809 276.927 48.1089 277.535 50.2613 274.633ZM404.09 274.498C403.396 273.755 402.979 273.148 403.188 273.148C403.396 273.148 404.09 273.755 404.785 274.498C405.479 275.24 405.896 275.847 405.687 275.847C405.479 275.847 404.785 275.24 404.09 274.498ZM385.274 272.811C386.038 272.271 387.01 271.798 387.357 271.798C387.774 271.866 387.357 272.271 386.385 272.811C384.163 274.093 383.608 274.025 385.274 272.811ZM400.619 271.933C400.827 271.731 401.382 271.933 401.869 272.406C402.493 273.08 402.424 273.148 401.452 272.743C400.758 272.541 400.41 272.136 400.619 271.933ZM388.676 271.393C388.885 271.191 389.509 271.123 389.996 271.326C390.551 271.528 390.343 271.731 389.579 271.731C388.815 271.798 388.399 271.596 388.676 271.393ZM8.04617 268.761C8.04617 268.424 8.32388 268.559 8.67105 269.099C9.01822 269.639 9.29596 270.583 9.29596 271.123C9.29596 272.203 8.1156 270.044 8.04617 268.761ZM392.773 270.651C393.467 270.516 394.717 270.516 395.55 270.651C396.453 270.786 395.897 270.921 394.37 270.921C392.842 270.988 392.148 270.853 392.773 270.651ZM78.4509 270.449C78.2426 270.044 78.5204 269.976 79.0758 270.179C80.3256 270.651 80.5339 271.123 79.5619 271.123C79.1453 271.123 78.6592 270.853 78.4509 270.449ZM75.6736 268.559C75.8819 268.356 76.4374 268.559 76.9234 269.031C77.5483 269.706 77.4789 269.774 76.5068 269.369C75.8125 269.166 75.4653 268.761 75.6736 268.559ZM56.9268 269.099C57.1351 268.761 57.76 268.424 58.1766 268.424C58.6626 268.424 58.5932 268.694 57.9683 269.099C56.6491 269.909 56.3713 269.909 56.9268 269.099ZM329.658 266.939C329.867 266.399 330.075 266.602 330.075 267.344C330.145 268.087 329.936 268.491 329.728 268.221C329.52 268.019 329.45 267.412 329.658 266.939ZM60.3984 267.749C61.1622 267.412 62.6897 267.209 63.8701 267.209C65.8836 267.277 65.8836 267.277 63.5229 267.749C60.1207 268.424 58.7321 268.424 60.3984 267.749ZM70.2579 267.277C70.7439 267.142 71.5771 267.142 71.9937 267.277C72.4797 267.479 72.1326 267.614 71.1605 267.614C70.1884 267.614 69.8413 267.479 70.2579 267.277ZM7.49069 266.264C7.69901 265.725 7.90729 265.927 7.90729 266.669C7.97675 267.412 7.76843 267.817 7.56015 267.547C7.35184 267.344 7.28241 266.737 7.49069 266.264ZM328.964 264.24C329.172 263.7 329.381 263.902 329.381 264.645C329.45 265.387 329.242 265.792 329.034 265.522C328.825 265.32 328.756 264.712 328.964 264.24ZM6.72696 262.958C6.93524 262.418 7.21298 262.755 7.49069 263.632C7.76843 264.78 7.69901 265.05 7.14355 264.51C6.79639 264.172 6.58807 263.43 6.72696 262.958ZM328.27 260.191C328.478 259.718 328.617 260.056 328.617 261C328.617 261.945 328.478 262.283 328.27 261.878C328.131 261.405 328.131 260.596 328.27 260.191ZM6.10205 259.516C6.31036 258.976 6.51865 259.178 6.51865 259.921C6.58807 260.663 6.37979 261.068 6.17148 260.798C5.9632 260.596 5.89374 259.988 6.10205 259.516ZM327.576 256.479C327.784 255.804 327.923 256.209 327.923 257.289C327.923 258.436 327.784 258.908 327.576 258.504C327.437 258.031 327.437 257.086 327.576 256.479ZM5.40771 254.454C5.61603 253.78 5.75488 254.184 5.75488 255.264C5.75488 256.411 5.61603 256.884 5.40771 256.479C5.26886 256.007 5.26886 255.062 5.40771 254.454ZM326.881 240.282C327.02 237.718 327.089 239.81 327.089 244.804C327.089 249.798 327.02 251.89 326.881 249.393C326.742 246.828 326.742 242.779 326.881 240.282ZM4.71341 246.356C4.92169 245.681 5.06055 246.221 5.06055 247.503C5.06055 248.786 4.92169 249.325 4.71341 248.718C4.57452 248.043 4.57452 246.963 4.71341 246.356ZM5.40771 236.908C5.61603 236.233 5.75488 236.638 5.75488 237.718C5.75488 238.865 5.61603 239.338 5.40771 238.933C5.26886 238.46 5.26886 237.515 5.40771 236.908ZM327.576 232.184C327.784 231.509 327.923 231.914 327.923 232.994C327.923 234.141 327.784 234.614 327.576 234.209C327.437 233.736 327.437 232.791 327.576 232.184ZM6.10205 232.184C6.31036 231.509 6.44922 231.914 6.44922 232.994C6.44922 234.141 6.31036 234.614 6.10205 234.209C5.9632 233.736 5.9632 232.791 6.10205 232.184ZM328.27 227.797C328.478 227.325 328.617 227.663 328.617 228.607C328.617 229.552 328.478 229.89 328.27 229.485C328.131 229.012 328.131 228.202 328.27 227.797ZM6.79639 227.123C7.00467 226.65 7.14355 226.988 7.14355 227.932C7.14355 228.877 7.00467 229.215 6.79639 228.81C6.6575 228.337 6.6575 227.528 6.79639 227.123ZM328.964 223.748C329.172 223.276 329.311 223.613 329.311 224.558C329.311 225.503 329.172 225.84 328.964 225.435C328.825 224.963 328.825 224.153 328.964 223.748ZM7.49069 223.748C7.69901 223.276 7.83786 223.613 7.83786 224.558C7.83786 225.503 7.69901 225.84 7.49069 225.435C7.35184 224.963 7.35184 224.153 7.49069 223.748ZM329.658 220.374C329.867 219.902 330.006 220.239 330.006 221.184C330.006 222.129 329.867 222.466 329.658 222.061C329.52 221.589 329.52 220.779 329.658 220.374ZM8.18503 221.049C8.39334 220.509 8.60162 220.711 8.60162 221.454C8.67105 222.196 8.46277 222.601 8.25446 222.331C8.04617 222.129 7.97675 221.521 8.18503 221.049ZM65.7448 220.037C66.7863 219.902 68.6609 219.902 69.9107 220.037C71.1605 220.172 70.3273 220.307 68.036 220.307C65.7448 220.307 64.7032 220.172 65.7448 220.037ZM75.257 218.822C76.5068 218.282 77.7566 217.81 78.0343 217.81C78.937 217.877 74.9099 219.767 73.9378 219.767C73.3824 219.767 73.9378 219.362 75.257 218.822ZM9.01822 218.012C9.22653 216.932 9.71255 215.852 10.0597 215.515C10.4069 215.178 10.3374 215.987 9.92084 217.337C9.01822 220.239 8.32388 220.711 9.01822 218.012ZM330.353 217.675C330.561 217.135 330.769 217.337 330.769 218.08C330.839 218.822 330.631 219.227 330.422 218.957C330.214 218.754 330.145 218.147 330.353 217.675ZM55.191 216.73C55.191 216.595 55.8159 216.73 56.5796 217.135C57.3434 217.54 57.9683 218.012 57.9683 218.214C57.9683 218.349 57.3434 218.214 56.5796 217.81C55.8159 217.405 55.191 216.932 55.191 216.73ZM78.7981 217.607C78.7981 217.472 80.1173 216.19 81.7143 214.773L84.6999 212.073L81.9226 214.975C79.423 217.607 78.7981 218.147 78.7981 217.607ZM52.7608 215.11C52.0665 214.368 51.6499 213.76 51.8582 213.76C52.0665 213.76 52.7608 214.368 53.4552 215.11C54.1495 215.852 54.5661 216.46 54.3578 216.46C54.1495 216.46 53.4552 215.852 52.7608 215.11ZM393.12 213.963C394.023 213.828 395.55 213.828 396.592 213.963C397.703 214.098 396.939 214.233 395.064 214.233C393.12 214.233 392.287 214.098 393.12 213.963ZM10.5457 213.423C10.754 212.816 11.1012 212.478 11.2401 212.681C11.4484 212.883 11.3789 213.288 11.1012 213.693C10.4763 214.773 10.0597 214.57 10.5457 213.423ZM399.577 213.288C400.133 213.086 401.244 212.613 402.007 212.276C403.396 211.668 403.396 211.668 402.077 212.681C401.313 213.288 400.202 213.76 399.647 213.693C398.675 213.693 398.675 213.625 399.577 213.288ZM386.385 212.411C384.927 211.668 383.052 210.116 382.219 208.901L380.692 206.674L382.775 208.834C383.885 210.049 386.177 211.668 387.843 212.411C389.509 213.153 390.482 213.76 389.996 213.76C389.509 213.76 387.913 213.153 386.385 212.411ZM50.2613 211.938C49.3586 210.859 49.4281 210.791 50.4695 211.668C51.1639 212.141 51.7193 212.681 51.7193 212.816C51.7193 213.356 51.1639 213.018 50.2613 211.938ZM406.173 208.632C407.493 206.944 408.603 205.257 408.603 204.852C408.603 204.447 408.812 204.312 409.02 204.515C409.506 204.987 407.77 207.889 405.618 210.251C403.327 212.681 403.604 211.938 406.173 208.632ZM12.4204 209.239C12.9759 208.227 13.4619 207.552 13.5313 207.822C13.5313 208.632 11.9344 211.736 11.6567 211.466C11.4484 211.331 11.7955 210.319 12.4204 209.239ZM333.547 208.564C334.38 207.214 334.519 207.619 333.894 209.374C333.616 209.981 333.269 210.319 333.13 210.116C332.922 209.981 333.13 209.239 333.547 208.564ZM86.2274 208.699C86.4357 208.092 86.7829 207.754 86.9217 207.957C87.13 208.159 87.0606 208.564 86.7829 208.969C86.158 210.049 85.7414 209.846 86.2274 208.699ZM46.859 205.325C46.859 204.987 47.2062 205.122 47.5534 205.662C47.9005 206.202 48.2477 207.012 48.2477 207.349C48.2477 207.754 47.9005 207.552 47.5534 207.012C47.2062 206.472 46.859 205.73 46.859 205.325ZM335.699 203.705C337.643 199.926 338.129 200.196 336.255 203.975C335.421 205.595 334.658 206.877 334.449 206.742C334.31 206.607 334.866 205.257 335.699 203.705ZM87.7549 204.92C88.1021 204.042 88.4492 203.638 88.4492 204.11C88.5187 205.122 87.7549 207.147 87.4077 206.809C87.1995 206.674 87.4077 205.797 87.7549 204.92ZM14.2257 205.662C14.6423 204.92 15.1283 204.312 15.3366 204.312C15.4755 204.312 15.3366 204.92 14.92 205.662C14.5034 206.404 14.0174 207.012 13.8091 207.012C13.6702 207.012 13.8091 206.404 14.2257 205.662ZM45.4704 201.95C45.4704 201.613 45.8176 201.748 46.1647 202.288C46.5119 202.828 46.859 203.638 46.859 203.975C46.859 204.38 46.5119 204.177 46.1647 203.638C45.8176 203.098 45.4704 202.355 45.4704 201.95ZM409.923 201.546C410.27 200.668 410.617 200.263 410.617 200.736C410.686 201.748 409.923 203.773 409.576 203.435C409.367 203.3 409.576 202.423 409.923 201.546ZM378.053 201.276C378.053 200.938 378.4 201.073 378.747 201.613C379.095 202.153 379.442 202.963 379.442 203.3C379.442 203.705 379.095 203.503 378.747 202.963C378.4 202.423 378.053 201.68 378.053 201.276ZM88.727 124.882C88.7964 110.44 88.8658 122.25 88.8658 150.999C88.8658 179.748 88.7964 191.558 88.727 177.183C88.5881 162.741 88.5881 139.256 88.727 124.882ZM338.754 198.374C339.31 197.361 340.49 195.944 341.323 195.202L342.99 193.852L341.531 195.539C340.698 196.484 339.657 197.901 339.24 198.779C338.824 199.588 338.268 200.263 338.06 200.263C337.921 200.263 338.199 199.453 338.754 198.374ZM17.6973 200.061C17.6973 199.926 18.3916 199.251 19.2248 198.509L20.8218 197.226L19.5026 198.779C18.2528 200.196 17.6973 200.601 17.6973 200.061ZM410.895 198.104C411.103 197.564 411.311 197.766 411.311 198.509C411.381 199.251 411.173 199.656 410.964 199.386C410.756 199.184 410.686 198.576 410.895 198.104ZM43.1097 196.417C42.4848 195.202 42.1376 194.19 42.2765 194.19C42.6931 194.19 44.7761 197.901 44.7761 198.644C44.7761 199.386 44.4289 198.846 43.1097 196.417ZM375.415 194.729C373.818 191.22 373.957 190.343 375.484 193.38C376.595 195.337 377.775 198.779 377.22 198.239C377.012 198.036 376.178 196.484 375.415 194.729ZM411.589 118.808C411.659 104.433 411.728 115.974 411.728 144.587C411.728 173.201 411.659 184.944 411.589 170.772C411.45 156.6 411.45 133.25 411.589 118.808ZM22.5576 195.269C22.5576 195.134 23.1131 194.594 23.7379 194.122C24.8489 193.245 24.9183 193.312 24.0157 194.392C23.1131 195.472 22.5576 195.809 22.5576 195.269ZM342.642 193.312C342.642 193.177 343.962 191.895 345.559 190.478L348.544 187.778L345.767 190.68C343.267 193.312 342.642 193.852 342.642 193.312ZM37.9022 191.018C37.7634 190.883 37.9022 190.815 38.3188 190.815C38.7354 190.815 39.7769 191.423 40.6795 192.232L42.3459 193.582L40.2629 192.435C39.0826 191.76 38.0411 191.153 37.9022 191.018ZM27.4179 192.165C27.9734 191.828 28.9454 191.558 29.5009 191.558C30.1952 191.558 30.0563 191.76 29.1537 192.165C27.279 192.975 26.1681 192.975 27.4179 192.165ZM31.0978 191.085C31.3061 190.883 31.931 190.815 32.4171 191.018C32.9725 191.22 32.7642 191.423 32.0005 191.423C31.2367 191.49 30.8201 191.288 31.0978 191.085ZM373.193 190.14C373.193 189.803 373.332 189.466 373.471 189.466C373.679 189.466 374.026 189.803 374.234 190.14C374.443 190.545 374.304 190.815 373.957 190.815C373.54 190.815 373.193 190.545 373.193 190.14ZM35.2638 190.41C35.4721 190.208 36.097 190.14 36.583 190.343C37.1385 190.545 36.9302 190.748 36.1664 190.748C35.4026 190.815 34.9861 190.613 35.2638 190.41ZM371.04 187.643C370.138 186.564 370.207 186.496 371.249 187.373C371.943 187.846 372.498 188.386 372.498 188.521C372.498 189.061 371.943 188.723 371.04 187.643ZM349.586 187.441C350.141 187.104 350.905 186.766 351.322 186.766C351.669 186.766 351.53 187.104 350.974 187.441C350.419 187.778 349.586 188.116 349.239 188.116C348.822 188.116 349.03 187.778 349.586 187.441ZM353.057 186.091C353.613 185.754 354.585 185.484 355.14 185.484C355.835 185.484 355.696 185.686 354.793 186.091C352.918 186.901 351.808 186.901 353.057 186.091ZM360.07 184.337C359.445 183.797 365.277 184.202 366.597 184.742C367.43 185.079 366.527 185.146 364.167 184.944C362.084 184.742 360.209 184.472 360.07 184.337ZM356.737 185.011C356.946 184.809 357.57 184.742 358.056 184.944C358.612 185.146 358.404 185.349 357.64 185.349C356.876 185.416 356.46 185.214 356.737 185.011ZM109.14 87.0896C120.666 86.9546 139.691 86.9546 151.494 87.0896C163.228 87.1571 153.785 87.2246 130.525 87.2246C107.196 87.2246 97.6144 87.1571 109.14 87.0896ZM331.672 86.4147C346.531 86.2798 370.693 86.2798 385.482 86.4147C400.341 86.4822 388.19 86.5497 358.612 86.5497C329.034 86.5497 316.883 86.4822 331.672 86.4147ZM301.469 86.4147C301.955 86.2798 302.927 86.2798 303.552 86.4147C304.246 86.6172 303.83 86.7522 302.719 86.7522C301.538 86.7522 301.052 86.6172 301.469 86.4147ZM292.165 86.4822C292.373 86.2798 292.998 86.2123 293.484 86.4147C294.04 86.6172 293.831 86.8196 293.067 86.8196C292.304 86.8871 291.887 86.6847 292.165 86.4822ZM202.874 86.4147C203.36 86.2798 204.194 86.2798 204.61 86.4147C205.096 86.6172 204.749 86.7522 203.777 86.7522C202.805 86.7522 202.458 86.6172 202.874 86.4147ZM206.763 85.8074C206.971 85.6049 207.596 85.5374 208.082 85.7399C208.637 85.9423 208.429 86.1448 207.665 86.1448C206.901 86.2123 206.485 86.0098 206.763 85.8074ZM210.026 84.8626C210.581 84.5251 211.345 84.1877 211.762 84.1877C212.109 84.1877 211.97 84.5251 211.415 84.8626C210.859 85.2 210.026 85.5374 209.679 85.5374C209.262 85.5374 209.47 85.2 210.026 84.8626ZM212.873 83.9852C213.012 83.8503 214.053 83.2429 215.233 82.568L217.316 81.4208L215.65 82.7705C214.747 83.5803 213.706 84.1877 213.289 84.1877C212.873 84.1877 212.734 84.1202 212.873 83.9852ZM276.195 75.887C275.64 74.8072 275.362 73.7949 275.501 73.5924C275.709 73.4575 276.056 73.9299 276.334 74.8072C276.612 75.617 278.139 77.7091 279.667 79.3962L282.514 82.5006L279.875 80.1386C278.417 78.8563 276.82 76.8992 276.195 75.887ZM221.135 77.844C221.135 77.7091 221.691 77.1692 222.316 76.6968C223.426 75.8195 223.496 75.887 222.593 76.9667C221.691 78.0465 221.135 78.3839 221.135 77.844ZM223.704 74.4023C223.912 73.7949 224.26 73.4575 224.398 73.6599C224.607 73.8624 224.537 74.2673 224.26 74.6722C223.635 75.752 223.218 75.5495 223.704 74.4023ZM274.112 64.1444C274.251 62.7272 274.39 63.7395 274.39 66.304C274.39 68.9359 274.251 70.0157 274.112 68.8684C273.973 67.6537 273.973 65.4941 274.112 64.1444ZM225.509 68.1936C225.718 67.5187 225.857 67.9236 225.857 69.0034C225.857 70.1507 225.718 70.6231 225.509 70.2181C225.371 69.7457 225.371 68.8009 225.509 68.1936ZM225.509 61.445C225.718 60.7701 225.857 61.175 225.857 62.2548C225.857 63.4021 225.718 63.8745 225.509 63.4696C225.371 62.9972 225.371 62.0524 225.509 61.445ZM224.815 58.4081C225.023 57.8682 225.232 58.0707 225.232 58.813C225.301 59.5554 225.093 59.9603 224.885 59.6904C224.676 59.4879 224.607 58.8805 224.815 58.4081ZM223.288 55.1688C222.524 53.5491 222.524 53.5491 223.496 54.7639C224.121 55.5062 224.607 56.3836 224.607 56.7885C224.607 57.5983 224.26 57.2609 223.288 55.1688ZM278.07 52.9418C278.07 52.8068 278.764 52.1319 279.598 51.3896L281.194 50.1074L279.875 51.6595C278.625 53.0767 278.07 53.4817 278.07 52.9418ZM216.275 48.2178C215.372 47.5429 214.817 47.0705 215.095 47.0705C216.136 47.0705 220.302 50.1074 221.135 51.4571C221.829 52.4694 221.552 52.4019 220.024 51.0522C218.913 50.1074 217.247 48.8251 216.275 48.2178ZM281.542 50.1749C281.542 50.0399 282.097 49.5 282.722 49.0276C283.833 48.1503 283.902 48.2178 283 49.2975C282.097 50.3773 281.542 50.7147 281.542 50.1749ZM287.791 46.3957C288.346 46.0582 289.11 45.7208 289.526 45.7208C289.874 45.7208 289.735 46.0582 289.179 46.3957C288.624 46.7331 287.791 47.0705 287.443 47.0705C287.027 47.0705 287.235 46.7331 287.791 46.3957ZM212.456 45.8558C212.664 45.6533 213.22 45.8558 213.706 46.3282C214.331 47.003 214.261 47.0705 213.289 46.6656C212.595 46.4631 212.248 46.0582 212.456 45.8558ZM291.262 45.0459C291.818 44.7085 292.581 44.3711 292.998 44.3711C293.345 44.3711 293.206 44.7085 292.651 45.0459C292.095 45.3834 291.262 45.7208 290.915 45.7208C290.498 45.7208 290.707 45.3834 291.262 45.0459ZM207.249 44.3711C206.693 44.0336 206.485 43.6962 206.901 43.6962C207.249 43.6962 208.082 44.0336 208.637 44.3711C209.193 44.7085 209.332 45.0459 208.984 45.0459C208.568 45.0459 207.804 44.7085 207.249 44.3711ZM296.192 43.4263C296.886 42.8189 300.983 40.9968 300.983 41.2667C300.983 41.7391 297.372 43.6287 296.539 43.6962C296.192 43.6962 296.053 43.5612 296.192 43.4263ZM201.694 42.3465C201.139 42.0091 200.93 41.6716 201.347 41.6716C201.694 41.6716 202.527 42.0091 203.083 42.3465C203.638 42.6839 203.777 43.0214 203.43 43.0214C203.013 43.0214 202.249 42.6839 201.694 42.3465ZM196.764 39.2422C196.139 38.4998 196.625 38.6348 198.014 39.6471C199.264 40.5244 200.305 41.3342 200.305 41.4692C200.305 42.0091 197.667 40.3219 196.764 39.2422ZM301.677 40.7268C301.677 40.5919 302.233 40.052 302.857 39.5796C303.968 38.7023 304.038 38.7698 303.135 39.8495C302.233 40.9293 301.677 41.2667 301.677 40.7268ZM304.663 33.7758C304.871 33.101 305.01 33.5059 305.01 34.5856C305.01 35.7329 304.871 36.2053 304.663 35.8004C304.524 35.328 304.524 34.3832 304.663 33.7758ZM194.959 33.101C195.167 32.4261 195.306 32.831 195.306 33.9108C195.306 35.058 195.167 35.5304 194.959 35.1255C194.82 34.6531 194.82 33.7083 194.959 33.101ZM195.653 30.0641C195.862 29.5242 196.07 29.7267 196.07 30.469C196.139 31.2113 195.931 31.6163 195.723 31.3463C195.514 31.1439 195.445 30.5365 195.653 30.0641ZM302.371 26.4873C302.371 26.1499 302.719 26.2849 303.066 26.8248C303.413 27.3647 303.76 28.1745 303.76 28.5119C303.76 28.9168 303.413 28.7144 303.066 28.1745C302.719 27.6346 302.371 26.8923 302.371 26.4873ZM196.834 26.3524C197.597 25.2051 197.597 25.2051 197.25 26.3524C197.042 27.0272 196.834 27.972 196.764 28.3769C196.764 28.9843 196.625 28.9843 196.417 28.3769C196.209 27.9045 196.417 27.0272 196.834 26.3524ZM299.316 21.4259C298.553 20.4811 298.9 20.6836 300.08 21.8983C301.33 23.1131 302.371 24.4628 302.371 24.9352C302.371 25.4076 301.955 25.2051 301.538 24.4628C301.122 23.7204 300.15 22.3707 299.316 21.4259ZM198.431 22.5057C200.236 19.8737 212.109 11.573 212.109 12.9227C212.109 13.1252 211.067 13.8 209.818 14.4074C206.138 16.297 199.542 21.4934 198.778 23.1805C198.361 24.0579 197.875 24.6652 197.667 24.4628C197.459 24.3278 197.875 23.4505 198.431 22.5057ZM292.651 16.2295C292.651 15.6896 295.289 17.3768 296.192 18.4565C296.817 19.1989 296.331 19.0639 294.873 18.0516C293.692 17.1743 292.651 16.3645 292.651 16.2295ZM215.581 10.9656C216.553 10.4257 217.594 10.0208 218.011 10.0208C218.358 10.0208 217.941 10.4257 216.969 10.9656C215.997 11.5055 214.886 11.9104 214.539 11.9104C214.122 11.9104 214.608 11.5055 215.581 10.9656ZM280.153 10.6282C279.598 10.2908 279.389 9.95332 279.806 9.95332C280.153 9.95332 280.986 10.2908 281.542 10.6282C282.097 10.9656 282.236 11.303 281.889 11.303C281.472 11.303 280.708 10.9656 280.153 10.6282ZM275.64 9.27846C274.737 8.94103 274.668 8.67109 275.293 8.67109C275.848 8.67109 276.959 8.94103 277.723 9.27846C278.625 9.61589 278.695 9.88584 278.07 9.88584C277.515 9.88584 276.404 9.61589 275.64 9.27846ZM272.029 8.19869C272.238 7.99623 272.863 7.92875 273.349 8.1312C273.904 8.33366 273.696 8.53612 272.932 8.53612C272.168 8.60361 271.752 8.40115 272.029 8.19869ZM268.835 7.45635C269.321 7.32137 270.155 7.32137 270.571 7.45635C271.057 7.6588 270.71 7.79378 269.738 7.79378C268.766 7.79378 268.419 7.6588 268.835 7.45635ZM226.204 7.52383C226.412 7.32137 227.037 7.25389 227.523 7.45635C228.078 7.6588 227.87 7.86126 227.106 7.86126C226.343 7.92875 225.926 7.72629 226.204 7.52383ZM264.669 6.78149C265.156 6.64652 266.128 6.64652 266.752 6.78149C267.447 6.98395 267.03 7.11892 265.919 7.11892C264.739 7.11892 264.253 6.98395 264.669 6.78149ZM228.981 6.84897C229.189 6.64652 229.814 6.57903 230.3 6.78149C230.856 6.98395 230.647 7.1864 229.884 7.1864C229.12 7.25389 228.703 7.05143 228.981 6.84897ZM259.809 6.10663C260.295 5.97166 261.267 5.97166 261.892 6.10663C262.586 6.30909 262.17 6.44406 261.059 6.44406C259.879 6.44406 259.393 6.30909 259.809 6.10663ZM232.036 6.10663C232.522 5.97166 233.494 5.97166 234.119 6.10663C234.813 6.30909 234.397 6.44406 233.286 6.44406C232.106 6.44406 231.62 6.30909 232.036 6.10663ZM254.949 5.43177C255.435 5.2968 256.407 5.2968 257.032 5.43177C257.726 5.63423 257.31 5.7692 256.199 5.7692C255.018 5.7692 254.532 5.63423 254.949 5.43177ZM237.244 5.43177C237.938 5.2968 239.049 5.2968 239.674 5.43177C240.368 5.63423 239.813 5.7692 238.493 5.7692C237.174 5.7692 236.619 5.63423 237.244 5.43177ZM244.881 4.75691C245.575 4.62194 246.686 4.62194 247.311 4.75691C248.006 4.95937 247.45 5.09434 246.131 5.09434C244.812 5.09434 244.256 4.95937 244.881 4.75691Z"/>
</mask>
<path d="M181.559 404.07C205.999 403.733 207.04 403.665 210.72 402.181C216.622 399.751 220.857 396.445 223.01 392.463C224.676 389.426 224.954 388.076 224.954 383.487C224.954 378.831 224.676 377.481 222.871 374.039C220.371 369.18 217.108 366.616 209.54 363.646C195.723 358.18 194.751 357.438 194.751 351.701C194.751 345.763 196.973 341.309 201.972 336.787C209.54 330.038 220.719 325.517 235.022 323.425C243.979 322.075 251.755 322.143 262.1 323.762C277.098 326.057 286.124 329.094 294.248 334.83C300.288 339.014 301.538 340.499 303.482 346.033C306.815 355.211 304.663 358.922 294.109 362.634C286.68 365.199 283.902 366.683 280.431 369.788C276.195 373.634 274.39 378.493 274.737 385.174C275.223 393.408 278.764 398.199 287.096 401.978L290.915 403.733L353.127 403.935C403.674 404.07 415.477 403.935 416.102 403.193C417.283 401.843 415.894 288.737 414.644 284.283C412.353 276.32 409.09 271.663 403.674 268.761C400.341 266.939 399.3 266.737 394.023 266.737C383.052 266.804 378.123 270.786 372.846 283.811C369.582 291.977 368.263 294.001 365.764 295.351C363.542 296.498 359.029 296.228 354.585 294.743C344.795 291.437 335.838 276.86 332.644 258.638C328.686 236.773 335.56 207.552 347.294 195.674C350.766 192.165 352.016 191.423 356.112 190.208C362.014 188.453 363.889 188.453 366.736 190.14C369.166 191.558 370.763 194.257 373.471 201.073C377.22 210.791 380.622 214.84 387.079 217.202C392.703 219.294 400.341 218.754 404.854 216.055C408.812 213.693 412.283 209.239 414.366 203.84C415.894 199.926 415.894 199.723 416.102 142.563C416.172 111.047 416.102 84.5251 415.894 83.6478L415.547 82.1631H354.585C286.402 82.1631 289.943 82.4331 284.041 77.3716C280.084 73.9974 278.487 70.0832 278.903 64.7518C279.459 56.856 283.486 52.7393 294.04 49.0276C302.58 46.0582 306.26 43.6962 307.926 40.1195C310.009 35.8004 309.592 31.2788 306.746 24.4628C304.316 18.8614 298.067 13.5301 288.832 9.21098C280.986 5.49926 273.418 3.47468 261.198 1.78754C251.547 0.437823 249.811 0.370337 240.923 1.0452C222.871 2.52988 208.429 7.86126 198.986 16.4994C194.89 20.2786 193.779 21.7633 192.598 25.1376C190.376 31.4138 190.168 35.463 191.835 39.1747C193.64 43.0888 197.042 45.3159 205.86 48.3527C217.108 52.2669 221.135 56.7885 221.135 65.3592C221.135 71.0955 219.191 74.8072 214.608 77.9115C207.526 82.6355 210.581 82.4331 145.801 82.6355C113.723 82.7705 86.7829 82.973 85.8802 83.1754L84.3527 83.5128V142.495C84.3527 206.742 84.4916 204.11 80.3951 209.846C78.0343 213.153 72.688 215.785 68.1749 215.785C58.8709 215.785 54.7744 212.343 50.0529 200.398C46.3036 191.153 43.9429 188.048 39.5686 186.834C35.4721 185.754 33.528 185.889 27.4179 187.846C22.4187 189.466 21.4467 190.073 17.7668 193.92C8.46277 203.57 3.18588 217.405 0.96402 238.19C-1.18839 258.571 5.19943 281.246 16.5864 293.124C20.7523 297.578 21.5161 298.05 26.6541 299.737C33.2502 301.829 36.4442 301.897 40.4018 300.142C44.0818 298.523 46.5119 294.946 49.5669 286.645C52.1359 279.829 55.0521 275.577 58.6626 273.485C60.6067 272.406 62.2731 272.136 67.1334 272.136C72.688 272.136 73.3129 272.271 76.0902 274.16C77.6872 275.307 79.909 277.737 81.02 279.627C84.9776 286.51 85.0471 287.185 85.0471 347.787C85.0471 395.297 85.1859 403.328 86.0191 404.07C87.0606 404.88 121.777 404.88 181.559 404.07ZM89.3519 379.303L89.5602 357.843L89.699 378.898L89.9073 400.021L106.085 400.224L122.194 400.359L105.669 400.561L89.213 400.696L89.3519 379.303ZM412.283 391.788C412.422 390.168 412.561 391.451 412.561 394.622C412.561 397.794 412.422 399.076 412.283 397.524C412.145 395.905 412.145 393.34 412.283 391.788ZM293.484 399.684C293.901 399.211 401.799 399.211 402.216 399.684C402.424 399.886 377.984 400.021 347.85 400.021C317.716 400.021 293.276 399.886 293.484 399.684ZM200.791 399.549C201.277 399.414 202.249 399.414 202.874 399.549C203.569 399.751 203.152 399.886 202.041 399.886C200.861 399.886 200.375 399.751 200.791 399.549ZM192.876 399.616C193.084 399.414 193.709 399.346 194.195 399.549C194.751 399.751 194.542 399.954 193.779 399.954C193.015 400.021 192.598 399.819 192.876 399.616ZM175.448 399.549C178.365 399.414 183.364 399.414 186.558 399.549C189.752 399.616 187.321 399.751 181.211 399.751C175.101 399.751 172.532 399.616 175.448 399.549ZM204.68 398.941C204.888 398.739 205.513 398.672 205.999 398.874C206.554 399.076 206.346 399.279 205.582 399.279C204.818 399.346 204.402 399.144 204.68 398.941ZM212.595 395.972C214.608 394.825 217.039 392.8 218.011 391.451C218.983 390.033 219.747 389.156 219.747 389.493C219.747 391.518 212.109 397.997 209.748 397.997C209.332 397.997 210.581 397.052 212.595 395.972ZM283.902 395.23C283.694 394.825 284.249 395.027 285.291 395.635C286.263 396.31 287.096 396.917 287.096 397.119C287.096 397.592 284.388 395.972 283.902 395.23ZM280.431 391.113C278.834 388.076 279.598 388.211 281.333 391.316C282.167 392.733 282.514 393.813 282.167 393.543C281.819 393.34 281.056 392.26 280.431 391.113ZM219.955 387.064C220.163 386.524 220.371 386.727 220.371 387.469C220.441 388.211 220.233 388.616 220.024 388.346C219.816 388.144 219.747 387.536 219.955 387.064ZM278.903 383.42L279.111 380.113L279.459 383.96C279.667 386.052 279.528 387.536 279.25 387.266C278.903 386.929 278.764 385.242 278.903 383.42ZM220.649 382.677C220.857 382.003 220.996 382.407 220.996 383.487C220.996 384.634 220.857 385.107 220.649 384.702C220.51 384.23 220.51 383.285 220.649 382.677ZM219.469 378.088C219.122 376.604 219.191 376.334 219.747 377.076C220.094 377.616 220.441 378.696 220.441 379.371C220.441 381.125 220.024 380.585 219.469 378.088ZM280.014 377.616C280.57 377.076 280.639 377.346 280.361 378.493C280.084 379.371 279.806 379.708 279.598 379.168C279.459 378.696 279.667 377.953 280.014 377.616ZM281.68 374.242C282.722 372.69 289.526 368.303 290.915 368.303C291.262 368.303 289.804 369.315 287.513 370.462C285.291 371.677 283 373.297 282.444 374.174C281.819 375.052 281.194 375.726 281.056 375.726C280.847 375.726 281.125 375.052 281.68 374.242ZM213.15 370.058C212.734 369.788 213.081 369.788 213.845 370.193C214.608 370.597 215.997 371.745 216.969 372.824L218.705 374.714L216.275 372.69C214.956 371.61 213.498 370.395 213.15 370.058ZM411.589 337.462C411.659 330.848 411.728 336.112 411.728 349.069C411.797 362.094 411.659 367.493 411.589 361.082C411.45 354.738 411.45 344.076 411.589 337.462ZM292.651 367.628C293.206 367.291 293.97 366.953 294.387 366.953C294.734 366.953 294.595 367.291 294.04 367.628C293.484 367.966 292.651 368.303 292.304 368.303C291.887 368.303 292.095 367.966 292.651 367.628ZM298.205 365.604C298.761 365.266 299.525 364.929 299.941 364.929C300.288 364.929 300.15 365.266 299.594 365.604C299.039 365.941 298.205 366.278 297.858 366.278C297.442 366.278 297.65 365.941 298.205 365.604ZM196.001 362.972C194.265 361.892 192.598 360.61 192.251 360.07C191.973 359.597 192.321 359.665 193.084 360.34C193.779 360.947 195.792 362.229 197.528 363.174C199.264 364.119 200.305 364.929 199.889 364.929C199.542 364.929 197.736 364.051 196.001 362.972ZM303.968 362.702C305.079 361.892 306.537 360.475 307.301 359.53C308.482 358.18 308.551 358.113 307.995 359.26C307.232 360.745 303.343 364.254 302.51 364.254C302.233 364.254 302.927 363.579 303.968 362.702ZM308.829 356.021C309.037 355.481 309.245 355.683 309.245 356.425C309.315 357.168 309.106 357.573 308.898 357.303C308.69 357.1 308.62 356.493 308.829 356.021ZM190.099 354.671C190.307 354.131 190.515 354.333 190.515 355.076C190.585 355.818 190.376 356.223 190.168 355.953C189.96 355.751 189.89 355.143 190.099 354.671ZM309.523 352.309C309.731 351.634 309.87 352.039 309.87 353.119C309.87 354.266 309.731 354.738 309.523 354.333C309.384 353.861 309.384 352.916 309.523 352.309ZM190.099 347.247C190.307 346.775 190.446 347.112 190.446 348.057C190.446 349.002 190.307 349.339 190.099 348.935C189.96 348.462 189.96 347.652 190.099 347.247ZM308.829 347.247C309.037 346.707 309.245 346.91 309.245 347.652C309.315 348.395 309.106 348.8 308.898 348.53C308.69 348.327 308.62 347.72 308.829 347.247ZM306.954 342.928C306.746 342.388 306.815 342.118 307.232 342.321C307.648 342.523 307.926 342.996 307.926 343.401C307.926 344.345 307.44 344.143 306.954 342.928ZM305.843 339.959C305.426 339.217 305.288 338.609 305.426 338.609C305.635 338.609 306.121 339.217 306.537 339.959C306.954 340.701 307.093 341.309 306.954 341.309C306.746 341.309 306.26 340.701 305.843 339.959ZM193.223 338.812C193.64 338.137 195.445 336.247 197.25 334.56L200.583 331.523L196.973 335.37C194.959 337.462 193.362 339.554 193.362 340.026C193.362 340.499 193.154 340.701 192.945 340.499C192.737 340.229 192.876 339.487 193.223 338.812ZM298.83 332.738C297.928 331.591 297.928 331.591 299.247 332.535C300.011 333.075 300.774 333.615 300.913 333.683C301.052 333.818 300.913 333.885 300.497 333.885C300.08 333.885 299.316 333.345 298.83 332.738ZM89.4213 331.726C89.6296 331.186 89.8379 331.388 89.8379 332.131C89.9073 332.873 89.699 333.278 89.4908 333.008C89.2824 332.805 89.213 332.198 89.4213 331.726ZM201 331.591C201 331.456 201.555 330.916 202.18 330.443C203.291 329.566 203.36 329.634 202.458 330.713C201.555 331.793 201 332.131 201 331.591ZM291.957 328.081C291.957 327.609 295.984 329.769 296.47 330.511C296.678 330.848 295.775 330.578 294.456 329.769C293.067 328.959 291.957 328.216 291.957 328.081ZM89.4213 329.026C89.6296 328.486 89.8379 328.689 89.8379 329.431C89.9073 330.173 89.699 330.578 89.4908 330.308C89.2824 330.106 89.213 329.499 89.4213 329.026ZM289.526 326.597C289.735 326.394 290.29 326.597 290.776 327.069C291.401 327.744 291.332 327.811 290.36 327.407C289.665 327.204 289.318 326.799 289.526 326.597ZM207.249 327.474C207.249 327.339 207.943 326.867 208.776 326.462C210.304 325.719 210.304 325.787 209.054 326.732C207.596 327.879 207.249 328.014 207.249 327.474ZM89.4213 326.327C89.6296 325.787 89.8379 325.989 89.8379 326.732C89.9073 327.474 89.699 327.879 89.4908 327.609C89.2824 327.407 89.213 326.799 89.4213 326.327ZM286.749 325.247C286.957 325.045 287.513 325.247 287.999 325.719C288.624 326.394 288.554 326.462 287.582 326.057C286.888 325.854 286.541 325.449 286.749 325.247ZM211.415 325.112C211.97 324.775 212.734 324.437 213.15 324.437C213.498 324.437 213.359 324.775 212.803 325.112C212.248 325.449 211.415 325.787 211.067 325.787C210.651 325.787 210.859 325.449 211.415 325.112ZM281.542 323.762C280.986 323.425 280.778 323.087 281.194 323.087C281.542 323.087 282.375 323.425 282.93 323.762C283.486 324.1 283.625 324.437 283.277 324.437C282.861 324.437 282.097 324.1 281.542 323.762ZM216.275 323.087C216.83 322.75 217.802 322.48 218.358 322.48C219.052 322.48 218.913 322.683 218.011 323.087C216.136 323.897 215.025 323.897 216.275 323.087ZM277.029 322.413C276.126 322.075 276.056 321.805 276.681 321.805C277.237 321.805 278.348 322.075 279.111 322.413C280.014 322.75 280.084 323.02 279.459 323.02C278.903 323.02 277.792 322.75 277.029 322.413ZM89.4213 321.603C89.6296 321.063 89.8379 321.265 89.8379 322.008C89.9073 322.75 89.699 323.155 89.4908 322.885C89.2824 322.683 89.213 322.075 89.4213 321.603ZM273.418 321.333C273.626 321.13 274.251 321.063 274.737 321.265C275.293 321.468 275.084 321.67 274.321 321.67C273.557 321.738 273.14 321.535 273.418 321.333ZM270.641 320.658C270.849 320.456 271.474 320.388 271.96 320.59C272.515 320.793 272.307 320.995 271.543 320.995C270.78 321.063 270.363 320.86 270.641 320.658ZM224.121 320.658C224.329 320.456 224.954 320.388 225.44 320.59C225.995 320.793 225.787 320.995 225.023 320.995C224.26 321.063 223.843 320.86 224.121 320.658ZM266.475 319.983C266.683 319.781 267.308 319.713 267.794 319.916C268.349 320.118 268.141 320.321 267.377 320.321C266.614 320.388 266.197 320.186 266.475 319.983ZM226.898 319.983C227.106 319.781 227.731 319.713 228.217 319.916C228.773 320.118 228.564 320.321 227.801 320.321C227.037 320.388 226.62 320.186 226.898 319.983ZM89.4213 317.891C89.6296 317.216 89.7685 317.621 89.7685 318.701C89.7685 319.848 89.6296 320.321 89.4213 319.916C89.2824 319.443 89.2824 318.498 89.4213 317.891ZM261.892 319.241C262.378 319.106 263.35 319.106 263.975 319.241C264.669 319.443 264.253 319.578 263.142 319.578C261.962 319.578 261.476 319.443 261.892 319.241ZM229.953 319.241C230.439 319.106 231.411 319.106 232.036 319.241C232.73 319.443 232.314 319.578 231.203 319.578C230.023 319.578 229.537 319.443 229.953 319.241ZM257.032 318.566C257.518 318.431 258.351 318.431 258.768 318.566C259.254 318.768 258.907 318.903 257.934 318.903C256.962 318.903 256.615 318.768 257.032 318.566ZM234.119 318.566C234.605 318.431 235.577 318.431 236.202 318.566C236.896 318.768 236.48 318.903 235.369 318.903C234.189 318.903 233.702 318.768 234.119 318.566ZM242.104 317.891C243.909 317.756 247.034 317.756 249.047 317.891C251.061 318.026 249.603 318.094 245.784 318.094C241.965 318.094 240.299 318.026 242.104 317.891ZM89.4213 312.83C89.5602 311.952 89.699 312.492 89.699 313.977C89.7685 315.462 89.6296 316.136 89.4213 315.529C89.2824 314.854 89.2824 313.639 89.4213 312.83ZM89.4213 309.455C89.6296 308.915 89.8379 309.118 89.8379 309.86C89.9073 310.603 89.699 311.008 89.4908 310.738C89.2824 310.535 89.213 309.928 89.4213 309.455ZM410.895 292.921C410.964 290.019 411.103 292.381 411.103 298.118C411.103 303.854 410.964 306.216 410.895 303.382C410.756 300.48 410.756 295.756 410.895 292.921ZM89.4213 306.756C89.6296 306.216 89.8379 306.418 89.8379 307.161C89.9073 307.903 89.699 308.308 89.4908 308.038C89.2824 307.836 89.213 307.228 89.4213 306.756ZM89.4213 304.056C89.6296 303.517 89.8379 303.719 89.8379 304.461C89.9073 305.204 89.699 305.609 89.4908 305.339C89.2824 305.136 89.213 304.529 89.4213 304.056ZM89.4213 299.332C89.5602 298.455 89.699 298.995 89.699 300.48C89.7685 301.964 89.6296 302.639 89.4213 302.032C89.2824 301.357 89.2824 300.142 89.4213 299.332ZM363.681 300.412C363.889 300.21 364.514 300.142 365 300.345C365.555 300.547 365.347 300.75 364.583 300.75C363.819 300.817 363.403 300.615 363.681 300.412ZM358.056 300.345C358.751 300.21 360.001 300.21 360.834 300.345C361.736 300.48 361.181 300.615 359.653 300.615C358.126 300.682 357.432 300.547 358.056 300.345ZM367.291 299.332C368.055 298.928 369.721 297.645 371.04 296.498L373.471 294.406L371.735 296.566C370.138 298.59 368.055 300.007 366.597 300.075C366.18 300.075 366.527 299.737 367.291 299.332ZM354.654 299.737C354.863 299.535 355.487 299.467 355.973 299.67C356.529 299.872 356.321 300.075 355.557 300.075C354.793 300.142 354.377 299.94 354.654 299.737ZM351.669 298.793C351.113 298.455 350.905 298.118 351.322 298.118C351.669 298.118 352.502 298.455 353.057 298.793C353.613 299.13 353.752 299.467 353.404 299.467C352.988 299.467 352.224 299.13 351.669 298.793ZM344.031 293.596L340.212 289.682L344.378 293.394C346.67 295.418 348.683 297.173 348.822 297.308C348.961 297.375 348.822 297.443 348.475 297.443C348.128 297.443 346.114 295.688 344.031 293.596ZM89.4213 295.958C89.6296 295.418 89.8379 295.621 89.8379 296.363C89.9073 297.105 89.699 297.51 89.4908 297.24C89.2824 297.038 89.213 296.431 89.4213 295.958ZM34.1529 296.97C34.6389 296.835 35.4721 296.835 35.8887 296.97C36.3747 297.173 36.0276 297.308 35.0555 297.308C34.0834 297.308 33.7363 297.173 34.1529 296.97ZM40.0547 294.946C40.6795 294.271 41.7905 292.516 42.5542 291.032C43.3874 289.547 44.0123 288.602 44.0818 288.872C44.1512 290.289 40.3324 296.093 39.3603 296.093C39.152 296.093 39.4992 295.553 40.0547 294.946ZM26.7236 295.418C25.4738 294.608 26.5847 294.608 28.4594 295.418C29.362 295.823 29.5009 296.026 28.8065 296.026C28.2511 296.026 27.279 295.756 26.7236 295.418ZM89.4213 292.246C89.6296 291.572 89.7685 291.977 89.7685 293.056C89.7685 294.204 89.6296 294.676 89.4213 294.271C89.2824 293.799 89.2824 292.854 89.4213 292.246ZM23.5991 294.069C23.3908 293.664 23.6685 293.596 24.224 293.799C25.4738 294.271 25.6821 294.743 24.71 294.743C24.2934 294.743 23.8074 294.473 23.5991 294.069ZM88.727 287.86C88.9353 287.387 89.0742 287.725 89.0742 288.67C89.0742 289.615 88.9353 289.952 88.727 289.547C88.5881 289.075 88.5881 288.265 88.727 287.86ZM18.0445 288.67C17.3502 287.927 17.0724 287.32 17.4196 287.32C17.7668 287.32 18.4611 287.927 18.9471 288.67C19.4331 289.412 19.7109 290.019 19.572 290.019C19.4331 290.019 18.7388 289.412 18.0445 288.67ZM339.101 288.197C338.199 287.118 338.268 287.05 339.31 287.927C340.49 288.805 340.837 289.345 340.282 289.345C340.143 289.345 339.587 288.805 339.101 288.197ZM376.456 286.308C376.664 285.7 377.012 285.363 377.15 285.565C377.359 285.768 377.289 286.173 377.012 286.578C376.387 287.657 375.97 287.455 376.456 286.308ZM410.2 285.16C410.409 284.621 410.617 284.823 410.617 285.565C410.686 286.308 410.478 286.713 410.27 286.443C410.062 286.24 409.992 285.633 410.2 285.16ZM88.0327 284.486C88.2409 283.946 88.4492 284.148 88.4492 284.891C88.5187 285.633 88.3104 286.038 88.1021 285.768C87.8938 285.565 87.8243 284.958 88.0327 284.486ZM45.401 284.148C46.2342 282.798 46.373 283.203 45.7481 284.958C45.4704 285.565 45.1232 285.903 44.9844 285.7C44.7761 285.565 44.9844 284.823 45.401 284.148ZM336.393 283.946C335.977 283.203 335.838 282.596 335.977 282.596C336.185 282.596 336.671 283.203 337.088 283.946C337.504 284.688 337.643 285.295 337.504 285.295C337.296 285.295 336.81 284.688 336.393 283.946ZM13.8785 282.596C13.2536 281.516 12.9759 280.571 13.1147 280.571C13.3231 280.571 13.9479 281.516 14.5728 282.596C15.1977 283.743 15.4755 284.621 15.3366 284.621C15.1283 284.621 14.5034 283.743 13.8785 282.596ZM379.303 279.424C380.067 278.007 381.386 276.252 382.288 275.51C383.747 274.295 383.747 274.295 382.15 276.252C381.178 277.4 379.997 279.357 379.442 280.504C378.956 281.651 378.4 282.528 378.261 282.326C378.123 282.191 378.539 280.909 379.303 279.424ZM46.7896 280.774C47.6228 279.424 47.7617 279.829 47.1368 281.584C46.859 282.191 46.5119 282.528 46.373 282.326C46.1647 282.191 46.373 281.449 46.7896 280.774ZM85.8108 279.222C85.0471 277.602 85.0471 277.602 86.0191 278.817C86.644 279.559 87.13 280.436 87.13 280.841C87.13 281.651 86.7829 281.314 85.8108 279.222ZM407.631 279.492C407.423 278.952 407.493 278.682 407.909 278.884C408.326 279.087 408.603 279.559 408.603 279.964C408.603 280.909 408.117 280.706 407.631 279.492ZM10.1292 274.835C10.1292 274.498 10.6846 275.24 11.4484 276.522C12.2121 277.804 12.7676 279.222 12.7676 279.559C12.7676 279.964 12.2121 279.154 11.4484 277.872C10.6846 276.59 10.1292 275.24 10.1292 274.835ZM332.922 276.86C332.922 276.522 333.269 276.657 333.616 277.197C333.963 277.737 334.31 278.547 334.31 278.884C334.31 279.289 333.963 279.087 333.616 278.547C333.269 278.007 332.922 277.265 332.922 276.86ZM84.0056 276.522C83.7973 276.185 83.8667 275.847 84.2833 275.847C84.6305 275.847 85.1859 276.185 85.3942 276.522C85.6025 276.927 85.5331 277.197 85.1165 277.197C84.7693 277.197 84.2139 276.927 84.0056 276.522ZM50.2613 274.633C51.025 273.553 52.2054 272.271 52.8997 271.731C53.5246 271.191 53.0386 272.068 51.7193 273.688C49.0809 276.927 48.1089 277.535 50.2613 274.633ZM404.09 274.498C403.396 273.755 402.979 273.148 403.188 273.148C403.396 273.148 404.09 273.755 404.785 274.498C405.479 275.24 405.896 275.847 405.687 275.847C405.479 275.847 404.785 275.24 404.09 274.498ZM385.274 272.811C386.038 272.271 387.01 271.798 387.357 271.798C387.774 271.866 387.357 272.271 386.385 272.811C384.163 274.093 383.608 274.025 385.274 272.811ZM400.619 271.933C400.827 271.731 401.382 271.933 401.869 272.406C402.493 273.08 402.424 273.148 401.452 272.743C400.758 272.541 400.41 272.136 400.619 271.933ZM388.676 271.393C388.885 271.191 389.509 271.123 389.996 271.326C390.551 271.528 390.343 271.731 389.579 271.731C388.815 271.798 388.399 271.596 388.676 271.393ZM8.04617 268.761C8.04617 268.424 8.32388 268.559 8.67105 269.099C9.01822 269.639 9.29596 270.583 9.29596 271.123C9.29596 272.203 8.1156 270.044 8.04617 268.761ZM392.773 270.651C393.467 270.516 394.717 270.516 395.55 270.651C396.453 270.786 395.897 270.921 394.37 270.921C392.842 270.988 392.148 270.853 392.773 270.651ZM78.4509 270.449C78.2426 270.044 78.5204 269.976 79.0758 270.179C80.3256 270.651 80.5339 271.123 79.5619 271.123C79.1453 271.123 78.6592 270.853 78.4509 270.449ZM75.6736 268.559C75.8819 268.356 76.4374 268.559 76.9234 269.031C77.5483 269.706 77.4789 269.774 76.5068 269.369C75.8125 269.166 75.4653 268.761 75.6736 268.559ZM56.9268 269.099C57.1351 268.761 57.76 268.424 58.1766 268.424C58.6626 268.424 58.5932 268.694 57.9683 269.099C56.6491 269.909 56.3713 269.909 56.9268 269.099ZM329.658 266.939C329.867 266.399 330.075 266.602 330.075 267.344C330.145 268.087 329.936 268.491 329.728 268.221C329.52 268.019 329.45 267.412 329.658 266.939ZM60.3984 267.749C61.1622 267.412 62.6897 267.209 63.8701 267.209C65.8836 267.277 65.8836 267.277 63.5229 267.749C60.1207 268.424 58.7321 268.424 60.3984 267.749ZM70.2579 267.277C70.7439 267.142 71.5771 267.142 71.9937 267.277C72.4797 267.479 72.1326 267.614 71.1605 267.614C70.1884 267.614 69.8413 267.479 70.2579 267.277ZM7.49069 266.264C7.69901 265.725 7.90729 265.927 7.90729 266.669C7.97675 267.412 7.76843 267.817 7.56015 267.547C7.35184 267.344 7.28241 266.737 7.49069 266.264ZM328.964 264.24C329.172 263.7 329.381 263.902 329.381 264.645C329.45 265.387 329.242 265.792 329.034 265.522C328.825 265.32 328.756 264.712 328.964 264.24ZM6.72696 262.958C6.93524 262.418 7.21298 262.755 7.49069 263.632C7.76843 264.78 7.69901 265.05 7.14355 264.51C6.79639 264.172 6.58807 263.43 6.72696 262.958ZM328.27 260.191C328.478 259.718 328.617 260.056 328.617 261C328.617 261.945 328.478 262.283 328.27 261.878C328.131 261.405 328.131 260.596 328.27 260.191ZM6.10205 259.516C6.31036 258.976 6.51865 259.178 6.51865 259.921C6.58807 260.663 6.37979 261.068 6.17148 260.798C5.9632 260.596 5.89374 259.988 6.10205 259.516ZM327.576 256.479C327.784 255.804 327.923 256.209 327.923 257.289C327.923 258.436 327.784 258.908 327.576 258.504C327.437 258.031 327.437 257.086 327.576 256.479ZM5.40771 254.454C5.61603 253.78 5.75488 254.184 5.75488 255.264C5.75488 256.411 5.61603 256.884 5.40771 256.479C5.26886 256.007 5.26886 255.062 5.40771 254.454ZM326.881 240.282C327.02 237.718 327.089 239.81 327.089 244.804C327.089 249.798 327.02 251.89 326.881 249.393C326.742 246.828 326.742 242.779 326.881 240.282ZM4.71341 246.356C4.92169 245.681 5.06055 246.221 5.06055 247.503C5.06055 248.786 4.92169 249.325 4.71341 248.718C4.57452 248.043 4.57452 246.963 4.71341 246.356ZM5.40771 236.908C5.61603 236.233 5.75488 236.638 5.75488 237.718C5.75488 238.865 5.61603 239.338 5.40771 238.933C5.26886 238.46 5.26886 237.515 5.40771 236.908ZM327.576 232.184C327.784 231.509 327.923 231.914 327.923 232.994C327.923 234.141 327.784 234.614 327.576 234.209C327.437 233.736 327.437 232.791 327.576 232.184ZM6.10205 232.184C6.31036 231.509 6.44922 231.914 6.44922 232.994C6.44922 234.141 6.31036 234.614 6.10205 234.209C5.9632 233.736 5.9632 232.791 6.10205 232.184ZM328.27 227.797C328.478 227.325 328.617 227.663 328.617 228.607C328.617 229.552 328.478 229.89 328.27 229.485C328.131 229.012 328.131 228.202 328.27 227.797ZM6.79639 227.123C7.00467 226.65 7.14355 226.988 7.14355 227.932C7.14355 228.877 7.00467 229.215 6.79639 228.81C6.6575 228.337 6.6575 227.528 6.79639 227.123ZM328.964 223.748C329.172 223.276 329.311 223.613 329.311 224.558C329.311 225.503 329.172 225.84 328.964 225.435C328.825 224.963 328.825 224.153 328.964 223.748ZM7.49069 223.748C7.69901 223.276 7.83786 223.613 7.83786 224.558C7.83786 225.503 7.69901 225.84 7.49069 225.435C7.35184 224.963 7.35184 224.153 7.49069 223.748ZM329.658 220.374C329.867 219.902 330.006 220.239 330.006 221.184C330.006 222.129 329.867 222.466 329.658 222.061C329.52 221.589 329.52 220.779 329.658 220.374ZM8.18503 221.049C8.39334 220.509 8.60162 220.711 8.60162 221.454C8.67105 222.196 8.46277 222.601 8.25446 222.331C8.04617 222.129 7.97675 221.521 8.18503 221.049ZM65.7448 220.037C66.7863 219.902 68.6609 219.902 69.9107 220.037C71.1605 220.172 70.3273 220.307 68.036 220.307C65.7448 220.307 64.7032 220.172 65.7448 220.037ZM75.257 218.822C76.5068 218.282 77.7566 217.81 78.0343 217.81C78.937 217.877 74.9099 219.767 73.9378 219.767C73.3824 219.767 73.9378 219.362 75.257 218.822ZM9.01822 218.012C9.22653 216.932 9.71255 215.852 10.0597 215.515C10.4069 215.178 10.3374 215.987 9.92084 217.337C9.01822 220.239 8.32388 220.711 9.01822 218.012ZM330.353 217.675C330.561 217.135 330.769 217.337 330.769 218.08C330.839 218.822 330.631 219.227 330.422 218.957C330.214 218.754 330.145 218.147 330.353 217.675ZM55.191 216.73C55.191 216.595 55.8159 216.73 56.5796 217.135C57.3434 217.54 57.9683 218.012 57.9683 218.214C57.9683 218.349 57.3434 218.214 56.5796 217.81C55.8159 217.405 55.191 216.932 55.191 216.73ZM78.7981 217.607C78.7981 217.472 80.1173 216.19 81.7143 214.773L84.6999 212.073L81.9226 214.975C79.423 217.607 78.7981 218.147 78.7981 217.607ZM52.7608 215.11C52.0665 214.368 51.6499 213.76 51.8582 213.76C52.0665 213.76 52.7608 214.368 53.4552 215.11C54.1495 215.852 54.5661 216.46 54.3578 216.46C54.1495 216.46 53.4552 215.852 52.7608 215.11ZM393.12 213.963C394.023 213.828 395.55 213.828 396.592 213.963C397.703 214.098 396.939 214.233 395.064 214.233C393.12 214.233 392.287 214.098 393.12 213.963ZM10.5457 213.423C10.754 212.816 11.1012 212.478 11.2401 212.681C11.4484 212.883 11.3789 213.288 11.1012 213.693C10.4763 214.773 10.0597 214.57 10.5457 213.423ZM399.577 213.288C400.133 213.086 401.244 212.613 402.007 212.276C403.396 211.668 403.396 211.668 402.077 212.681C401.313 213.288 400.202 213.76 399.647 213.693C398.675 213.693 398.675 213.625 399.577 213.288ZM386.385 212.411C384.927 211.668 383.052 210.116 382.219 208.901L380.692 206.674L382.775 208.834C383.885 210.049 386.177 211.668 387.843 212.411C389.509 213.153 390.482 213.76 389.996 213.76C389.509 213.76 387.913 213.153 386.385 212.411ZM50.2613 211.938C49.3586 210.859 49.4281 210.791 50.4695 211.668C51.1639 212.141 51.7193 212.681 51.7193 212.816C51.7193 213.356 51.1639 213.018 50.2613 211.938ZM406.173 208.632C407.493 206.944 408.603 205.257 408.603 204.852C408.603 204.447 408.812 204.312 409.02 204.515C409.506 204.987 407.77 207.889 405.618 210.251C403.327 212.681 403.604 211.938 406.173 208.632ZM12.4204 209.239C12.9759 208.227 13.4619 207.552 13.5313 207.822C13.5313 208.632 11.9344 211.736 11.6567 211.466C11.4484 211.331 11.7955 210.319 12.4204 209.239ZM333.547 208.564C334.38 207.214 334.519 207.619 333.894 209.374C333.616 209.981 333.269 210.319 333.13 210.116C332.922 209.981 333.13 209.239 333.547 208.564ZM86.2274 208.699C86.4357 208.092 86.7829 207.754 86.9217 207.957C87.13 208.159 87.0606 208.564 86.7829 208.969C86.158 210.049 85.7414 209.846 86.2274 208.699ZM46.859 205.325C46.859 204.987 47.2062 205.122 47.5534 205.662C47.9005 206.202 48.2477 207.012 48.2477 207.349C48.2477 207.754 47.9005 207.552 47.5534 207.012C47.2062 206.472 46.859 205.73 46.859 205.325ZM335.699 203.705C337.643 199.926 338.129 200.196 336.255 203.975C335.421 205.595 334.658 206.877 334.449 206.742C334.31 206.607 334.866 205.257 335.699 203.705ZM87.7549 204.92C88.1021 204.042 88.4492 203.638 88.4492 204.11C88.5187 205.122 87.7549 207.147 87.4077 206.809C87.1995 206.674 87.4077 205.797 87.7549 204.92ZM14.2257 205.662C14.6423 204.92 15.1283 204.312 15.3366 204.312C15.4755 204.312 15.3366 204.92 14.92 205.662C14.5034 206.404 14.0174 207.012 13.8091 207.012C13.6702 207.012 13.8091 206.404 14.2257 205.662ZM45.4704 201.95C45.4704 201.613 45.8176 201.748 46.1647 202.288C46.5119 202.828 46.859 203.638 46.859 203.975C46.859 204.38 46.5119 204.177 46.1647 203.638C45.8176 203.098 45.4704 202.355 45.4704 201.95ZM409.923 201.546C410.27 200.668 410.617 200.263 410.617 200.736C410.686 201.748 409.923 203.773 409.576 203.435C409.367 203.3 409.576 202.423 409.923 201.546ZM378.053 201.276C378.053 200.938 378.4 201.073 378.747 201.613C379.095 202.153 379.442 202.963 379.442 203.3C379.442 203.705 379.095 203.503 378.747 202.963C378.4 202.423 378.053 201.68 378.053 201.276ZM88.727 124.882C88.7964 110.44 88.8658 122.25 88.8658 150.999C88.8658 179.748 88.7964 191.558 88.727 177.183C88.5881 162.741 88.5881 139.256 88.727 124.882ZM338.754 198.374C339.31 197.361 340.49 195.944 341.323 195.202L342.99 193.852L341.531 195.539C340.698 196.484 339.657 197.901 339.24 198.779C338.824 199.588 338.268 200.263 338.06 200.263C337.921 200.263 338.199 199.453 338.754 198.374ZM17.6973 200.061C17.6973 199.926 18.3916 199.251 19.2248 198.509L20.8218 197.226L19.5026 198.779C18.2528 200.196 17.6973 200.601 17.6973 200.061ZM410.895 198.104C411.103 197.564 411.311 197.766 411.311 198.509C411.381 199.251 411.173 199.656 410.964 199.386C410.756 199.184 410.686 198.576 410.895 198.104ZM43.1097 196.417C42.4848 195.202 42.1376 194.19 42.2765 194.19C42.6931 194.19 44.7761 197.901 44.7761 198.644C44.7761 199.386 44.4289 198.846 43.1097 196.417ZM375.415 194.729C373.818 191.22 373.957 190.343 375.484 193.38C376.595 195.337 377.775 198.779 377.22 198.239C377.012 198.036 376.178 196.484 375.415 194.729ZM411.589 118.808C411.659 104.433 411.728 115.974 411.728 144.587C411.728 173.201 411.659 184.944 411.589 170.772C411.45 156.6 411.45 133.25 411.589 118.808ZM22.5576 195.269C22.5576 195.134 23.1131 194.594 23.7379 194.122C24.8489 193.245 24.9183 193.312 24.0157 194.392C23.1131 195.472 22.5576 195.809 22.5576 195.269ZM342.642 193.312C342.642 193.177 343.962 191.895 345.559 190.478L348.544 187.778L345.767 190.68C343.267 193.312 342.642 193.852 342.642 193.312ZM37.9022 191.018C37.7634 190.883 37.9022 190.815 38.3188 190.815C38.7354 190.815 39.7769 191.423 40.6795 192.232L42.3459 193.582L40.2629 192.435C39.0826 191.76 38.0411 191.153 37.9022 191.018ZM27.4179 192.165C27.9734 191.828 28.9454 191.558 29.5009 191.558C30.1952 191.558 30.0563 191.76 29.1537 192.165C27.279 192.975 26.1681 192.975 27.4179 192.165ZM31.0978 191.085C31.3061 190.883 31.931 190.815 32.4171 191.018C32.9725 191.22 32.7642 191.423 32.0005 191.423C31.2367 191.49 30.8201 191.288 31.0978 191.085ZM373.193 190.14C373.193 189.803 373.332 189.466 373.471 189.466C373.679 189.466 374.026 189.803 374.234 190.14C374.443 190.545 374.304 190.815 373.957 190.815C373.54 190.815 373.193 190.545 373.193 190.14ZM35.2638 190.41C35.4721 190.208 36.097 190.14 36.583 190.343C37.1385 190.545 36.9302 190.748 36.1664 190.748C35.4026 190.815 34.9861 190.613 35.2638 190.41ZM371.04 187.643C370.138 186.564 370.207 186.496 371.249 187.373C371.943 187.846 372.498 188.386 372.498 188.521C372.498 189.061 371.943 188.723 371.04 187.643ZM349.586 187.441C350.141 187.104 350.905 186.766 351.322 186.766C351.669 186.766 351.53 187.104 350.974 187.441C350.419 187.778 349.586 188.116 349.239 188.116C348.822 188.116 349.03 187.778 349.586 187.441ZM353.057 186.091C353.613 185.754 354.585 185.484 355.14 185.484C355.835 185.484 355.696 185.686 354.793 186.091C352.918 186.901 351.808 186.901 353.057 186.091ZM360.07 184.337C359.445 183.797 365.277 184.202 366.597 184.742C367.43 185.079 366.527 185.146 364.167 184.944C362.084 184.742 360.209 184.472 360.07 184.337ZM356.737 185.011C356.946 184.809 357.57 184.742 358.056 184.944C358.612 185.146 358.404 185.349 357.64 185.349C356.876 185.416 356.46 185.214 356.737 185.011ZM109.14 87.0896C120.666 86.9546 139.691 86.9546 151.494 87.0896C163.228 87.1571 153.785 87.2246 130.525 87.2246C107.196 87.2246 97.6144 87.1571 109.14 87.0896ZM331.672 86.4147C346.531 86.2798 370.693 86.2798 385.482 86.4147C400.341 86.4822 388.19 86.5497 358.612 86.5497C329.034 86.5497 316.883 86.4822 331.672 86.4147ZM301.469 86.4147C301.955 86.2798 302.927 86.2798 303.552 86.4147C304.246 86.6172 303.83 86.7522 302.719 86.7522C301.538 86.7522 301.052 86.6172 301.469 86.4147ZM292.165 86.4822C292.373 86.2798 292.998 86.2123 293.484 86.4147C294.04 86.6172 293.831 86.8196 293.067 86.8196C292.304 86.8871 291.887 86.6847 292.165 86.4822ZM202.874 86.4147C203.36 86.2798 204.194 86.2798 204.61 86.4147C205.096 86.6172 204.749 86.7522 203.777 86.7522C202.805 86.7522 202.458 86.6172 202.874 86.4147ZM206.763 85.8074C206.971 85.6049 207.596 85.5374 208.082 85.7399C208.637 85.9423 208.429 86.1448 207.665 86.1448C206.901 86.2123 206.485 86.0098 206.763 85.8074ZM210.026 84.8626C210.581 84.5251 211.345 84.1877 211.762 84.1877C212.109 84.1877 211.97 84.5251 211.415 84.8626C210.859 85.2 210.026 85.5374 209.679 85.5374C209.262 85.5374 209.47 85.2 210.026 84.8626ZM212.873 83.9852C213.012 83.8503 214.053 83.2429 215.233 82.568L217.316 81.4208L215.65 82.7705C214.747 83.5803 213.706 84.1877 213.289 84.1877C212.873 84.1877 212.734 84.1202 212.873 83.9852ZM276.195 75.887C275.64 74.8072 275.362 73.7949 275.501 73.5924C275.709 73.4575 276.056 73.9299 276.334 74.8072C276.612 75.617 278.139 77.7091 279.667 79.3962L282.514 82.5006L279.875 80.1386C278.417 78.8563 276.82 76.8992 276.195 75.887ZM221.135 77.844C221.135 77.7091 221.691 77.1692 222.316 76.6968C223.426 75.8195 223.496 75.887 222.593 76.9667C221.691 78.0465 221.135 78.3839 221.135 77.844ZM223.704 74.4023C223.912 73.7949 224.26 73.4575 224.398 73.6599C224.607 73.8624 224.537 74.2673 224.26 74.6722C223.635 75.752 223.218 75.5495 223.704 74.4023ZM274.112 64.1444C274.251 62.7272 274.39 63.7395 274.39 66.304C274.39 68.9359 274.251 70.0157 274.112 68.8684C273.973 67.6537 273.973 65.4941 274.112 64.1444ZM225.509 68.1936C225.718 67.5187 225.857 67.9236 225.857 69.0034C225.857 70.1507 225.718 70.6231 225.509 70.2181C225.371 69.7457 225.371 68.8009 225.509 68.1936ZM225.509 61.445C225.718 60.7701 225.857 61.175 225.857 62.2548C225.857 63.4021 225.718 63.8745 225.509 63.4696C225.371 62.9972 225.371 62.0524 225.509 61.445ZM224.815 58.4081C225.023 57.8682 225.232 58.0707 225.232 58.813C225.301 59.5554 225.093 59.9603 224.885 59.6904C224.676 59.4879 224.607 58.8805 224.815 58.4081ZM223.288 55.1688C222.524 53.5491 222.524 53.5491 223.496 54.7639C224.121 55.5062 224.607 56.3836 224.607 56.7885C224.607 57.5983 224.26 57.2609 223.288 55.1688ZM278.07 52.9418C278.07 52.8068 278.764 52.1319 279.598 51.3896L281.194 50.1074L279.875 51.6595C278.625 53.0767 278.07 53.4817 278.07 52.9418ZM216.275 48.2178C215.372 47.5429 214.817 47.0705 215.095 47.0705C216.136 47.0705 220.302 50.1074 221.135 51.4571C221.829 52.4694 221.552 52.4019 220.024 51.0522C218.913 50.1074 217.247 48.8251 216.275 48.2178ZM281.542 50.1749C281.542 50.0399 282.097 49.5 282.722 49.0276C283.833 48.1503 283.902 48.2178 283 49.2975C282.097 50.3773 281.542 50.7147 281.542 50.1749ZM287.791 46.3957C288.346 46.0582 289.11 45.7208 289.526 45.7208C289.874 45.7208 289.735 46.0582 289.179 46.3957C288.624 46.7331 287.791 47.0705 287.443 47.0705C287.027 47.0705 287.235 46.7331 287.791 46.3957ZM212.456 45.8558C212.664 45.6533 213.22 45.8558 213.706 46.3282C214.331 47.003 214.261 47.0705 213.289 46.6656C212.595 46.4631 212.248 46.0582 212.456 45.8558ZM291.262 45.0459C291.818 44.7085 292.581 44.3711 292.998 44.3711C293.345 44.3711 293.206 44.7085 292.651 45.0459C292.095 45.3834 291.262 45.7208 290.915 45.7208C290.498 45.7208 290.707 45.3834 291.262 45.0459ZM207.249 44.3711C206.693 44.0336 206.485 43.6962 206.901 43.6962C207.249 43.6962 208.082 44.0336 208.637 44.3711C209.193 44.7085 209.332 45.0459 208.984 45.0459C208.568 45.0459 207.804 44.7085 207.249 44.3711ZM296.192 43.4263C296.886 42.8189 300.983 40.9968 300.983 41.2667C300.983 41.7391 297.372 43.6287 296.539 43.6962C296.192 43.6962 296.053 43.5612 296.192 43.4263ZM201.694 42.3465C201.139 42.0091 200.93 41.6716 201.347 41.6716C201.694 41.6716 202.527 42.0091 203.083 42.3465C203.638 42.6839 203.777 43.0214 203.43 43.0214C203.013 43.0214 202.249 42.6839 201.694 42.3465ZM196.764 39.2422C196.139 38.4998 196.625 38.6348 198.014 39.6471C199.264 40.5244 200.305 41.3342 200.305 41.4692C200.305 42.0091 197.667 40.3219 196.764 39.2422ZM301.677 40.7268C301.677 40.5919 302.233 40.052 302.857 39.5796C303.968 38.7023 304.038 38.7698 303.135 39.8495C302.233 40.9293 301.677 41.2667 301.677 40.7268ZM304.663 33.7758C304.871 33.101 305.01 33.5059 305.01 34.5856C305.01 35.7329 304.871 36.2053 304.663 35.8004C304.524 35.328 304.524 34.3832 304.663 33.7758ZM194.959 33.101C195.167 32.4261 195.306 32.831 195.306 33.9108C195.306 35.058 195.167 35.5304 194.959 35.1255C194.82 34.6531 194.82 33.7083 194.959 33.101ZM195.653 30.0641C195.862 29.5242 196.07 29.7267 196.07 30.469C196.139 31.2113 195.931 31.6163 195.723 31.3463C195.514 31.1439 195.445 30.5365 195.653 30.0641ZM302.371 26.4873C302.371 26.1499 302.719 26.2849 303.066 26.8248C303.413 27.3647 303.76 28.1745 303.76 28.5119C303.76 28.9168 303.413 28.7144 303.066 28.1745C302.719 27.6346 302.371 26.8923 302.371 26.4873ZM196.834 26.3524C197.597 25.2051 197.597 25.2051 197.25 26.3524C197.042 27.0272 196.834 27.972 196.764 28.3769C196.764 28.9843 196.625 28.9843 196.417 28.3769C196.209 27.9045 196.417 27.0272 196.834 26.3524ZM299.316 21.4259C298.553 20.4811 298.9 20.6836 300.08 21.8983C301.33 23.1131 302.371 24.4628 302.371 24.9352C302.371 25.4076 301.955 25.2051 301.538 24.4628C301.122 23.7204 300.15 22.3707 299.316 21.4259ZM198.431 22.5057C200.236 19.8737 212.109 11.573 212.109 12.9227C212.109 13.1252 211.067 13.8 209.818 14.4074C206.138 16.297 199.542 21.4934 198.778 23.1805C198.361 24.0579 197.875 24.6652 197.667 24.4628C197.459 24.3278 197.875 23.4505 198.431 22.5057ZM292.651 16.2295C292.651 15.6896 295.289 17.3768 296.192 18.4565C296.817 19.1989 296.331 19.0639 294.873 18.0516C293.692 17.1743 292.651 16.3645 292.651 16.2295ZM215.581 10.9656C216.553 10.4257 217.594 10.0208 218.011 10.0208C218.358 10.0208 217.941 10.4257 216.969 10.9656C215.997 11.5055 214.886 11.9104 214.539 11.9104C214.122 11.9104 214.608 11.5055 215.581 10.9656ZM280.153 10.6282C279.598 10.2908 279.389 9.95332 279.806 9.95332C280.153 9.95332 280.986 10.2908 281.542 10.6282C282.097 10.9656 282.236 11.303 281.889 11.303C281.472 11.303 280.708 10.9656 280.153 10.6282ZM275.64 9.27846C274.737 8.94103 274.668 8.67109 275.293 8.67109C275.848 8.67109 276.959 8.94103 277.723 9.27846C278.625 9.61589 278.695 9.88584 278.07 9.88584C277.515 9.88584 276.404 9.61589 275.64 9.27846ZM272.029 8.19869C272.238 7.99623 272.863 7.92875 273.349 8.1312C273.904 8.33366 273.696 8.53612 272.932 8.53612C272.168 8.60361 271.752 8.40115 272.029 8.19869ZM268.835 7.45635C269.321 7.32137 270.155 7.32137 270.571 7.45635C271.057 7.6588 270.71 7.79378 269.738 7.79378C268.766 7.79378 268.419 7.6588 268.835 7.45635ZM226.204 7.52383C226.412 7.32137 227.037 7.25389 227.523 7.45635C228.078 7.6588 227.87 7.86126 227.106 7.86126C226.343 7.92875 225.926 7.72629 226.204 7.52383ZM264.669 6.78149C265.156 6.64652 266.128 6.64652 266.752 6.78149C267.447 6.98395 267.03 7.11892 265.919 7.11892C264.739 7.11892 264.253 6.98395 264.669 6.78149ZM228.981 6.84897C229.189 6.64652 229.814 6.57903 230.3 6.78149C230.856 6.98395 230.647 7.1864 229.884 7.1864C229.12 7.25389 228.703 7.05143 228.981 6.84897ZM259.809 6.10663C260.295 5.97166 261.267 5.97166 261.892 6.10663C262.586 6.30909 262.17 6.44406 261.059 6.44406C259.879 6.44406 259.393 6.30909 259.809 6.10663ZM232.036 6.10663C232.522 5.97166 233.494 5.97166 234.119 6.10663C234.813 6.30909 234.397 6.44406 233.286 6.44406C232.106 6.44406 231.62 6.30909 232.036 6.10663ZM254.949 5.43177C255.435 5.2968 256.407 5.2968 257.032 5.43177C257.726 5.63423 257.31 5.7692 256.199 5.7692C255.018 5.7692 254.532 5.63423 254.949 5.43177ZM237.244 5.43177C237.938 5.2968 239.049 5.2968 239.674 5.43177C240.368 5.63423 239.813 5.7692 238.493 5.7692C237.174 5.7692 236.619 5.63423 237.244 5.43177ZM244.881 4.75691C245.575 4.62194 246.686 4.62194 247.311 4.75691C248.006 4.95937 247.45 5.09434 246.131 5.09434C244.812 5.09434 244.256 4.95937 244.881 4.75691Z" stroke="black" stroke-width="2" mask="url(#path-1-inside-1_94_334)"/>
</svg>
