<svg width="356" height="325" viewBox="0 0 356 325" fill="none" xmlns="http://www.w3.org/2000/svg">
<mask id="mask0_302_63" style="mask-type:alpha" maskUnits="userSpaceOnUse" x="0" y="0" width="356" height="325">
<rect width="356" height="325" fill="#D9D9D9"/>
</mask>
<g mask="url(#mask0_302_63)">
<mask id="path-2-inside-1_302_63" fill="white">
<path d="M182.823 -56.4257C159.441 -56.1066 158.444 -56.0428 154.923 -54.639C149.277 -52.3418 145.225 -49.215 143.166 -45.4502C141.571 -42.5786 141.306 -41.3024 141.306 -36.9632C141.306 -32.5603 141.571 -31.284 143.298 -28.0297C145.69 -23.4353 148.812 -21.0104 156.053 -18.2027C169.272 -13.034 170.202 -12.3321 170.202 -6.90812C170.202 -1.29273 168.076 2.91882 163.293 7.19417C156.053 13.5753 145.358 17.8507 131.674 19.8288C123.104 21.105 115.664 21.0412 105.766 19.5098C91.4179 17.3402 82.7822 14.4687 75.0101 9.0447C69.2308 5.0884 68.0351 3.68455 66.1751 -1.54797C62.9865 -10.2263 65.0458 -13.7359 75.1429 -17.2456C82.2508 -19.6704 84.9079 -21.0742 88.2293 -24.0096C92.2815 -27.6468 94.0086 -32.2412 93.6765 -38.5585C93.2115 -46.3435 89.8236 -50.8741 81.8522 -54.4475L78.1986 -56.1066L18.6788 -56.2981C-29.6811 -56.4257 -40.9739 -56.2981 -41.5718 -55.5961C-42.7011 -54.3199 -41.3725 52.6278 -40.1768 56.8394C-37.9847 64.3691 -34.8625 68.7721 -29.6811 71.516C-26.4925 73.2389 -25.4961 73.4303 -20.4475 73.4303C-9.95186 73.3665 -5.23544 69.6016 -0.18688 57.286C2.93526 49.5649 4.1974 47.6505 6.58882 46.3743C8.71453 45.2895 13.0324 45.5448 17.2838 46.9486C26.6502 50.0754 35.2195 63.8586 38.2752 81.0877C42.0616 101.763 35.4852 129.393 24.2588 140.624C20.9374 143.942 19.7416 144.644 15.8224 145.792C10.176 147.451 8.38239 147.451 5.65882 145.856C3.33383 144.516 1.80597 141.964 -0.784736 135.519C-4.37187 126.33 -7.62686 122.501 -13.8047 120.268C-19.1854 118.29 -26.4925 118.8 -30.8104 121.353C-34.5968 123.586 -37.9182 127.798 -39.9111 132.902C-41.3725 136.604 -41.3725 136.795 -41.5718 190.843C-41.6382 220.643 -41.5718 245.721 -41.3725 246.55L-41.0404 247.954H17.2838C82.5165 247.954 79.1286 247.699 84.7751 252.485C88.5615 255.675 90.0893 259.376 89.6908 264.418C89.1593 271.883 85.3065 275.776 75.2094 279.286C67.0387 282.093 63.518 284.327 61.9237 287.709C59.9308 291.793 60.3294 296.068 63.053 302.513C65.378 307.809 71.3565 312.85 80.1915 316.934C87.6979 320.444 94.9386 322.358 106.63 323.953C115.864 325.23 117.524 325.294 126.027 324.655C143.298 323.252 157.116 318.21 166.15 310.043C170.069 306.469 171.132 305.065 172.261 301.875C174.387 295.94 174.586 292.112 172.992 288.602C171.265 284.901 168.01 282.795 159.573 279.924C148.812 276.223 144.959 271.947 144.959 263.843C144.959 258.419 146.819 254.91 151.203 251.974C157.979 247.508 155.056 247.699 217.034 247.508C247.724 247.38 273.498 247.188 274.362 246.997L275.823 246.678V190.907C275.823 130.159 275.69 132.647 279.61 127.223C281.868 124.096 286.983 121.608 291.301 121.608C300.202 121.608 304.122 124.862 308.639 136.157C312.226 144.899 314.485 147.834 318.67 148.983C322.589 150.004 324.449 149.876 330.294 148.026C335.077 146.494 336.007 145.92 339.528 142.283C348.429 133.158 353.478 120.076 355.604 100.423C357.663 81.1515 351.552 59.7109 340.657 48.4801C336.672 44.2685 335.941 43.8219 331.025 42.2266C324.714 40.2484 321.659 40.1846 317.872 41.8437C314.352 43.3752 312.027 46.7572 309.104 54.606C306.646 61.0509 303.856 65.071 300.402 67.0492C298.542 68.0702 296.947 68.3254 292.297 68.3254C286.983 68.3254 286.385 68.1978 283.728 66.4111C282.2 65.3263 280.075 63.0291 279.012 61.2423C275.225 54.7336 275.159 54.0955 275.159 -3.20707C275.159 -48.1302 275.026 -55.7238 274.229 -56.4257C273.232 -57.1914 240.018 -57.1914 182.823 -56.4257ZM271.04 -33.0069L270.841 -12.715L270.708 -32.6241L270.509 -52.597L255.031 -52.7884L239.62 -52.9161L255.43 -53.1075L271.173 -53.2351L271.04 -33.0069ZM-37.9182 -44.812C-38.0511 -43.2806 -38.1839 -44.493 -38.1839 -47.4921C-38.1839 -50.4912 -38.0511 -51.7037 -37.9182 -50.236C-37.7854 -48.7045 -37.7854 -46.2797 -37.9182 -44.812ZM75.7408 -52.278C75.3422 -51.8313 -27.8875 -51.8313 -28.2861 -52.278C-28.4854 -52.4694 -5.10258 -52.597 23.7273 -52.597C52.5573 -52.597 75.9401 -52.4694 75.7408 -52.278ZM164.423 -52.1503C163.958 -52.0227 163.028 -52.0227 162.43 -52.1503C161.766 -52.3418 162.164 -52.4694 163.227 -52.4694C164.356 -52.4694 164.821 -52.3418 164.423 -52.1503ZM171.996 -52.2141C171.796 -52.0227 171.198 -51.9589 170.733 -52.1503C170.202 -52.3418 170.401 -52.5332 171.132 -52.5332C171.863 -52.597 172.261 -52.4056 171.996 -52.2141ZM188.669 -52.1503C185.879 -52.0227 181.096 -52.0227 178.041 -52.1503C174.985 -52.2141 177.31 -52.3418 183.156 -52.3418C189.001 -52.3418 191.459 -52.2141 188.669 -52.1503ZM160.703 -51.576C160.503 -51.3846 159.906 -51.3208 159.441 -51.5122C158.909 -51.7037 159.108 -51.8951 159.839 -51.8951C160.57 -51.9589 160.968 -51.7675 160.703 -51.576ZM153.13 -48.7683C151.203 -47.6835 148.878 -45.7692 147.948 -44.493C147.018 -43.1529 146.288 -42.3234 146.288 -42.6425C146.288 -44.5568 153.595 -50.6827 155.853 -50.6827C156.252 -50.6827 155.056 -49.7893 153.13 -48.7683ZM84.9079 -48.0664C85.1072 -47.6835 84.5758 -47.875 83.5794 -48.4493C82.6494 -49.0874 81.8522 -49.6617 81.8522 -49.8531C81.8522 -50.2998 84.4429 -48.7683 84.9079 -48.0664ZM88.2293 -44.1739C89.7572 -41.3024 89.0265 -41.43 87.3658 -44.3654C86.5686 -45.7054 86.2365 -46.7264 86.5686 -46.4711C86.9008 -46.2797 87.6315 -45.2587 88.2293 -44.1739ZM146.088 -40.3452C145.889 -39.8348 145.69 -40.0262 145.69 -40.7281C145.623 -41.43 145.823 -41.8129 146.022 -41.5577C146.221 -41.3662 146.288 -40.7919 146.088 -40.3452ZM89.6908 -36.8994L89.4915 -33.7727L89.1593 -37.4099C88.9601 -39.3881 89.0929 -40.7919 89.3586 -40.5367C89.6908 -40.2176 89.8236 -38.6223 89.6908 -36.8994ZM145.424 -36.1975C145.225 -35.5594 145.092 -35.9423 145.092 -36.9632C145.092 -38.048 145.225 -38.4947 145.424 -38.1119C145.557 -37.6652 145.557 -36.7718 145.424 -36.1975ZM146.553 -31.8583C146.886 -30.4545 146.819 -30.1992 146.288 -30.9012C145.956 -31.4117 145.623 -32.4326 145.623 -33.0708C145.623 -34.7299 146.022 -34.2194 146.553 -31.8583ZM88.6279 -31.4117C88.0965 -30.9012 88.0301 -31.1564 88.2958 -32.2412C88.5615 -33.0708 88.8272 -33.3898 89.0265 -32.8793C89.1593 -32.4326 88.9601 -31.7307 88.6279 -31.4117ZM87.0336 -28.2211C86.0372 -26.7534 79.5272 -22.6057 78.1986 -22.6057C77.8665 -22.6057 79.2615 -23.5629 81.4536 -24.6477C83.5794 -25.7963 85.7715 -27.3277 86.3029 -28.1573C86.9008 -28.9868 87.4986 -29.6249 87.6315 -29.6249C87.8308 -29.6249 87.5651 -28.9868 87.0336 -28.2211ZM152.598 -24.2648C152.997 -24.0096 152.665 -24.0096 151.934 -24.3924C151.203 -24.7753 149.875 -25.8601 148.945 -26.8811L147.284 -28.6678L149.609 -26.7534C150.871 -25.7325 152.266 -24.5839 152.598 -24.2648ZM-37.2539 6.55606C-37.3204 12.8096 -37.3868 7.83229 -37.3868 -4.41948C-37.4532 -16.7351 -37.3204 -21.84 -37.2539 -15.7779C-37.1211 -9.77963 -37.1211 0.302553 -37.2539 6.55606ZM76.5379 -21.9676C76.0065 -21.6485 75.2758 -21.3295 74.8772 -21.3295C74.5451 -21.3295 74.6779 -21.6485 75.2094 -21.9676C75.7408 -22.2866 76.5379 -22.6057 76.8701 -22.6057C77.2687 -22.6057 77.0694 -22.2866 76.5379 -21.9676ZM71.2237 -20.0533C70.6922 -19.7342 69.9615 -19.4151 69.563 -19.4151C69.2308 -19.4151 69.3637 -19.7342 69.8951 -20.0533C70.4265 -20.3723 71.2237 -20.6914 71.5558 -20.6914C71.9544 -20.6914 71.7551 -20.3723 71.2237 -20.0533ZM169.006 -17.5646C170.667 -16.5436 172.261 -15.3312 172.593 -14.8207C172.859 -14.374 172.527 -14.4379 171.796 -15.076C171.132 -15.6503 169.206 -16.8627 167.545 -17.756C165.884 -18.6494 164.888 -19.4151 165.286 -19.4151C165.618 -19.4151 167.346 -18.5856 169.006 -17.5646ZM65.7101 -17.3094C64.6473 -16.5436 63.2523 -15.2036 62.5215 -14.3102C61.3923 -13.034 61.3258 -12.9702 61.8573 -14.055C62.588 -15.4588 66.308 -18.777 67.1051 -18.777C67.3708 -18.777 66.7065 -18.1389 65.7101 -17.3094ZM61.0601 -10.992C60.8608 -10.4816 60.6615 -10.673 60.6615 -11.3749C60.5951 -12.0768 60.7944 -12.4597 60.9937 -12.2045C61.193 -12.013 61.2594 -11.4387 61.0601 -10.992ZM174.653 -9.71582C174.453 -9.20533 174.254 -9.39676 174.254 -10.0987C174.188 -10.8006 174.387 -11.1835 174.586 -10.9282C174.786 -10.7368 174.852 -10.1625 174.653 -9.71582ZM60.3958 -7.48243C60.1965 -6.84431 60.0637 -7.22718 60.0637 -8.24816C60.0637 -9.33295 60.1965 -9.77963 60.3958 -9.39676C60.5287 -8.95009 60.5287 -8.05673 60.3958 -7.48243ZM174.653 -2.69658C174.453 -2.2499 174.321 -2.56896 174.321 -3.46231C174.321 -4.35567 174.453 -4.67473 174.653 -4.29186C174.786 -3.84518 174.786 -3.07945 174.653 -2.69658ZM61.0601 -2.69658C60.8608 -2.18609 60.6615 -2.37752 60.6615 -3.07945C60.5951 -3.78137 60.7944 -4.16424 60.9937 -3.90899C61.193 -3.71756 61.2594 -3.14326 61.0601 -2.69658ZM62.8537 1.38735C63.053 1.89784 62.9865 2.15308 62.588 1.96165C62.1894 1.77021 61.9237 1.32353 61.9237 0.940667C61.9237 0.0473083 62.3887 0.238742 62.8537 1.38735ZM63.9165 4.19504C64.3151 4.89697 64.448 5.47127 64.3151 5.47127C64.1158 5.47127 63.6508 4.89697 63.2523 4.19504C62.8537 3.49312 62.7208 2.91882 62.8537 2.91882C63.053 2.91882 63.518 3.49312 63.9165 4.19504ZM171.663 5.27984C171.265 5.91795 169.538 7.70466 167.811 9.29995L164.622 12.1715L168.076 8.53421C170.003 6.55606 171.531 4.57791 171.531 4.13123C171.531 3.68455 171.73 3.49312 171.929 3.68455C172.128 3.9398 171.996 4.64172 171.663 5.27984ZM70.6258 11.0229C71.4894 12.1076 71.4894 12.1076 70.2272 11.2143C69.4965 10.7038 68.7658 10.1933 68.633 10.1295C68.5001 10.0019 68.633 9.93806 69.0315 9.93806C69.4301 9.93806 70.1608 10.4486 70.6258 11.0229ZM270.974 11.98C270.775 12.4905 270.575 12.2991 270.575 11.5972C270.509 10.8952 270.708 10.5124 270.907 10.7676C271.107 10.959 271.173 11.5333 270.974 11.98ZM164.223 12.1076C164.223 12.2353 163.692 12.7458 163.094 13.1924C162.031 14.022 161.965 13.9582 162.828 12.9372C163.692 11.9162 164.223 11.5972 164.223 12.1076ZM77.2022 15.4258C77.2022 15.8725 73.3494 13.8305 72.8844 13.1286C72.6851 12.8096 73.5487 13.0648 74.8108 13.8305C76.1394 14.5963 77.2022 15.2982 77.2022 15.4258ZM270.974 14.5325C270.775 15.043 270.575 14.8515 270.575 14.1496C270.509 13.4477 270.708 13.0648 270.907 13.3201C271.107 13.5115 271.173 14.0858 270.974 14.5325ZM79.5272 16.8297C79.3279 17.0211 78.7965 16.8297 78.3315 16.383C77.7337 15.7449 77.8001 15.6811 78.7301 16.0639C79.3944 16.2554 79.7265 16.6382 79.5272 16.8297ZM158.245 16.0001C158.245 16.1278 157.581 16.5744 156.783 16.9573C155.322 17.6592 155.322 17.5954 156.518 16.7021C157.913 15.6173 158.245 15.4896 158.245 16.0001ZM270.974 17.0849C270.775 17.5954 270.575 17.404 270.575 16.7021C270.509 16.0001 270.708 15.6173 270.907 15.8725C271.107 16.0639 271.173 16.6382 270.974 17.0849ZM82.1844 18.1059C81.9851 18.2973 81.4536 18.1059 80.9886 17.6592C80.3908 17.0211 80.4572 16.9573 81.3872 17.3402C82.0515 17.5316 82.3836 17.9145 82.1844 18.1059ZM154.259 18.2335C153.728 18.5526 152.997 18.8716 152.598 18.8716C152.266 18.8716 152.399 18.5526 152.931 18.2335C153.462 17.9145 154.259 17.5954 154.591 17.5954C154.99 17.5954 154.791 17.9145 154.259 18.2335ZM87.1665 19.5098C87.6979 19.8288 87.8972 20.1479 87.4986 20.1479C87.1665 20.1479 86.3693 19.8288 85.8379 19.5098C85.3065 19.1907 85.1736 18.8716 85.5058 18.8716C85.9043 18.8716 86.6351 19.1907 87.1665 19.5098ZM149.609 20.1479C149.078 20.4669 148.148 20.7222 147.616 20.7222C146.952 20.7222 147.085 20.5307 147.948 20.1479C149.742 19.3821 150.805 19.3821 149.609 20.1479ZM91.4843 20.786C92.3479 21.105 92.4143 21.3603 91.8165 21.3603C91.285 21.3603 90.2222 21.105 89.4915 20.786C88.6279 20.4669 88.5615 20.2117 89.1593 20.2117C89.6908 20.2117 90.7536 20.4669 91.4843 20.786ZM270.974 21.5517C270.775 22.0622 270.575 21.8708 270.575 21.1688C270.509 20.4669 270.708 20.0841 270.907 20.3393C271.107 20.5307 271.173 21.105 270.974 21.5517ZM94.9386 21.807C94.7393 21.9984 94.1415 22.0622 93.6765 21.8708C93.145 21.6793 93.3443 21.4879 94.075 21.4879C94.8058 21.4241 95.2043 21.6155 94.9386 21.807ZM97.5957 22.4451C97.3965 22.6365 96.7986 22.7003 96.3336 22.5089C95.8022 22.3175 96.0015 22.126 96.7322 22.126C97.4629 22.0622 97.8615 22.2536 97.5957 22.4451ZM142.103 22.4451C141.904 22.6365 141.306 22.7003 140.841 22.5089C140.309 22.3175 140.509 22.126 141.239 22.126C141.97 22.0622 142.368 22.2536 142.103 22.4451ZM101.581 23.0832C101.382 23.2746 100.784 23.3384 100.319 23.147C99.7879 22.9556 99.9872 22.7641 100.718 22.7641C101.449 22.7003 101.847 22.8918 101.581 23.0832ZM139.446 23.0832C139.246 23.2746 138.649 23.3384 138.184 23.147C137.652 22.9556 137.851 22.7641 138.582 22.7641C139.313 22.7003 139.711 22.8918 139.446 23.0832ZM270.974 25.0613C270.775 25.6995 270.642 25.3166 270.642 24.2956C270.642 23.2108 270.775 22.7641 270.974 23.147C271.107 23.5937 271.107 24.487 270.974 25.0613ZM105.966 23.7851C105.501 23.9127 104.571 23.9127 103.973 23.7851C103.309 23.5937 103.707 23.4661 104.77 23.4661C105.899 23.4661 106.364 23.5937 105.966 23.7851ZM136.523 23.7851C136.058 23.9127 135.128 23.9127 134.53 23.7851C133.866 23.5937 134.264 23.4661 135.327 23.4661C136.456 23.4661 136.921 23.5937 136.523 23.7851ZM110.616 24.4232C110.151 24.5508 109.354 24.5508 108.955 24.4232C108.49 24.2318 108.822 24.1042 109.752 24.1042C110.682 24.1042 111.014 24.2318 110.616 24.4232ZM132.537 24.4232C132.072 24.5508 131.142 24.5508 130.544 24.4232C129.88 24.2318 130.279 24.1042 131.341 24.1042C132.471 24.1042 132.936 24.2318 132.537 24.4232ZM124.898 25.0613C123.171 25.189 120.181 25.189 118.255 25.0613C116.329 24.9337 117.724 24.8699 121.377 24.8699C125.031 24.8699 126.625 24.9337 124.898 25.0613ZM270.974 29.8472C270.841 30.6767 270.708 30.1662 270.708 28.7624C270.642 27.3585 270.775 26.7204 270.974 27.2947C271.107 27.9328 271.107 29.0815 270.974 29.8472ZM270.974 33.0378C270.775 33.5482 270.575 33.3568 270.575 32.6549C270.509 31.953 270.708 31.5701 270.907 31.8253C271.107 32.0168 271.173 32.5911 270.974 33.0378ZM-36.5897 48.6715C-36.6561 51.4154 -36.7889 49.182 -36.7889 43.7581C-36.7889 38.3341 -36.6561 36.1007 -36.5897 38.7808C-36.4568 41.5247 -36.4568 45.9914 -36.5897 48.6715ZM270.974 35.5902C270.775 36.1007 270.575 35.9093 270.575 35.2073C270.509 34.5054 270.708 34.1225 270.907 34.3778C271.107 34.5692 271.173 35.1435 270.974 35.5902ZM270.974 38.1427C270.775 38.6531 270.575 38.4617 270.575 37.7598C270.509 37.0579 270.708 36.675 270.907 36.9302C271.107 37.1217 271.173 37.696 270.974 38.1427ZM270.974 42.6094C270.841 43.439 270.708 42.9285 270.708 41.5247C270.642 40.1208 270.775 39.4827 270.974 40.057C271.107 40.6951 271.107 41.8437 270.974 42.6094ZM8.58167 41.5885C8.38239 41.7799 7.78453 41.8437 7.31953 41.6523C6.7881 41.4608 6.98739 41.2694 7.7181 41.2694C8.44881 41.2056 8.84738 41.397 8.58167 41.5885ZM13.9624 41.6523C13.2981 41.7799 12.1024 41.7799 11.3052 41.6523C10.4417 41.5247 10.9731 41.397 12.4345 41.397C13.8959 41.3332 14.5602 41.4608 13.9624 41.6523ZM5.12739 42.6094C4.39668 42.9923 2.8024 44.2047 1.54026 45.2895L-0.784736 47.2677L0.875974 45.2257C2.40383 43.3114 4.39668 41.9713 5.79168 41.9075C6.19025 41.9075 5.85811 42.2266 5.12739 42.6094ZM17.2174 42.2266C17.0181 42.418 16.4202 42.4818 15.9552 42.2904C15.4238 42.099 15.6231 41.9075 16.3538 41.9075C17.0845 41.8437 17.4831 42.0351 17.2174 42.2266ZM20.0738 43.1199C20.6052 43.439 20.8045 43.7581 20.4059 43.7581C20.0738 43.7581 19.2766 43.439 18.7452 43.1199C18.2138 42.8009 18.0809 42.4818 18.4131 42.4818C18.8116 42.4818 19.5424 42.8009 20.0738 43.1199ZM27.3809 48.0334L31.0345 51.7345L27.0488 48.2248C24.8566 46.3105 22.9302 44.6514 22.7974 44.5238C22.6645 44.46 22.7974 44.3962 23.1295 44.3962C23.4616 44.3962 25.3881 46.0553 27.3809 48.0334ZM270.974 45.8C270.775 46.3105 270.575 46.1191 270.575 45.4171C270.509 44.7152 270.708 44.3324 270.907 44.5876C271.107 44.779 271.173 45.3533 270.974 45.8ZM323.851 44.8428C323.386 44.9705 322.589 44.9705 322.19 44.8428C321.725 44.6514 322.057 44.5238 322.987 44.5238C323.917 44.5238 324.25 44.6514 323.851 44.8428ZM318.205 46.7572C317.607 47.3953 316.544 49.0544 315.813 50.4582C315.016 51.8621 314.418 52.7554 314.352 52.5002C314.285 51.1602 317.939 45.6724 318.869 45.6724C319.068 45.6724 318.736 46.1829 318.205 46.7572ZM330.959 46.3105C332.154 47.0762 331.092 47.0762 329.298 46.3105C328.434 45.9276 328.302 45.7362 328.966 45.7362C329.497 45.7362 330.427 45.9914 330.959 46.3105ZM270.974 49.3096C270.775 49.9477 270.642 49.5649 270.642 48.5439C270.642 47.4591 270.775 47.0124 270.974 47.3953C271.107 47.842 271.107 48.7353 270.974 49.3096ZM333.948 47.5867C334.147 47.9696 333.882 48.0334 333.35 47.842C332.154 47.3953 331.955 46.9486 332.885 46.9486C333.284 46.9486 333.749 47.2039 333.948 47.5867ZM271.638 53.4574C271.439 53.904 271.306 53.585 271.306 52.6916C271.306 51.7983 271.439 51.4792 271.638 51.8621C271.771 52.3088 271.771 53.0745 271.638 53.4574ZM339.262 52.6916C339.927 53.3936 340.192 53.9679 339.86 53.9679C339.528 53.9679 338.864 53.3936 338.399 52.6916C337.934 51.9897 337.668 51.4154 337.801 51.4154C337.934 51.4154 338.598 51.9897 339.262 52.6916ZM32.0973 53.1383C32.9609 54.1593 32.8945 54.2231 31.898 53.3936C30.7688 52.564 30.4366 52.0535 30.968 52.0535C31.1009 52.0535 31.6323 52.564 32.0973 53.1383ZM-3.64116 54.925C-3.84044 55.4993 -4.17259 55.8184 -4.30544 55.627C-4.50473 55.4355 -4.4383 55.0527 -4.17259 54.6698C-3.57473 53.6488 -3.17616 53.8402 -3.64116 54.925ZM-35.9254 56.0098C-36.1247 56.5203 -36.3239 56.3289 -36.3239 55.627C-36.3904 54.925 -36.1911 54.5422 -35.9918 54.7974C-35.7925 54.9888 -35.7261 55.5631 -35.9254 56.0098ZM272.302 56.6479C272.103 57.1584 271.904 56.967 271.904 56.2651C271.837 55.5631 272.037 55.1803 272.236 55.4355C272.435 55.627 272.502 56.2013 272.302 56.6479ZM313.09 56.967C312.292 58.2432 312.16 57.8603 312.757 56.2013C313.023 55.627 313.355 55.3079 313.488 55.4993C313.687 55.627 313.488 56.3289 313.09 56.967ZM34.688 57.1584C35.0866 57.8603 35.2195 58.4346 35.0866 58.4346C34.8873 58.4346 34.4223 57.8603 34.0238 57.1584C33.6252 56.4565 33.4923 55.8822 33.6252 55.8822C33.8245 55.8822 34.2895 56.4565 34.688 57.1584ZM343.248 58.4346C343.846 59.4556 344.112 60.349 343.979 60.349C343.779 60.349 343.182 59.4556 342.584 58.4346C341.986 57.3499 341.72 56.5203 341.853 56.5203C342.052 56.5203 342.65 57.3499 343.248 58.4346ZM-6.36472 61.4338C-7.09544 62.7738 -8.35758 64.4329 -9.22115 65.1349C-10.6161 66.2835 -10.6161 66.2835 -9.08829 64.4329C-8.15829 63.3481 -7.02901 61.4976 -6.49758 60.4128C-6.03258 59.328 -5.50115 58.4985 -5.3683 58.6899C-5.23544 58.8175 -5.63401 60.0299 -6.36472 61.4338ZM311.761 60.1576C310.964 61.4338 310.831 61.0509 311.429 59.3918C311.695 58.8175 312.027 58.4985 312.16 58.6899C312.359 58.8175 312.16 59.5194 311.761 60.1576ZM274.428 61.6252C275.159 63.1567 275.159 63.1567 274.229 62.0081C273.631 61.3062 273.166 60.4766 273.166 60.0937C273.166 59.328 273.498 59.6471 274.428 61.6252ZM-33.4675 61.37C-33.2682 61.8805 -33.3347 62.1357 -33.7332 61.9443C-34.1318 61.7528 -34.3975 61.3062 -34.3975 60.9233C-34.3975 60.0299 -33.9325 60.2214 -33.4675 61.37ZM346.835 65.773C346.835 66.092 346.304 65.3901 345.573 64.1777C344.842 62.9653 344.311 61.6252 344.311 61.3062C344.311 60.9233 344.842 61.689 345.573 62.9014C346.304 64.1139 346.835 65.3901 346.835 65.773ZM38.0095 63.8586C38.0095 64.1777 37.6773 64.05 37.3452 63.5396C37.013 63.0291 36.6809 62.2633 36.6809 61.9443C36.6809 61.5614 37.013 61.7528 37.3452 62.2633C37.6773 62.7738 38.0095 63.4758 38.0095 63.8586ZM276.155 64.1777C276.355 64.4967 276.288 64.8158 275.89 64.8158C275.557 64.8158 275.026 64.4967 274.827 64.1777C274.627 63.7948 274.694 63.5396 275.092 63.5396C275.425 63.5396 275.956 63.7948 276.155 64.1777ZM308.44 65.9644C307.709 66.9854 306.58 68.1978 305.915 68.7083C305.317 69.2188 305.782 68.3892 307.045 66.8578C309.569 63.7948 310.499 63.2205 308.44 65.9644ZM-30.0797 66.092C-29.4154 66.7939 -29.0168 67.3682 -29.2161 67.3682C-29.4154 67.3682 -30.0797 66.7939 -30.744 66.092C-31.4082 65.3901 -31.8068 64.8158 -31.6075 64.8158C-31.4082 64.8158 -30.744 65.3901 -30.0797 66.092ZM-12.0776 67.6873C-12.8083 68.1978 -13.7383 68.6445 -14.0704 68.6445C-14.469 68.5807 -14.0704 68.1978 -13.1404 67.6873C-11.0147 66.4749 -10.4833 66.5387 -12.0776 67.6873ZM-26.7582 68.5169C-26.9575 68.7083 -27.489 68.5169 -27.954 68.0702C-28.5518 67.4321 -28.4854 67.3682 -27.5554 67.7511C-26.8911 67.9425 -26.559 68.3254 -26.7582 68.5169ZM-15.3326 69.0273C-15.5318 69.2188 -16.1297 69.2826 -16.5947 69.0912C-17.1261 68.8997 -16.9268 68.7083 -16.1961 68.7083C-15.4654 68.6445 -15.0668 68.8359 -15.3326 69.0273ZM348.828 71.516C348.828 71.835 348.562 71.7074 348.23 71.1969C347.898 70.6864 347.632 69.7931 347.632 69.2826C347.632 68.2616 348.762 70.3036 348.828 71.516ZM-19.2518 69.7293C-19.9161 69.8569 -21.1118 69.8569 -21.909 69.7293C-22.7725 69.6016 -22.2411 69.474 -20.7797 69.474C-19.3183 69.4102 -18.654 69.5378 -19.2518 69.7293ZM281.47 69.9207C281.669 70.3036 281.403 70.3674 280.872 70.1759C279.676 69.7293 279.477 69.2826 280.407 69.2826C280.805 69.2826 281.27 69.5378 281.47 69.9207ZM284.127 71.7074C283.927 71.8989 283.396 71.7074 282.931 71.2607C282.333 70.6226 282.4 70.5588 283.33 70.9417C283.994 71.1331 284.326 71.516 284.127 71.7074ZM302.062 71.1969C301.863 71.516 301.265 71.835 300.867 71.835C300.402 71.835 300.468 71.5798 301.066 71.1969C302.328 70.4312 302.594 70.4312 302.062 71.1969ZM41.1316 73.2389C40.9323 73.7494 40.733 73.5579 40.733 72.856C40.6666 72.1541 40.8659 71.7712 41.0652 72.0265C41.2645 72.2179 41.3309 72.7922 41.1316 73.2389ZM298.741 72.4732C298.01 72.7922 296.549 72.9836 295.42 72.9836C293.493 72.9198 293.493 72.9198 295.752 72.4732C299.007 71.835 300.335 71.835 298.741 72.4732ZM289.308 72.9198C288.843 73.0475 288.046 73.0475 287.647 72.9198C287.182 72.7284 287.515 72.6008 288.445 72.6008C289.375 72.6008 289.707 72.7284 289.308 72.9198ZM349.359 73.877C349.16 74.3875 348.961 74.1961 348.961 73.4941C348.894 72.7922 349.094 72.4093 349.293 72.6646C349.492 72.856 349.559 73.4303 349.359 73.877ZM41.7959 75.7913C41.5966 76.3018 41.3973 76.1104 41.3973 75.4085C41.3309 74.7065 41.5302 74.3237 41.7294 74.5789C41.9287 74.7704 41.9952 75.3447 41.7959 75.7913ZM350.09 77.0038C349.891 77.5142 349.625 77.1952 349.359 76.3656C349.094 75.2808 349.16 75.0256 349.692 75.5361C350.024 75.8552 350.223 76.5571 350.09 77.0038ZM42.4602 79.62C42.2609 80.0667 42.128 79.7476 42.128 78.8543C42.128 77.9609 42.2609 77.6419 42.4602 78.0247C42.593 78.4714 42.593 79.2371 42.4602 79.62ZM350.688 80.2581C350.489 80.7686 350.289 80.5772 350.289 79.8753C350.223 79.1733 350.422 78.7905 350.622 79.0457C350.821 79.2371 350.887 79.8115 350.688 80.2581ZM43.1244 83.1296C42.9252 83.7678 42.7923 83.3849 42.7923 82.3639C42.7923 81.2791 42.9252 80.8324 43.1244 81.2153C43.2573 81.662 43.2573 82.5553 43.1244 83.1296ZM351.352 85.044C351.153 85.6821 351.02 85.2992 351.02 84.2782C351.02 83.1935 351.153 82.7468 351.352 83.1296C351.485 83.5763 351.485 84.4697 351.352 85.044ZM43.7887 98.4444C43.6559 100.869 43.5894 98.891 43.5894 94.169C43.5894 89.447 43.6559 87.4688 43.7887 89.8298C43.9216 92.2547 43.9216 96.0833 43.7887 98.4444ZM352.017 92.7013C351.817 93.3394 351.684 92.829 351.684 91.6165C351.684 90.4041 351.817 89.8936 352.017 90.4679C352.149 91.1061 352.149 92.127 352.017 92.7013ZM351.352 101.635C351.153 102.273 351.02 101.89 351.02 100.869C351.02 99.7844 351.153 99.3377 351.352 99.7206C351.485 100.167 351.485 101.061 351.352 101.635ZM43.1244 106.102C42.9252 106.74 42.7923 106.357 42.7923 105.336C42.7923 104.251 42.9252 103.805 43.1244 104.187C43.2573 104.634 43.2573 105.527 43.1244 106.102ZM350.688 106.102C350.489 106.74 350.356 106.357 350.356 105.336C350.356 104.251 350.489 103.805 350.688 104.187C350.821 104.634 350.821 105.527 350.688 106.102ZM42.4602 110.249C42.2609 110.696 42.128 110.377 42.128 109.484C42.128 108.59 42.2609 108.271 42.4602 108.654C42.593 109.101 42.593 109.867 42.4602 110.249ZM350.024 110.888C349.824 111.334 349.692 111.015 349.692 110.122C349.692 109.228 349.824 108.909 350.024 109.292C350.157 109.739 350.157 110.505 350.024 110.888ZM41.7959 114.078C41.5966 114.525 41.4637 114.206 41.4637 113.312C41.4637 112.419 41.5966 112.1 41.7959 112.483C41.9287 112.93 41.9287 113.695 41.7959 114.078ZM349.359 114.078C349.16 114.525 349.027 114.206 349.027 113.312C349.027 112.419 349.16 112.1 349.359 112.483C349.492 112.93 349.492 113.695 349.359 114.078ZM41.1316 117.269C40.9323 117.715 40.7995 117.396 40.7995 116.503C40.7995 115.61 40.9323 115.291 41.1316 115.673C41.2645 116.12 41.2645 116.886 41.1316 117.269ZM348.695 116.631C348.496 117.141 348.297 116.95 348.297 116.248C348.23 115.546 348.429 115.163 348.629 115.418C348.828 115.61 348.894 116.184 348.695 116.631ZM293.626 117.588C292.63 117.715 290.836 117.715 289.64 117.588C288.445 117.46 289.242 117.332 291.434 117.332C293.626 117.332 294.622 117.46 293.626 117.588ZM284.525 118.736C283.33 119.247 282.134 119.694 281.868 119.694C281.005 119.63 284.857 117.843 285.787 117.843C286.319 117.843 285.787 118.226 284.525 118.736ZM347.898 119.502C347.699 120.523 347.234 121.544 346.902 121.863C346.569 122.182 346.636 121.416 347.034 120.14C347.898 117.396 348.562 116.95 347.898 119.502ZM40.4673 119.821C40.268 120.332 40.0687 120.14 40.0687 119.438C40.0023 118.736 40.2016 118.353 40.4009 118.609C40.6002 118.8 40.6666 119.374 40.4673 119.821ZM303.723 120.714C303.723 120.842 303.125 120.714 302.395 120.332C301.664 119.949 301.066 119.502 301.066 119.311C301.066 119.183 301.664 119.311 302.395 119.694C303.125 120.076 303.723 120.523 303.723 120.714ZM281.137 119.885C281.137 120.013 279.875 121.225 278.347 122.565L275.491 125.117L278.148 122.374C280.54 119.885 281.137 119.374 281.137 119.885ZM306.048 122.246C306.712 122.948 307.111 123.522 306.912 123.522C306.712 123.522 306.048 122.948 305.384 122.246C304.72 121.544 304.321 120.97 304.52 120.97C304.72 120.97 305.384 121.544 306.048 122.246ZM-19.584 123.331C-20.4475 123.458 -21.909 123.458 -22.9054 123.331C-23.9683 123.203 -23.2375 123.076 -21.444 123.076C-19.584 123.076 -18.7868 123.203 -19.584 123.331ZM346.437 123.841C346.237 124.416 345.905 124.735 345.772 124.543C345.573 124.352 345.639 123.969 345.905 123.586C346.503 122.565 346.902 122.756 346.437 123.841ZM-25.7618 123.969C-26.2932 124.16 -27.3561 124.607 -28.0868 124.926C-29.4154 125.5 -29.4154 125.5 -28.1532 124.543C-27.4225 123.969 -26.3597 123.522 -25.8282 123.586C-24.8983 123.586 -24.8983 123.65 -25.7618 123.969ZM-13.1404 124.798C-11.7454 125.5 -9.95186 126.968 -9.15472 128.117L-7.69329 130.222L-9.68615 128.18C-10.749 127.032 -12.9411 125.5 -14.5354 124.798C-16.1297 124.096 -17.0597 123.522 -16.5947 123.522C-16.1297 123.522 -14.6018 124.096 -13.1404 124.798ZM308.44 125.245C309.303 126.266 309.237 126.33 308.24 125.5C307.576 125.054 307.045 124.543 307.045 124.416C307.045 123.905 307.576 124.224 308.44 125.245ZM-32.0725 128.372C-33.3347 129.967 -34.3975 131.562 -34.3975 131.945C-34.3975 132.328 -34.5968 132.456 -34.7961 132.264C-35.2611 131.818 -33.6004 129.074 -31.5411 126.84C-29.349 124.543 -29.6147 125.245 -32.0725 128.372ZM344.643 127.798C344.112 128.755 343.647 129.393 343.58 129.138C343.58 128.372 345.108 125.437 345.374 125.692C345.573 125.819 345.241 126.777 344.643 127.798ZM37.4116 128.436C36.6145 129.712 36.4816 129.329 37.0795 127.67C37.3452 127.096 37.6773 126.777 37.8102 126.968C38.0095 127.096 37.8102 127.798 37.4116 128.436ZM274.03 128.308C273.83 128.882 273.498 129.201 273.365 129.01C273.166 128.819 273.232 128.436 273.498 128.053C274.096 127.032 274.495 127.223 274.03 128.308ZM311.695 131.499C311.695 131.818 311.362 131.69 311.03 131.18C310.698 130.669 310.366 129.903 310.366 129.584C310.366 129.201 310.698 129.393 311.03 129.903C311.362 130.414 311.695 131.116 311.695 131.499ZM35.3523 133.03C33.4923 136.604 33.0273 136.348 34.8209 132.775C35.618 131.243 36.3487 130.031 36.548 130.159C36.6809 130.286 36.1495 131.562 35.3523 133.03ZM272.568 131.881C272.236 132.711 271.904 133.094 271.904 132.647C271.837 131.69 272.568 129.776 272.9 130.095C273.1 130.222 272.9 131.052 272.568 131.881ZM342.916 131.18C342.517 131.881 342.052 132.456 341.853 132.456C341.72 132.456 341.853 131.881 342.252 131.18C342.65 130.478 343.115 129.903 343.314 129.903C343.447 129.903 343.314 130.478 342.916 131.18ZM313.023 134.689C313.023 135.008 312.691 134.881 312.359 134.37C312.027 133.86 311.695 133.094 311.695 132.775C311.695 132.392 312.027 132.583 312.359 133.094C312.691 133.604 313.023 134.306 313.023 134.689ZM-35.6597 135.072C-35.9918 135.902 -36.3239 136.284 -36.3239 135.838C-36.3904 134.881 -35.6597 132.966 -35.3275 133.285C-35.1282 133.413 -35.3275 134.242 -35.6597 135.072ZM-5.16901 135.327C-5.16901 135.646 -5.50115 135.519 -5.8333 135.008C-6.16544 134.498 -6.49758 133.732 -6.49758 133.413C-6.49758 133.03 -6.16544 133.222 -5.8333 133.732C-5.50115 134.242 -5.16901 134.944 -5.16901 135.327ZM271.638 207.562C271.572 221.217 271.505 210.05 271.505 182.867C271.505 155.683 271.572 144.516 271.638 158.108C271.771 171.764 271.771 193.97 271.638 207.562ZM32.4295 138.071C31.898 139.028 30.7688 140.368 29.9716 141.07L28.3773 142.347L29.7723 140.751C30.5695 139.858 31.5659 138.518 31.9645 137.688C32.363 136.923 32.8945 136.284 33.0938 136.284C33.2266 136.284 32.9609 137.05 32.4295 138.071ZM339.594 136.476C339.594 136.604 338.93 137.242 338.133 137.944L336.605 139.156L337.867 137.688C339.063 136.348 339.594 135.965 339.594 136.476ZM-36.5897 138.326C-36.7889 138.837 -36.9882 138.645 -36.9882 137.944C-37.0547 137.242 -36.8554 136.859 -36.6561 137.114C-36.4568 137.305 -36.3904 137.88 -36.5897 138.326ZM315.282 139.922C315.88 141.07 316.212 142.027 316.079 142.027C315.68 142.027 313.687 138.518 313.687 137.816C313.687 137.114 314.02 137.624 315.282 139.922ZM-2.64473 141.517C-1.11688 144.835 -1.24974 145.665 -2.71116 142.793C-3.77401 140.943 -4.9033 137.688 -4.37187 138.199C-4.17259 138.39 -3.37544 139.858 -2.64473 141.517ZM-37.2539 213.305C-37.3204 226.896 -37.3868 215.985 -37.3868 188.929C-37.3868 161.873 -37.3204 150.77 -37.2539 164.17C-37.1211 177.57 -37.1211 199.649 -37.2539 213.305ZM334.944 141.006C334.944 141.134 334.413 141.645 333.815 142.091C332.752 142.921 332.686 142.857 333.549 141.836C334.413 140.815 334.944 140.496 334.944 141.006ZM28.7095 142.857C28.7095 142.985 27.4473 144.197 25.9195 145.537L23.0631 148.09L25.7202 145.346C28.1116 142.857 28.7095 142.347 28.7095 142.857ZM320.264 145.027C320.397 145.154 320.264 145.218 319.865 145.218C319.467 145.218 318.47 144.644 317.607 143.878L316.012 142.602L318.005 143.687C319.135 144.325 320.131 144.899 320.264 145.027ZM330.294 143.942C329.763 144.261 328.833 144.516 328.302 144.516C327.637 144.516 327.77 144.325 328.634 143.942C330.427 143.176 331.49 143.176 330.294 143.942ZM326.774 144.963C326.574 145.154 325.977 145.218 325.512 145.027C324.98 144.835 325.179 144.644 325.91 144.644C326.641 144.58 327.039 144.771 326.774 144.963ZM-0.519022 145.856C-0.519022 146.175 -0.651879 146.494 -0.784736 146.494C-0.984021 146.494 -1.31616 146.175 -1.51545 145.856C-1.71473 145.473 -1.58188 145.218 -1.24974 145.218C-0.851165 145.218 -0.519022 145.473 -0.519022 145.856ZM322.788 145.601C322.589 145.792 321.991 145.856 321.526 145.665C320.995 145.473 321.194 145.282 321.925 145.282C322.655 145.218 323.054 145.409 322.788 145.601ZM1.54026 148.217C2.40383 149.238 2.3374 149.302 1.34097 148.472C0.676689 148.026 0.145262 147.515 0.145262 147.388C0.145262 146.877 0.676689 147.196 1.54026 148.217ZM22.0666 148.409C21.5352 148.728 20.8045 149.047 20.4059 149.047C20.0738 149.047 20.2066 148.728 20.7381 148.409C21.2695 148.09 22.0666 147.77 22.3988 147.77C22.7974 147.77 22.5981 148.09 22.0666 148.409ZM18.7452 149.685C18.2138 150.004 17.2838 150.259 16.7524 150.259C16.0881 150.259 16.2209 150.068 17.0845 149.685C18.8781 148.919 19.9409 148.919 18.7452 149.685ZM12.0359 151.344C12.6338 151.854 7.05382 151.472 5.79168 150.961C4.99454 150.642 5.85811 150.578 8.11667 150.77C10.1095 150.961 11.9031 151.216 12.0359 151.344ZM15.2245 150.706C15.0252 150.897 14.4274 150.961 13.9624 150.77C13.4309 150.578 13.6302 150.387 14.3609 150.387C15.0917 150.323 15.4902 150.514 15.2245 150.706ZM252.108 243.296C241.081 243.424 222.88 243.424 211.587 243.296C200.361 243.232 209.395 243.168 231.648 243.168C253.968 243.168 263.135 243.232 252.108 243.296ZM39.2052 243.934C24.9895 244.062 1.8724 244.062 -12.2769 243.934C-26.4925 243.87 -14.8676 243.806 13.4309 243.806C41.7294 243.806 53.3544 243.87 39.2052 243.934ZM68.1015 243.934C67.6365 244.062 66.7065 244.062 66.1087 243.934C65.4444 243.743 65.843 243.615 66.9058 243.615C68.0351 243.615 68.5001 243.743 68.1015 243.934ZM77.0029 243.87C76.8037 244.062 76.2058 244.126 75.7408 243.934C75.2094 243.743 75.4087 243.551 76.1394 243.551C76.8701 243.487 77.2687 243.679 77.0029 243.87ZM162.43 243.934C161.965 244.062 161.168 244.062 160.769 243.934C160.304 243.743 160.636 243.615 161.566 243.615C162.496 243.615 162.828 243.743 162.43 243.934ZM158.71 244.508C158.511 244.7 157.913 244.764 157.448 244.572C156.916 244.381 157.116 244.189 157.846 244.189C158.577 244.126 158.976 244.317 158.71 244.508ZM155.588 245.402C155.056 245.721 154.326 246.04 153.927 246.04C153.595 246.04 153.728 245.721 154.259 245.402C154.791 245.083 155.588 244.764 155.92 244.764C156.318 244.764 156.119 245.083 155.588 245.402ZM152.864 246.231C152.731 246.359 151.735 246.933 150.606 247.571L148.613 248.656L150.207 247.38C151.071 246.614 152.067 246.04 152.466 246.04C152.864 246.04 152.997 246.104 152.864 246.231ZM92.2815 253.889C92.8129 254.91 93.0786 255.867 92.9458 256.058C92.7465 256.186 92.4143 255.739 92.1486 254.91C91.8829 254.144 90.4215 252.166 88.9601 250.57L86.2365 247.635L88.7608 249.869C90.1558 251.081 91.6836 252.932 92.2815 253.889ZM144.959 252.038C144.959 252.166 144.428 252.676 143.83 253.123C142.767 253.952 142.701 253.889 143.564 252.868C144.428 251.847 144.959 251.528 144.959 252.038ZM142.501 255.293C142.302 255.867 141.97 256.186 141.837 255.994C141.638 255.803 141.704 255.42 141.97 255.037C142.568 254.016 142.966 254.208 142.501 255.293ZM94.2743 264.992C94.1415 266.332 94.0086 265.375 94.0086 262.95C94.0086 260.461 94.1415 259.44 94.2743 260.525C94.4072 261.674 94.4072 263.716 94.2743 264.992ZM140.774 261.163C140.575 261.801 140.442 261.418 140.442 260.397C140.442 259.313 140.575 258.866 140.774 259.249C140.907 259.696 140.907 260.589 140.774 261.163ZM140.774 267.544C140.575 268.182 140.442 267.8 140.442 266.779C140.442 265.694 140.575 265.247 140.774 265.63C140.907 266.077 140.907 266.97 140.774 267.544ZM141.439 270.416C141.239 270.926 141.04 270.735 141.04 270.033C140.974 269.331 141.173 268.948 141.372 269.203C141.571 269.395 141.638 269.969 141.439 270.416ZM142.9 273.479C143.631 275.01 143.631 275.01 142.701 273.862C142.103 273.16 141.638 272.33 141.638 271.947C141.638 271.182 141.97 271.501 142.9 273.479ZM90.4879 275.585C90.4879 275.712 89.8236 276.35 89.0265 277.052L87.4986 278.265L88.7608 276.797C89.9565 275.457 90.4879 275.074 90.4879 275.585ZM149.609 280.051C150.473 280.689 151.004 281.136 150.738 281.136C149.742 281.136 145.756 278.265 144.959 276.988C144.295 276.031 144.561 276.095 146.022 277.371C147.085 278.265 148.679 279.477 149.609 280.051ZM87.1665 278.201C87.1665 278.328 86.6351 278.839 86.0372 279.286C84.9743 280.115 84.9079 280.051 85.7715 279.03C86.6351 278.009 87.1665 277.69 87.1665 278.201ZM81.1879 281.774C80.6565 282.093 79.9258 282.412 79.5272 282.412C79.1951 282.412 79.3279 282.093 79.8594 281.774C80.3908 281.455 81.1879 281.136 81.5201 281.136C81.9186 281.136 81.7194 281.455 81.1879 281.774ZM153.263 282.285C153.063 282.476 152.532 282.285 152.067 281.838C151.469 281.2 151.536 281.136 152.466 281.519C153.13 281.71 153.462 282.093 153.263 282.285ZM77.8665 283.05C77.3351 283.37 76.6044 283.689 76.2058 283.689C75.8737 283.689 76.0065 283.37 76.5379 283.05C77.0694 282.731 77.8665 282.412 78.1986 282.412C78.5972 282.412 78.3979 282.731 77.8665 283.05ZM158.245 283.689C158.776 284.008 158.976 284.327 158.577 284.327C158.245 284.327 157.448 284.008 156.916 283.689C156.385 283.37 156.252 283.05 156.584 283.05C156.983 283.05 157.713 283.37 158.245 283.689ZM73.1501 284.582C72.4858 285.156 68.5665 286.879 68.5665 286.624C68.5665 286.177 72.0208 284.39 72.8179 284.327C73.1501 284.327 73.2829 284.454 73.1501 284.582ZM163.559 285.603C164.091 285.922 164.29 286.241 163.891 286.241C163.559 286.241 162.762 285.922 162.231 285.603C161.699 285.284 161.566 284.965 161.898 284.965C162.297 284.965 163.028 285.284 163.559 285.603ZM168.276 288.538C168.873 289.24 168.408 289.113 167.08 288.155C165.884 287.326 164.888 286.56 164.888 286.432C164.888 285.922 167.412 287.517 168.276 288.538ZM67.9022 287.134C67.9022 287.262 67.3708 287.772 66.773 288.219C65.7101 289.049 65.6437 288.985 66.5072 287.964C67.3708 286.943 67.9022 286.624 67.9022 287.134ZM65.0458 293.707C64.8465 294.345 64.7137 293.962 64.7137 292.941C64.7137 291.856 64.8465 291.41 65.0458 291.793C65.1787 292.239 65.1787 293.133 65.0458 293.707ZM170.003 294.345C169.803 294.983 169.671 294.6 169.671 293.579C169.671 292.495 169.803 292.048 170.003 292.431C170.136 292.877 170.136 293.771 170.003 294.345ZM169.338 297.217C169.139 297.727 168.94 297.536 168.94 296.834C168.873 296.132 169.073 295.749 169.272 296.004C169.471 296.196 169.538 296.77 169.338 297.217ZM67.238 300.599C67.238 300.918 66.9058 300.79 66.5737 300.279C66.2415 299.769 65.9094 299.003 65.9094 298.684C65.9094 298.301 66.2415 298.493 66.5737 299.003C66.9058 299.514 67.238 300.216 67.238 300.599ZM168.209 300.726C167.478 301.811 167.478 301.811 167.811 300.726C168.01 300.088 168.209 299.195 168.276 298.812C168.276 298.238 168.408 298.238 168.608 298.812C168.807 299.259 168.608 300.088 168.209 300.726ZM70.1608 305.384C70.8915 306.278 70.5594 306.086 69.4301 304.938C68.2344 303.789 67.238 302.513 67.238 302.066C67.238 301.62 67.6365 301.811 68.0351 302.513C68.4337 303.215 69.3637 304.491 70.1608 305.384ZM166.681 304.363C164.954 306.852 153.595 314.701 153.595 313.425C153.595 313.233 154.591 312.595 155.787 312.021C159.308 310.234 165.618 305.321 166.349 303.725C166.748 302.896 167.213 302.321 167.412 302.513C167.611 302.641 167.213 303.47 166.681 304.363ZM76.5379 310.298C76.5379 310.808 74.0137 309.213 73.1501 308.192C72.5522 307.49 73.0172 307.618 74.4122 308.575C75.5415 309.405 76.5379 310.17 76.5379 310.298ZM150.273 315.275C149.343 315.786 148.347 316.169 147.948 316.169C147.616 316.169 148.015 315.786 148.945 315.275C149.875 314.765 150.938 314.382 151.27 314.382C151.668 314.382 151.203 314.765 150.273 315.275ZM88.4951 315.594C89.0265 315.913 89.2258 316.232 88.8272 316.232C88.4951 316.232 87.6979 315.913 87.1665 315.594C86.6351 315.275 86.5022 314.956 86.8343 314.956C87.2329 314.956 87.9636 315.275 88.4951 315.594ZM92.8129 316.87C93.6765 317.189 93.7429 317.445 93.145 317.445C92.6136 317.445 91.5508 317.189 90.82 316.87C89.9565 316.551 89.8901 316.296 90.4879 316.296C91.0193 316.296 92.0822 316.551 92.8129 316.87ZM96.2672 317.891C96.0679 318.083 95.47 318.147 95.005 317.955C94.4736 317.764 94.6729 317.572 95.4036 317.572C96.1343 317.509 96.5329 317.7 96.2672 317.891ZM99.3229 318.593C98.8579 318.721 98.0607 318.721 97.6622 318.593C97.1972 318.402 97.5293 318.274 98.4593 318.274C99.3893 318.274 99.7215 318.402 99.3229 318.593ZM140.11 318.53C139.911 318.721 139.313 318.785 138.848 318.593C138.316 318.402 138.516 318.21 139.246 318.21C139.977 318.147 140.376 318.338 140.11 318.53ZM103.309 319.231C102.844 319.359 101.914 319.359 101.316 319.231C100.651 319.04 101.05 318.912 102.113 318.912C103.242 318.912 103.707 319.04 103.309 319.231ZM137.453 319.168C137.254 319.359 136.656 319.423 136.191 319.231C135.659 319.04 135.859 318.849 136.589 318.849C137.32 318.785 137.719 318.976 137.453 319.168ZM107.959 319.87C107.494 319.997 106.564 319.997 105.966 319.87C105.301 319.678 105.7 319.551 106.763 319.551C107.892 319.551 108.357 319.678 107.959 319.87ZM134.53 319.87C134.065 319.997 133.135 319.997 132.537 319.87C131.873 319.678 132.271 319.551 133.334 319.551C134.464 319.551 134.929 319.678 134.53 319.87ZM112.609 320.508C112.144 320.635 111.214 320.635 110.616 320.508C109.951 320.316 110.35 320.189 111.413 320.189C112.542 320.189 113.007 320.316 112.609 320.508ZM129.548 320.508C128.884 320.635 127.821 320.635 127.223 320.508C126.559 320.316 127.09 320.189 128.352 320.189C129.614 320.189 130.146 320.316 129.548 320.508ZM122.241 321.146C121.576 321.273 120.514 321.273 119.916 321.146C119.251 320.954 119.783 320.827 121.045 320.827C122.307 320.827 122.839 320.954 122.241 321.146Z"/>
</mask>
<path d="M182.823 -56.4257C159.441 -56.1066 158.444 -56.0428 154.923 -54.639C149.277 -52.3418 145.225 -49.215 143.166 -45.4502C141.571 -42.5786 141.306 -41.3024 141.306 -36.9632C141.306 -32.5603 141.571 -31.284 143.298 -28.0297C145.69 -23.4353 148.812 -21.0104 156.053 -18.2027C169.272 -13.034 170.202 -12.3321 170.202 -6.90812C170.202 -1.29273 168.076 2.91882 163.293 7.19417C156.053 13.5753 145.358 17.8507 131.674 19.8288C123.104 21.105 115.664 21.0412 105.766 19.5098C91.4179 17.3402 82.7822 14.4687 75.0101 9.0447C69.2308 5.0884 68.0351 3.68455 66.1751 -1.54797C62.9865 -10.2263 65.0458 -13.7359 75.1429 -17.2456C82.2508 -19.6704 84.9079 -21.0742 88.2293 -24.0096C92.2815 -27.6468 94.0086 -32.2412 93.6765 -38.5585C93.2115 -46.3435 89.8236 -50.8741 81.8522 -54.4475L78.1986 -56.1066L18.6788 -56.2981C-29.6811 -56.4257 -40.9739 -56.2981 -41.5718 -55.5961C-42.7011 -54.3199 -41.3725 52.6278 -40.1768 56.8394C-37.9847 64.3691 -34.8625 68.7721 -29.6811 71.516C-26.4925 73.2389 -25.4961 73.4303 -20.4475 73.4303C-9.95186 73.3665 -5.23544 69.6016 -0.18688 57.286C2.93526 49.5649 4.1974 47.6505 6.58882 46.3743C8.71453 45.2895 13.0324 45.5448 17.2838 46.9486C26.6502 50.0754 35.2195 63.8586 38.2752 81.0877C42.0616 101.763 35.4852 129.393 24.2588 140.624C20.9374 143.942 19.7416 144.644 15.8224 145.792C10.176 147.451 8.38239 147.451 5.65882 145.856C3.33383 144.516 1.80597 141.964 -0.784736 135.519C-4.37187 126.33 -7.62686 122.501 -13.8047 120.268C-19.1854 118.29 -26.4925 118.8 -30.8104 121.353C-34.5968 123.586 -37.9182 127.798 -39.9111 132.902C-41.3725 136.604 -41.3725 136.795 -41.5718 190.843C-41.6382 220.643 -41.5718 245.721 -41.3725 246.55L-41.0404 247.954H17.2838C82.5165 247.954 79.1286 247.699 84.7751 252.485C88.5615 255.675 90.0893 259.376 89.6908 264.418C89.1593 271.883 85.3065 275.776 75.2094 279.286C67.0387 282.093 63.518 284.327 61.9237 287.709C59.9308 291.793 60.3294 296.068 63.053 302.513C65.378 307.809 71.3565 312.85 80.1915 316.934C87.6979 320.444 94.9386 322.358 106.63 323.953C115.864 325.23 117.524 325.294 126.027 324.655C143.298 323.252 157.116 318.21 166.15 310.043C170.069 306.469 171.132 305.065 172.261 301.875C174.387 295.94 174.586 292.112 172.992 288.602C171.265 284.901 168.01 282.795 159.573 279.924C148.812 276.223 144.959 271.947 144.959 263.843C144.959 258.419 146.819 254.91 151.203 251.974C157.979 247.508 155.056 247.699 217.034 247.508C247.724 247.38 273.498 247.188 274.362 246.997L275.823 246.678V190.907C275.823 130.159 275.69 132.647 279.61 127.223C281.868 124.096 286.983 121.608 291.301 121.608C300.202 121.608 304.122 124.862 308.639 136.157C312.226 144.899 314.485 147.834 318.67 148.983C322.589 150.004 324.449 149.876 330.294 148.026C335.077 146.494 336.007 145.92 339.528 142.283C348.429 133.158 353.478 120.076 355.604 100.423C357.663 81.1515 351.552 59.7109 340.657 48.4801C336.672 44.2685 335.941 43.8219 331.025 42.2266C324.714 40.2484 321.659 40.1846 317.872 41.8437C314.352 43.3752 312.027 46.7572 309.104 54.606C306.646 61.0509 303.856 65.071 300.402 67.0492C298.542 68.0702 296.947 68.3254 292.297 68.3254C286.983 68.3254 286.385 68.1978 283.728 66.4111C282.2 65.3263 280.075 63.0291 279.012 61.2423C275.225 54.7336 275.159 54.0955 275.159 -3.20707C275.159 -48.1302 275.026 -55.7238 274.229 -56.4257C273.232 -57.1914 240.018 -57.1914 182.823 -56.4257ZM271.04 -33.0069L270.841 -12.715L270.708 -32.6241L270.509 -52.597L255.031 -52.7884L239.62 -52.9161L255.43 -53.1075L271.173 -53.2351L271.04 -33.0069ZM-37.9182 -44.812C-38.0511 -43.2806 -38.1839 -44.493 -38.1839 -47.4921C-38.1839 -50.4912 -38.0511 -51.7037 -37.9182 -50.236C-37.7854 -48.7045 -37.7854 -46.2797 -37.9182 -44.812ZM75.7408 -52.278C75.3422 -51.8313 -27.8875 -51.8313 -28.2861 -52.278C-28.4854 -52.4694 -5.10258 -52.597 23.7273 -52.597C52.5573 -52.597 75.9401 -52.4694 75.7408 -52.278ZM164.423 -52.1503C163.958 -52.0227 163.028 -52.0227 162.43 -52.1503C161.766 -52.3418 162.164 -52.4694 163.227 -52.4694C164.356 -52.4694 164.821 -52.3418 164.423 -52.1503ZM171.996 -52.2141C171.796 -52.0227 171.198 -51.9589 170.733 -52.1503C170.202 -52.3418 170.401 -52.5332 171.132 -52.5332C171.863 -52.597 172.261 -52.4056 171.996 -52.2141ZM188.669 -52.1503C185.879 -52.0227 181.096 -52.0227 178.041 -52.1503C174.985 -52.2141 177.31 -52.3418 183.156 -52.3418C189.001 -52.3418 191.459 -52.2141 188.669 -52.1503ZM160.703 -51.576C160.503 -51.3846 159.906 -51.3208 159.441 -51.5122C158.909 -51.7037 159.108 -51.8951 159.839 -51.8951C160.57 -51.9589 160.968 -51.7675 160.703 -51.576ZM153.13 -48.7683C151.203 -47.6835 148.878 -45.7692 147.948 -44.493C147.018 -43.1529 146.288 -42.3234 146.288 -42.6425C146.288 -44.5568 153.595 -50.6827 155.853 -50.6827C156.252 -50.6827 155.056 -49.7893 153.13 -48.7683ZM84.9079 -48.0664C85.1072 -47.6835 84.5758 -47.875 83.5794 -48.4493C82.6494 -49.0874 81.8522 -49.6617 81.8522 -49.8531C81.8522 -50.2998 84.4429 -48.7683 84.9079 -48.0664ZM88.2293 -44.1739C89.7572 -41.3024 89.0265 -41.43 87.3658 -44.3654C86.5686 -45.7054 86.2365 -46.7264 86.5686 -46.4711C86.9008 -46.2797 87.6315 -45.2587 88.2293 -44.1739ZM146.088 -40.3452C145.889 -39.8348 145.69 -40.0262 145.69 -40.7281C145.623 -41.43 145.823 -41.8129 146.022 -41.5577C146.221 -41.3662 146.288 -40.7919 146.088 -40.3452ZM89.6908 -36.8994L89.4915 -33.7727L89.1593 -37.4099C88.9601 -39.3881 89.0929 -40.7919 89.3586 -40.5367C89.6908 -40.2176 89.8236 -38.6223 89.6908 -36.8994ZM145.424 -36.1975C145.225 -35.5594 145.092 -35.9423 145.092 -36.9632C145.092 -38.048 145.225 -38.4947 145.424 -38.1119C145.557 -37.6652 145.557 -36.7718 145.424 -36.1975ZM146.553 -31.8583C146.886 -30.4545 146.819 -30.1992 146.288 -30.9012C145.956 -31.4117 145.623 -32.4326 145.623 -33.0708C145.623 -34.7299 146.022 -34.2194 146.553 -31.8583ZM88.6279 -31.4117C88.0965 -30.9012 88.0301 -31.1564 88.2958 -32.2412C88.5615 -33.0708 88.8272 -33.3898 89.0265 -32.8793C89.1593 -32.4326 88.9601 -31.7307 88.6279 -31.4117ZM87.0336 -28.2211C86.0372 -26.7534 79.5272 -22.6057 78.1986 -22.6057C77.8665 -22.6057 79.2615 -23.5629 81.4536 -24.6477C83.5794 -25.7963 85.7715 -27.3277 86.3029 -28.1573C86.9008 -28.9868 87.4986 -29.6249 87.6315 -29.6249C87.8308 -29.6249 87.5651 -28.9868 87.0336 -28.2211ZM152.598 -24.2648C152.997 -24.0096 152.665 -24.0096 151.934 -24.3924C151.203 -24.7753 149.875 -25.8601 148.945 -26.8811L147.284 -28.6678L149.609 -26.7534C150.871 -25.7325 152.266 -24.5839 152.598 -24.2648ZM-37.2539 6.55606C-37.3204 12.8096 -37.3868 7.83229 -37.3868 -4.41948C-37.4532 -16.7351 -37.3204 -21.84 -37.2539 -15.7779C-37.1211 -9.77963 -37.1211 0.302553 -37.2539 6.55606ZM76.5379 -21.9676C76.0065 -21.6485 75.2758 -21.3295 74.8772 -21.3295C74.5451 -21.3295 74.6779 -21.6485 75.2094 -21.9676C75.7408 -22.2866 76.5379 -22.6057 76.8701 -22.6057C77.2687 -22.6057 77.0694 -22.2866 76.5379 -21.9676ZM71.2237 -20.0533C70.6922 -19.7342 69.9615 -19.4151 69.563 -19.4151C69.2308 -19.4151 69.3637 -19.7342 69.8951 -20.0533C70.4265 -20.3723 71.2237 -20.6914 71.5558 -20.6914C71.9544 -20.6914 71.7551 -20.3723 71.2237 -20.0533ZM169.006 -17.5646C170.667 -16.5436 172.261 -15.3312 172.593 -14.8207C172.859 -14.374 172.527 -14.4379 171.796 -15.076C171.132 -15.6503 169.206 -16.8627 167.545 -17.756C165.884 -18.6494 164.888 -19.4151 165.286 -19.4151C165.618 -19.4151 167.346 -18.5856 169.006 -17.5646ZM65.7101 -17.3094C64.6473 -16.5436 63.2523 -15.2036 62.5215 -14.3102C61.3923 -13.034 61.3258 -12.9702 61.8573 -14.055C62.588 -15.4588 66.308 -18.777 67.1051 -18.777C67.3708 -18.777 66.7065 -18.1389 65.7101 -17.3094ZM61.0601 -10.992C60.8608 -10.4816 60.6615 -10.673 60.6615 -11.3749C60.5951 -12.0768 60.7944 -12.4597 60.9937 -12.2045C61.193 -12.013 61.2594 -11.4387 61.0601 -10.992ZM174.653 -9.71582C174.453 -9.20533 174.254 -9.39676 174.254 -10.0987C174.188 -10.8006 174.387 -11.1835 174.586 -10.9282C174.786 -10.7368 174.852 -10.1625 174.653 -9.71582ZM60.3958 -7.48243C60.1965 -6.84431 60.0637 -7.22718 60.0637 -8.24816C60.0637 -9.33295 60.1965 -9.77963 60.3958 -9.39676C60.5287 -8.95009 60.5287 -8.05673 60.3958 -7.48243ZM174.653 -2.69658C174.453 -2.2499 174.321 -2.56896 174.321 -3.46231C174.321 -4.35567 174.453 -4.67473 174.653 -4.29186C174.786 -3.84518 174.786 -3.07945 174.653 -2.69658ZM61.0601 -2.69658C60.8608 -2.18609 60.6615 -2.37752 60.6615 -3.07945C60.5951 -3.78137 60.7944 -4.16424 60.9937 -3.90899C61.193 -3.71756 61.2594 -3.14326 61.0601 -2.69658ZM62.8537 1.38735C63.053 1.89784 62.9865 2.15308 62.588 1.96165C62.1894 1.77021 61.9237 1.32353 61.9237 0.940667C61.9237 0.0473083 62.3887 0.238742 62.8537 1.38735ZM63.9165 4.19504C64.3151 4.89697 64.448 5.47127 64.3151 5.47127C64.1158 5.47127 63.6508 4.89697 63.2523 4.19504C62.8537 3.49312 62.7208 2.91882 62.8537 2.91882C63.053 2.91882 63.518 3.49312 63.9165 4.19504ZM171.663 5.27984C171.265 5.91795 169.538 7.70466 167.811 9.29995L164.622 12.1715L168.076 8.53421C170.003 6.55606 171.531 4.57791 171.531 4.13123C171.531 3.68455 171.73 3.49312 171.929 3.68455C172.128 3.9398 171.996 4.64172 171.663 5.27984ZM70.6258 11.0229C71.4894 12.1076 71.4894 12.1076 70.2272 11.2143C69.4965 10.7038 68.7658 10.1933 68.633 10.1295C68.5001 10.0019 68.633 9.93806 69.0315 9.93806C69.4301 9.93806 70.1608 10.4486 70.6258 11.0229ZM270.974 11.98C270.775 12.4905 270.575 12.2991 270.575 11.5972C270.509 10.8952 270.708 10.5124 270.907 10.7676C271.107 10.959 271.173 11.5333 270.974 11.98ZM164.223 12.1076C164.223 12.2353 163.692 12.7458 163.094 13.1924C162.031 14.022 161.965 13.9582 162.828 12.9372C163.692 11.9162 164.223 11.5972 164.223 12.1076ZM77.2022 15.4258C77.2022 15.8725 73.3494 13.8305 72.8844 13.1286C72.6851 12.8096 73.5487 13.0648 74.8108 13.8305C76.1394 14.5963 77.2022 15.2982 77.2022 15.4258ZM270.974 14.5325C270.775 15.043 270.575 14.8515 270.575 14.1496C270.509 13.4477 270.708 13.0648 270.907 13.3201C271.107 13.5115 271.173 14.0858 270.974 14.5325ZM79.5272 16.8297C79.3279 17.0211 78.7965 16.8297 78.3315 16.383C77.7337 15.7449 77.8001 15.6811 78.7301 16.0639C79.3944 16.2554 79.7265 16.6382 79.5272 16.8297ZM158.245 16.0001C158.245 16.1278 157.581 16.5744 156.783 16.9573C155.322 17.6592 155.322 17.5954 156.518 16.7021C157.913 15.6173 158.245 15.4896 158.245 16.0001ZM270.974 17.0849C270.775 17.5954 270.575 17.404 270.575 16.7021C270.509 16.0001 270.708 15.6173 270.907 15.8725C271.107 16.0639 271.173 16.6382 270.974 17.0849ZM82.1844 18.1059C81.9851 18.2973 81.4536 18.1059 80.9886 17.6592C80.3908 17.0211 80.4572 16.9573 81.3872 17.3402C82.0515 17.5316 82.3836 17.9145 82.1844 18.1059ZM154.259 18.2335C153.728 18.5526 152.997 18.8716 152.598 18.8716C152.266 18.8716 152.399 18.5526 152.931 18.2335C153.462 17.9145 154.259 17.5954 154.591 17.5954C154.99 17.5954 154.791 17.9145 154.259 18.2335ZM87.1665 19.5098C87.6979 19.8288 87.8972 20.1479 87.4986 20.1479C87.1665 20.1479 86.3693 19.8288 85.8379 19.5098C85.3065 19.1907 85.1736 18.8716 85.5058 18.8716C85.9043 18.8716 86.6351 19.1907 87.1665 19.5098ZM149.609 20.1479C149.078 20.4669 148.148 20.7222 147.616 20.7222C146.952 20.7222 147.085 20.5307 147.948 20.1479C149.742 19.3821 150.805 19.3821 149.609 20.1479ZM91.4843 20.786C92.3479 21.105 92.4143 21.3603 91.8165 21.3603C91.285 21.3603 90.2222 21.105 89.4915 20.786C88.6279 20.4669 88.5615 20.2117 89.1593 20.2117C89.6908 20.2117 90.7536 20.4669 91.4843 20.786ZM270.974 21.5517C270.775 22.0622 270.575 21.8708 270.575 21.1688C270.509 20.4669 270.708 20.0841 270.907 20.3393C271.107 20.5307 271.173 21.105 270.974 21.5517ZM94.9386 21.807C94.7393 21.9984 94.1415 22.0622 93.6765 21.8708C93.145 21.6793 93.3443 21.4879 94.075 21.4879C94.8058 21.4241 95.2043 21.6155 94.9386 21.807ZM97.5957 22.4451C97.3965 22.6365 96.7986 22.7003 96.3336 22.5089C95.8022 22.3175 96.0015 22.126 96.7322 22.126C97.4629 22.0622 97.8615 22.2536 97.5957 22.4451ZM142.103 22.4451C141.904 22.6365 141.306 22.7003 140.841 22.5089C140.309 22.3175 140.509 22.126 141.239 22.126C141.97 22.0622 142.368 22.2536 142.103 22.4451ZM101.581 23.0832C101.382 23.2746 100.784 23.3384 100.319 23.147C99.7879 22.9556 99.9872 22.7641 100.718 22.7641C101.449 22.7003 101.847 22.8918 101.581 23.0832ZM139.446 23.0832C139.246 23.2746 138.649 23.3384 138.184 23.147C137.652 22.9556 137.851 22.7641 138.582 22.7641C139.313 22.7003 139.711 22.8918 139.446 23.0832ZM270.974 25.0613C270.775 25.6995 270.642 25.3166 270.642 24.2956C270.642 23.2108 270.775 22.7641 270.974 23.147C271.107 23.5937 271.107 24.487 270.974 25.0613ZM105.966 23.7851C105.501 23.9127 104.571 23.9127 103.973 23.7851C103.309 23.5937 103.707 23.4661 104.77 23.4661C105.899 23.4661 106.364 23.5937 105.966 23.7851ZM136.523 23.7851C136.058 23.9127 135.128 23.9127 134.53 23.7851C133.866 23.5937 134.264 23.4661 135.327 23.4661C136.456 23.4661 136.921 23.5937 136.523 23.7851ZM110.616 24.4232C110.151 24.5508 109.354 24.5508 108.955 24.4232C108.49 24.2318 108.822 24.1042 109.752 24.1042C110.682 24.1042 111.014 24.2318 110.616 24.4232ZM132.537 24.4232C132.072 24.5508 131.142 24.5508 130.544 24.4232C129.88 24.2318 130.279 24.1042 131.341 24.1042C132.471 24.1042 132.936 24.2318 132.537 24.4232ZM124.898 25.0613C123.171 25.189 120.181 25.189 118.255 25.0613C116.329 24.9337 117.724 24.8699 121.377 24.8699C125.031 24.8699 126.625 24.9337 124.898 25.0613ZM270.974 29.8472C270.841 30.6767 270.708 30.1662 270.708 28.7624C270.642 27.3585 270.775 26.7204 270.974 27.2947C271.107 27.9328 271.107 29.0815 270.974 29.8472ZM270.974 33.0378C270.775 33.5482 270.575 33.3568 270.575 32.6549C270.509 31.953 270.708 31.5701 270.907 31.8253C271.107 32.0168 271.173 32.5911 270.974 33.0378ZM-36.5897 48.6715C-36.6561 51.4154 -36.7889 49.182 -36.7889 43.7581C-36.7889 38.3341 -36.6561 36.1007 -36.5897 38.7808C-36.4568 41.5247 -36.4568 45.9914 -36.5897 48.6715ZM270.974 35.5902C270.775 36.1007 270.575 35.9093 270.575 35.2073C270.509 34.5054 270.708 34.1225 270.907 34.3778C271.107 34.5692 271.173 35.1435 270.974 35.5902ZM270.974 38.1427C270.775 38.6531 270.575 38.4617 270.575 37.7598C270.509 37.0579 270.708 36.675 270.907 36.9302C271.107 37.1217 271.173 37.696 270.974 38.1427ZM270.974 42.6094C270.841 43.439 270.708 42.9285 270.708 41.5247C270.642 40.1208 270.775 39.4827 270.974 40.057C271.107 40.6951 271.107 41.8437 270.974 42.6094ZM8.58167 41.5885C8.38239 41.7799 7.78453 41.8437 7.31953 41.6523C6.7881 41.4608 6.98739 41.2694 7.7181 41.2694C8.44881 41.2056 8.84738 41.397 8.58167 41.5885ZM13.9624 41.6523C13.2981 41.7799 12.1024 41.7799 11.3052 41.6523C10.4417 41.5247 10.9731 41.397 12.4345 41.397C13.8959 41.3332 14.5602 41.4608 13.9624 41.6523ZM5.12739 42.6094C4.39668 42.9923 2.8024 44.2047 1.54026 45.2895L-0.784736 47.2677L0.875974 45.2257C2.40383 43.3114 4.39668 41.9713 5.79168 41.9075C6.19025 41.9075 5.85811 42.2266 5.12739 42.6094ZM17.2174 42.2266C17.0181 42.418 16.4202 42.4818 15.9552 42.2904C15.4238 42.099 15.6231 41.9075 16.3538 41.9075C17.0845 41.8437 17.4831 42.0351 17.2174 42.2266ZM20.0738 43.1199C20.6052 43.439 20.8045 43.7581 20.4059 43.7581C20.0738 43.7581 19.2766 43.439 18.7452 43.1199C18.2138 42.8009 18.0809 42.4818 18.4131 42.4818C18.8116 42.4818 19.5424 42.8009 20.0738 43.1199ZM27.3809 48.0334L31.0345 51.7345L27.0488 48.2248C24.8566 46.3105 22.9302 44.6514 22.7974 44.5238C22.6645 44.46 22.7974 44.3962 23.1295 44.3962C23.4616 44.3962 25.3881 46.0553 27.3809 48.0334ZM270.974 45.8C270.775 46.3105 270.575 46.1191 270.575 45.4171C270.509 44.7152 270.708 44.3324 270.907 44.5876C271.107 44.779 271.173 45.3533 270.974 45.8ZM323.851 44.8428C323.386 44.9705 322.589 44.9705 322.19 44.8428C321.725 44.6514 322.057 44.5238 322.987 44.5238C323.917 44.5238 324.25 44.6514 323.851 44.8428ZM318.205 46.7572C317.607 47.3953 316.544 49.0544 315.813 50.4582C315.016 51.8621 314.418 52.7554 314.352 52.5002C314.285 51.1602 317.939 45.6724 318.869 45.6724C319.068 45.6724 318.736 46.1829 318.205 46.7572ZM330.959 46.3105C332.154 47.0762 331.092 47.0762 329.298 46.3105C328.434 45.9276 328.302 45.7362 328.966 45.7362C329.497 45.7362 330.427 45.9914 330.959 46.3105ZM270.974 49.3096C270.775 49.9477 270.642 49.5649 270.642 48.5439C270.642 47.4591 270.775 47.0124 270.974 47.3953C271.107 47.842 271.107 48.7353 270.974 49.3096ZM333.948 47.5867C334.147 47.9696 333.882 48.0334 333.35 47.842C332.154 47.3953 331.955 46.9486 332.885 46.9486C333.284 46.9486 333.749 47.2039 333.948 47.5867ZM271.638 53.4574C271.439 53.904 271.306 53.585 271.306 52.6916C271.306 51.7983 271.439 51.4792 271.638 51.8621C271.771 52.3088 271.771 53.0745 271.638 53.4574ZM339.262 52.6916C339.927 53.3936 340.192 53.9679 339.86 53.9679C339.528 53.9679 338.864 53.3936 338.399 52.6916C337.934 51.9897 337.668 51.4154 337.801 51.4154C337.934 51.4154 338.598 51.9897 339.262 52.6916ZM32.0973 53.1383C32.9609 54.1593 32.8945 54.2231 31.898 53.3936C30.7688 52.564 30.4366 52.0535 30.968 52.0535C31.1009 52.0535 31.6323 52.564 32.0973 53.1383ZM-3.64116 54.925C-3.84044 55.4993 -4.17259 55.8184 -4.30544 55.627C-4.50473 55.4355 -4.4383 55.0527 -4.17259 54.6698C-3.57473 53.6488 -3.17616 53.8402 -3.64116 54.925ZM-35.9254 56.0098C-36.1247 56.5203 -36.3239 56.3289 -36.3239 55.627C-36.3904 54.925 -36.1911 54.5422 -35.9918 54.7974C-35.7925 54.9888 -35.7261 55.5631 -35.9254 56.0098ZM272.302 56.6479C272.103 57.1584 271.904 56.967 271.904 56.2651C271.837 55.5631 272.037 55.1803 272.236 55.4355C272.435 55.627 272.502 56.2013 272.302 56.6479ZM313.09 56.967C312.292 58.2432 312.16 57.8603 312.757 56.2013C313.023 55.627 313.355 55.3079 313.488 55.4993C313.687 55.627 313.488 56.3289 313.09 56.967ZM34.688 57.1584C35.0866 57.8603 35.2195 58.4346 35.0866 58.4346C34.8873 58.4346 34.4223 57.8603 34.0238 57.1584C33.6252 56.4565 33.4923 55.8822 33.6252 55.8822C33.8245 55.8822 34.2895 56.4565 34.688 57.1584ZM343.248 58.4346C343.846 59.4556 344.112 60.349 343.979 60.349C343.779 60.349 343.182 59.4556 342.584 58.4346C341.986 57.3499 341.72 56.5203 341.853 56.5203C342.052 56.5203 342.65 57.3499 343.248 58.4346ZM-6.36472 61.4338C-7.09544 62.7738 -8.35758 64.4329 -9.22115 65.1349C-10.6161 66.2835 -10.6161 66.2835 -9.08829 64.4329C-8.15829 63.3481 -7.02901 61.4976 -6.49758 60.4128C-6.03258 59.328 -5.50115 58.4985 -5.3683 58.6899C-5.23544 58.8175 -5.63401 60.0299 -6.36472 61.4338ZM311.761 60.1576C310.964 61.4338 310.831 61.0509 311.429 59.3918C311.695 58.8175 312.027 58.4985 312.16 58.6899C312.359 58.8175 312.16 59.5194 311.761 60.1576ZM274.428 61.6252C275.159 63.1567 275.159 63.1567 274.229 62.0081C273.631 61.3062 273.166 60.4766 273.166 60.0937C273.166 59.328 273.498 59.6471 274.428 61.6252ZM-33.4675 61.37C-33.2682 61.8805 -33.3347 62.1357 -33.7332 61.9443C-34.1318 61.7528 -34.3975 61.3062 -34.3975 60.9233C-34.3975 60.0299 -33.9325 60.2214 -33.4675 61.37ZM346.835 65.773C346.835 66.092 346.304 65.3901 345.573 64.1777C344.842 62.9653 344.311 61.6252 344.311 61.3062C344.311 60.9233 344.842 61.689 345.573 62.9014C346.304 64.1139 346.835 65.3901 346.835 65.773ZM38.0095 63.8586C38.0095 64.1777 37.6773 64.05 37.3452 63.5396C37.013 63.0291 36.6809 62.2633 36.6809 61.9443C36.6809 61.5614 37.013 61.7528 37.3452 62.2633C37.6773 62.7738 38.0095 63.4758 38.0095 63.8586ZM276.155 64.1777C276.355 64.4967 276.288 64.8158 275.89 64.8158C275.557 64.8158 275.026 64.4967 274.827 64.1777C274.627 63.7948 274.694 63.5396 275.092 63.5396C275.425 63.5396 275.956 63.7948 276.155 64.1777ZM308.44 65.9644C307.709 66.9854 306.58 68.1978 305.915 68.7083C305.317 69.2188 305.782 68.3892 307.045 66.8578C309.569 63.7948 310.499 63.2205 308.44 65.9644ZM-30.0797 66.092C-29.4154 66.7939 -29.0168 67.3682 -29.2161 67.3682C-29.4154 67.3682 -30.0797 66.7939 -30.744 66.092C-31.4082 65.3901 -31.8068 64.8158 -31.6075 64.8158C-31.4082 64.8158 -30.744 65.3901 -30.0797 66.092ZM-12.0776 67.6873C-12.8083 68.1978 -13.7383 68.6445 -14.0704 68.6445C-14.469 68.5807 -14.0704 68.1978 -13.1404 67.6873C-11.0147 66.4749 -10.4833 66.5387 -12.0776 67.6873ZM-26.7582 68.5169C-26.9575 68.7083 -27.489 68.5169 -27.954 68.0702C-28.5518 67.4321 -28.4854 67.3682 -27.5554 67.7511C-26.8911 67.9425 -26.559 68.3254 -26.7582 68.5169ZM-15.3326 69.0273C-15.5318 69.2188 -16.1297 69.2826 -16.5947 69.0912C-17.1261 68.8997 -16.9268 68.7083 -16.1961 68.7083C-15.4654 68.6445 -15.0668 68.8359 -15.3326 69.0273ZM348.828 71.516C348.828 71.835 348.562 71.7074 348.23 71.1969C347.898 70.6864 347.632 69.7931 347.632 69.2826C347.632 68.2616 348.762 70.3036 348.828 71.516ZM-19.2518 69.7293C-19.9161 69.8569 -21.1118 69.8569 -21.909 69.7293C-22.7725 69.6016 -22.2411 69.474 -20.7797 69.474C-19.3183 69.4102 -18.654 69.5378 -19.2518 69.7293ZM281.47 69.9207C281.669 70.3036 281.403 70.3674 280.872 70.1759C279.676 69.7293 279.477 69.2826 280.407 69.2826C280.805 69.2826 281.27 69.5378 281.47 69.9207ZM284.127 71.7074C283.927 71.8989 283.396 71.7074 282.931 71.2607C282.333 70.6226 282.4 70.5588 283.33 70.9417C283.994 71.1331 284.326 71.516 284.127 71.7074ZM302.062 71.1969C301.863 71.516 301.265 71.835 300.867 71.835C300.402 71.835 300.468 71.5798 301.066 71.1969C302.328 70.4312 302.594 70.4312 302.062 71.1969ZM41.1316 73.2389C40.9323 73.7494 40.733 73.5579 40.733 72.856C40.6666 72.1541 40.8659 71.7712 41.0652 72.0265C41.2645 72.2179 41.3309 72.7922 41.1316 73.2389ZM298.741 72.4732C298.01 72.7922 296.549 72.9836 295.42 72.9836C293.493 72.9198 293.493 72.9198 295.752 72.4732C299.007 71.835 300.335 71.835 298.741 72.4732ZM289.308 72.9198C288.843 73.0475 288.046 73.0475 287.647 72.9198C287.182 72.7284 287.515 72.6008 288.445 72.6008C289.375 72.6008 289.707 72.7284 289.308 72.9198ZM349.359 73.877C349.16 74.3875 348.961 74.1961 348.961 73.4941C348.894 72.7922 349.094 72.4093 349.293 72.6646C349.492 72.856 349.559 73.4303 349.359 73.877ZM41.7959 75.7913C41.5966 76.3018 41.3973 76.1104 41.3973 75.4085C41.3309 74.7065 41.5302 74.3237 41.7294 74.5789C41.9287 74.7704 41.9952 75.3447 41.7959 75.7913ZM350.09 77.0038C349.891 77.5142 349.625 77.1952 349.359 76.3656C349.094 75.2808 349.16 75.0256 349.692 75.5361C350.024 75.8552 350.223 76.5571 350.09 77.0038ZM42.4602 79.62C42.2609 80.0667 42.128 79.7476 42.128 78.8543C42.128 77.9609 42.2609 77.6419 42.4602 78.0247C42.593 78.4714 42.593 79.2371 42.4602 79.62ZM350.688 80.2581C350.489 80.7686 350.289 80.5772 350.289 79.8753C350.223 79.1733 350.422 78.7905 350.622 79.0457C350.821 79.2371 350.887 79.8115 350.688 80.2581ZM43.1244 83.1296C42.9252 83.7678 42.7923 83.3849 42.7923 82.3639C42.7923 81.2791 42.9252 80.8324 43.1244 81.2153C43.2573 81.662 43.2573 82.5553 43.1244 83.1296ZM351.352 85.044C351.153 85.6821 351.02 85.2992 351.02 84.2782C351.02 83.1935 351.153 82.7468 351.352 83.1296C351.485 83.5763 351.485 84.4697 351.352 85.044ZM43.7887 98.4444C43.6559 100.869 43.5894 98.891 43.5894 94.169C43.5894 89.447 43.6559 87.4688 43.7887 89.8298C43.9216 92.2547 43.9216 96.0833 43.7887 98.4444ZM352.017 92.7013C351.817 93.3394 351.684 92.829 351.684 91.6165C351.684 90.4041 351.817 89.8936 352.017 90.4679C352.149 91.1061 352.149 92.127 352.017 92.7013ZM351.352 101.635C351.153 102.273 351.02 101.89 351.02 100.869C351.02 99.7844 351.153 99.3377 351.352 99.7206C351.485 100.167 351.485 101.061 351.352 101.635ZM43.1244 106.102C42.9252 106.74 42.7923 106.357 42.7923 105.336C42.7923 104.251 42.9252 103.805 43.1244 104.187C43.2573 104.634 43.2573 105.527 43.1244 106.102ZM350.688 106.102C350.489 106.74 350.356 106.357 350.356 105.336C350.356 104.251 350.489 103.805 350.688 104.187C350.821 104.634 350.821 105.527 350.688 106.102ZM42.4602 110.249C42.2609 110.696 42.128 110.377 42.128 109.484C42.128 108.59 42.2609 108.271 42.4602 108.654C42.593 109.101 42.593 109.867 42.4602 110.249ZM350.024 110.888C349.824 111.334 349.692 111.015 349.692 110.122C349.692 109.228 349.824 108.909 350.024 109.292C350.157 109.739 350.157 110.505 350.024 110.888ZM41.7959 114.078C41.5966 114.525 41.4637 114.206 41.4637 113.312C41.4637 112.419 41.5966 112.1 41.7959 112.483C41.9287 112.93 41.9287 113.695 41.7959 114.078ZM349.359 114.078C349.16 114.525 349.027 114.206 349.027 113.312C349.027 112.419 349.16 112.1 349.359 112.483C349.492 112.93 349.492 113.695 349.359 114.078ZM41.1316 117.269C40.9323 117.715 40.7995 117.396 40.7995 116.503C40.7995 115.61 40.9323 115.291 41.1316 115.673C41.2645 116.12 41.2645 116.886 41.1316 117.269ZM348.695 116.631C348.496 117.141 348.297 116.95 348.297 116.248C348.23 115.546 348.429 115.163 348.629 115.418C348.828 115.61 348.894 116.184 348.695 116.631ZM293.626 117.588C292.63 117.715 290.836 117.715 289.64 117.588C288.445 117.46 289.242 117.332 291.434 117.332C293.626 117.332 294.622 117.46 293.626 117.588ZM284.525 118.736C283.33 119.247 282.134 119.694 281.868 119.694C281.005 119.63 284.857 117.843 285.787 117.843C286.319 117.843 285.787 118.226 284.525 118.736ZM347.898 119.502C347.699 120.523 347.234 121.544 346.902 121.863C346.569 122.182 346.636 121.416 347.034 120.14C347.898 117.396 348.562 116.95 347.898 119.502ZM40.4673 119.821C40.268 120.332 40.0687 120.14 40.0687 119.438C40.0023 118.736 40.2016 118.353 40.4009 118.609C40.6002 118.8 40.6666 119.374 40.4673 119.821ZM303.723 120.714C303.723 120.842 303.125 120.714 302.395 120.332C301.664 119.949 301.066 119.502 301.066 119.311C301.066 119.183 301.664 119.311 302.395 119.694C303.125 120.076 303.723 120.523 303.723 120.714ZM281.137 119.885C281.137 120.013 279.875 121.225 278.347 122.565L275.491 125.117L278.148 122.374C280.54 119.885 281.137 119.374 281.137 119.885ZM306.048 122.246C306.712 122.948 307.111 123.522 306.912 123.522C306.712 123.522 306.048 122.948 305.384 122.246C304.72 121.544 304.321 120.97 304.52 120.97C304.72 120.97 305.384 121.544 306.048 122.246ZM-19.584 123.331C-20.4475 123.458 -21.909 123.458 -22.9054 123.331C-23.9683 123.203 -23.2375 123.076 -21.444 123.076C-19.584 123.076 -18.7868 123.203 -19.584 123.331ZM346.437 123.841C346.237 124.416 345.905 124.735 345.772 124.543C345.573 124.352 345.639 123.969 345.905 123.586C346.503 122.565 346.902 122.756 346.437 123.841ZM-25.7618 123.969C-26.2932 124.16 -27.3561 124.607 -28.0868 124.926C-29.4154 125.5 -29.4154 125.5 -28.1532 124.543C-27.4225 123.969 -26.3597 123.522 -25.8282 123.586C-24.8983 123.586 -24.8983 123.65 -25.7618 123.969ZM-13.1404 124.798C-11.7454 125.5 -9.95186 126.968 -9.15472 128.117L-7.69329 130.222L-9.68615 128.18C-10.749 127.032 -12.9411 125.5 -14.5354 124.798C-16.1297 124.096 -17.0597 123.522 -16.5947 123.522C-16.1297 123.522 -14.6018 124.096 -13.1404 124.798ZM308.44 125.245C309.303 126.266 309.237 126.33 308.24 125.5C307.576 125.054 307.045 124.543 307.045 124.416C307.045 123.905 307.576 124.224 308.44 125.245ZM-32.0725 128.372C-33.3347 129.967 -34.3975 131.562 -34.3975 131.945C-34.3975 132.328 -34.5968 132.456 -34.7961 132.264C-35.2611 131.818 -33.6004 129.074 -31.5411 126.84C-29.349 124.543 -29.6147 125.245 -32.0725 128.372ZM344.643 127.798C344.112 128.755 343.647 129.393 343.58 129.138C343.58 128.372 345.108 125.437 345.374 125.692C345.573 125.819 345.241 126.777 344.643 127.798ZM37.4116 128.436C36.6145 129.712 36.4816 129.329 37.0795 127.67C37.3452 127.096 37.6773 126.777 37.8102 126.968C38.0095 127.096 37.8102 127.798 37.4116 128.436ZM274.03 128.308C273.83 128.882 273.498 129.201 273.365 129.01C273.166 128.819 273.232 128.436 273.498 128.053C274.096 127.032 274.495 127.223 274.03 128.308ZM311.695 131.499C311.695 131.818 311.362 131.69 311.03 131.18C310.698 130.669 310.366 129.903 310.366 129.584C310.366 129.201 310.698 129.393 311.03 129.903C311.362 130.414 311.695 131.116 311.695 131.499ZM35.3523 133.03C33.4923 136.604 33.0273 136.348 34.8209 132.775C35.618 131.243 36.3487 130.031 36.548 130.159C36.6809 130.286 36.1495 131.562 35.3523 133.03ZM272.568 131.881C272.236 132.711 271.904 133.094 271.904 132.647C271.837 131.69 272.568 129.776 272.9 130.095C273.1 130.222 272.9 131.052 272.568 131.881ZM342.916 131.18C342.517 131.881 342.052 132.456 341.853 132.456C341.72 132.456 341.853 131.881 342.252 131.18C342.65 130.478 343.115 129.903 343.314 129.903C343.447 129.903 343.314 130.478 342.916 131.18ZM313.023 134.689C313.023 135.008 312.691 134.881 312.359 134.37C312.027 133.86 311.695 133.094 311.695 132.775C311.695 132.392 312.027 132.583 312.359 133.094C312.691 133.604 313.023 134.306 313.023 134.689ZM-35.6597 135.072C-35.9918 135.902 -36.3239 136.284 -36.3239 135.838C-36.3904 134.881 -35.6597 132.966 -35.3275 133.285C-35.1282 133.413 -35.3275 134.242 -35.6597 135.072ZM-5.16901 135.327C-5.16901 135.646 -5.50115 135.519 -5.8333 135.008C-6.16544 134.498 -6.49758 133.732 -6.49758 133.413C-6.49758 133.03 -6.16544 133.222 -5.8333 133.732C-5.50115 134.242 -5.16901 134.944 -5.16901 135.327ZM271.638 207.562C271.572 221.217 271.505 210.05 271.505 182.867C271.505 155.683 271.572 144.516 271.638 158.108C271.771 171.764 271.771 193.97 271.638 207.562ZM32.4295 138.071C31.898 139.028 30.7688 140.368 29.9716 141.07L28.3773 142.347L29.7723 140.751C30.5695 139.858 31.5659 138.518 31.9645 137.688C32.363 136.923 32.8945 136.284 33.0938 136.284C33.2266 136.284 32.9609 137.05 32.4295 138.071ZM339.594 136.476C339.594 136.604 338.93 137.242 338.133 137.944L336.605 139.156L337.867 137.688C339.063 136.348 339.594 135.965 339.594 136.476ZM-36.5897 138.326C-36.7889 138.837 -36.9882 138.645 -36.9882 137.944C-37.0547 137.242 -36.8554 136.859 -36.6561 137.114C-36.4568 137.305 -36.3904 137.88 -36.5897 138.326ZM315.282 139.922C315.88 141.07 316.212 142.027 316.079 142.027C315.68 142.027 313.687 138.518 313.687 137.816C313.687 137.114 314.02 137.624 315.282 139.922ZM-2.64473 141.517C-1.11688 144.835 -1.24974 145.665 -2.71116 142.793C-3.77401 140.943 -4.9033 137.688 -4.37187 138.199C-4.17259 138.39 -3.37544 139.858 -2.64473 141.517ZM-37.2539 213.305C-37.3204 226.896 -37.3868 215.985 -37.3868 188.929C-37.3868 161.873 -37.3204 150.77 -37.2539 164.17C-37.1211 177.57 -37.1211 199.649 -37.2539 213.305ZM334.944 141.006C334.944 141.134 334.413 141.645 333.815 142.091C332.752 142.921 332.686 142.857 333.549 141.836C334.413 140.815 334.944 140.496 334.944 141.006ZM28.7095 142.857C28.7095 142.985 27.4473 144.197 25.9195 145.537L23.0631 148.09L25.7202 145.346C28.1116 142.857 28.7095 142.347 28.7095 142.857ZM320.264 145.027C320.397 145.154 320.264 145.218 319.865 145.218C319.467 145.218 318.47 144.644 317.607 143.878L316.012 142.602L318.005 143.687C319.135 144.325 320.131 144.899 320.264 145.027ZM330.294 143.942C329.763 144.261 328.833 144.516 328.302 144.516C327.637 144.516 327.77 144.325 328.634 143.942C330.427 143.176 331.49 143.176 330.294 143.942ZM326.774 144.963C326.574 145.154 325.977 145.218 325.512 145.027C324.98 144.835 325.179 144.644 325.91 144.644C326.641 144.58 327.039 144.771 326.774 144.963ZM-0.519022 145.856C-0.519022 146.175 -0.651879 146.494 -0.784736 146.494C-0.984021 146.494 -1.31616 146.175 -1.51545 145.856C-1.71473 145.473 -1.58188 145.218 -1.24974 145.218C-0.851165 145.218 -0.519022 145.473 -0.519022 145.856ZM322.788 145.601C322.589 145.792 321.991 145.856 321.526 145.665C320.995 145.473 321.194 145.282 321.925 145.282C322.655 145.218 323.054 145.409 322.788 145.601ZM1.54026 148.217C2.40383 149.238 2.3374 149.302 1.34097 148.472C0.676689 148.026 0.145262 147.515 0.145262 147.388C0.145262 146.877 0.676689 147.196 1.54026 148.217ZM22.0666 148.409C21.5352 148.728 20.8045 149.047 20.4059 149.047C20.0738 149.047 20.2066 148.728 20.7381 148.409C21.2695 148.09 22.0666 147.77 22.3988 147.77C22.7974 147.77 22.5981 148.09 22.0666 148.409ZM18.7452 149.685C18.2138 150.004 17.2838 150.259 16.7524 150.259C16.0881 150.259 16.2209 150.068 17.0845 149.685C18.8781 148.919 19.9409 148.919 18.7452 149.685ZM12.0359 151.344C12.6338 151.854 7.05382 151.472 5.79168 150.961C4.99454 150.642 5.85811 150.578 8.11667 150.77C10.1095 150.961 11.9031 151.216 12.0359 151.344ZM15.2245 150.706C15.0252 150.897 14.4274 150.961 13.9624 150.77C13.4309 150.578 13.6302 150.387 14.3609 150.387C15.0917 150.323 15.4902 150.514 15.2245 150.706ZM252.108 243.296C241.081 243.424 222.88 243.424 211.587 243.296C200.361 243.232 209.395 243.168 231.648 243.168C253.968 243.168 263.135 243.232 252.108 243.296ZM39.2052 243.934C24.9895 244.062 1.8724 244.062 -12.2769 243.934C-26.4925 243.87 -14.8676 243.806 13.4309 243.806C41.7294 243.806 53.3544 243.87 39.2052 243.934ZM68.1015 243.934C67.6365 244.062 66.7065 244.062 66.1087 243.934C65.4444 243.743 65.843 243.615 66.9058 243.615C68.0351 243.615 68.5001 243.743 68.1015 243.934ZM77.0029 243.87C76.8037 244.062 76.2058 244.126 75.7408 243.934C75.2094 243.743 75.4087 243.551 76.1394 243.551C76.8701 243.487 77.2687 243.679 77.0029 243.87ZM162.43 243.934C161.965 244.062 161.168 244.062 160.769 243.934C160.304 243.743 160.636 243.615 161.566 243.615C162.496 243.615 162.828 243.743 162.43 243.934ZM158.71 244.508C158.511 244.7 157.913 244.764 157.448 244.572C156.916 244.381 157.116 244.189 157.846 244.189C158.577 244.126 158.976 244.317 158.71 244.508ZM155.588 245.402C155.056 245.721 154.326 246.04 153.927 246.04C153.595 246.04 153.728 245.721 154.259 245.402C154.791 245.083 155.588 244.764 155.92 244.764C156.318 244.764 156.119 245.083 155.588 245.402ZM152.864 246.231C152.731 246.359 151.735 246.933 150.606 247.571L148.613 248.656L150.207 247.38C151.071 246.614 152.067 246.04 152.466 246.04C152.864 246.04 152.997 246.104 152.864 246.231ZM92.2815 253.889C92.8129 254.91 93.0786 255.867 92.9458 256.058C92.7465 256.186 92.4143 255.739 92.1486 254.91C91.8829 254.144 90.4215 252.166 88.9601 250.57L86.2365 247.635L88.7608 249.869C90.1558 251.081 91.6836 252.932 92.2815 253.889ZM144.959 252.038C144.959 252.166 144.428 252.676 143.83 253.123C142.767 253.952 142.701 253.889 143.564 252.868C144.428 251.847 144.959 251.528 144.959 252.038ZM142.501 255.293C142.302 255.867 141.97 256.186 141.837 255.994C141.638 255.803 141.704 255.42 141.97 255.037C142.568 254.016 142.966 254.208 142.501 255.293ZM94.2743 264.992C94.1415 266.332 94.0086 265.375 94.0086 262.95C94.0086 260.461 94.1415 259.44 94.2743 260.525C94.4072 261.674 94.4072 263.716 94.2743 264.992ZM140.774 261.163C140.575 261.801 140.442 261.418 140.442 260.397C140.442 259.313 140.575 258.866 140.774 259.249C140.907 259.696 140.907 260.589 140.774 261.163ZM140.774 267.544C140.575 268.182 140.442 267.8 140.442 266.779C140.442 265.694 140.575 265.247 140.774 265.63C140.907 266.077 140.907 266.97 140.774 267.544ZM141.439 270.416C141.239 270.926 141.04 270.735 141.04 270.033C140.974 269.331 141.173 268.948 141.372 269.203C141.571 269.395 141.638 269.969 141.439 270.416ZM142.9 273.479C143.631 275.01 143.631 275.01 142.701 273.862C142.103 273.16 141.638 272.33 141.638 271.947C141.638 271.182 141.97 271.501 142.9 273.479ZM90.4879 275.585C90.4879 275.712 89.8236 276.35 89.0265 277.052L87.4986 278.265L88.7608 276.797C89.9565 275.457 90.4879 275.074 90.4879 275.585ZM149.609 280.051C150.473 280.689 151.004 281.136 150.738 281.136C149.742 281.136 145.756 278.265 144.959 276.988C144.295 276.031 144.561 276.095 146.022 277.371C147.085 278.265 148.679 279.477 149.609 280.051ZM87.1665 278.201C87.1665 278.328 86.6351 278.839 86.0372 279.286C84.9743 280.115 84.9079 280.051 85.7715 279.03C86.6351 278.009 87.1665 277.69 87.1665 278.201ZM81.1879 281.774C80.6565 282.093 79.9258 282.412 79.5272 282.412C79.1951 282.412 79.3279 282.093 79.8594 281.774C80.3908 281.455 81.1879 281.136 81.5201 281.136C81.9186 281.136 81.7194 281.455 81.1879 281.774ZM153.263 282.285C153.063 282.476 152.532 282.285 152.067 281.838C151.469 281.2 151.536 281.136 152.466 281.519C153.13 281.71 153.462 282.093 153.263 282.285ZM77.8665 283.05C77.3351 283.37 76.6044 283.689 76.2058 283.689C75.8737 283.689 76.0065 283.37 76.5379 283.05C77.0694 282.731 77.8665 282.412 78.1986 282.412C78.5972 282.412 78.3979 282.731 77.8665 283.05ZM158.245 283.689C158.776 284.008 158.976 284.327 158.577 284.327C158.245 284.327 157.448 284.008 156.916 283.689C156.385 283.37 156.252 283.05 156.584 283.05C156.983 283.05 157.713 283.37 158.245 283.689ZM73.1501 284.582C72.4858 285.156 68.5665 286.879 68.5665 286.624C68.5665 286.177 72.0208 284.39 72.8179 284.327C73.1501 284.327 73.2829 284.454 73.1501 284.582ZM163.559 285.603C164.091 285.922 164.29 286.241 163.891 286.241C163.559 286.241 162.762 285.922 162.231 285.603C161.699 285.284 161.566 284.965 161.898 284.965C162.297 284.965 163.028 285.284 163.559 285.603ZM168.276 288.538C168.873 289.24 168.408 289.113 167.08 288.155C165.884 287.326 164.888 286.56 164.888 286.432C164.888 285.922 167.412 287.517 168.276 288.538ZM67.9022 287.134C67.9022 287.262 67.3708 287.772 66.773 288.219C65.7101 289.049 65.6437 288.985 66.5072 287.964C67.3708 286.943 67.9022 286.624 67.9022 287.134ZM65.0458 293.707C64.8465 294.345 64.7137 293.962 64.7137 292.941C64.7137 291.856 64.8465 291.41 65.0458 291.793C65.1787 292.239 65.1787 293.133 65.0458 293.707ZM170.003 294.345C169.803 294.983 169.671 294.6 169.671 293.579C169.671 292.495 169.803 292.048 170.003 292.431C170.136 292.877 170.136 293.771 170.003 294.345ZM169.338 297.217C169.139 297.727 168.94 297.536 168.94 296.834C168.873 296.132 169.073 295.749 169.272 296.004C169.471 296.196 169.538 296.77 169.338 297.217ZM67.238 300.599C67.238 300.918 66.9058 300.79 66.5737 300.279C66.2415 299.769 65.9094 299.003 65.9094 298.684C65.9094 298.301 66.2415 298.493 66.5737 299.003C66.9058 299.514 67.238 300.216 67.238 300.599ZM168.209 300.726C167.478 301.811 167.478 301.811 167.811 300.726C168.01 300.088 168.209 299.195 168.276 298.812C168.276 298.238 168.408 298.238 168.608 298.812C168.807 299.259 168.608 300.088 168.209 300.726ZM70.1608 305.384C70.8915 306.278 70.5594 306.086 69.4301 304.938C68.2344 303.789 67.238 302.513 67.238 302.066C67.238 301.62 67.6365 301.811 68.0351 302.513C68.4337 303.215 69.3637 304.491 70.1608 305.384ZM166.681 304.363C164.954 306.852 153.595 314.701 153.595 313.425C153.595 313.233 154.591 312.595 155.787 312.021C159.308 310.234 165.618 305.321 166.349 303.725C166.748 302.896 167.213 302.321 167.412 302.513C167.611 302.641 167.213 303.47 166.681 304.363ZM76.5379 310.298C76.5379 310.808 74.0137 309.213 73.1501 308.192C72.5522 307.49 73.0172 307.618 74.4122 308.575C75.5415 309.405 76.5379 310.17 76.5379 310.298ZM150.273 315.275C149.343 315.786 148.347 316.169 147.948 316.169C147.616 316.169 148.015 315.786 148.945 315.275C149.875 314.765 150.938 314.382 151.27 314.382C151.668 314.382 151.203 314.765 150.273 315.275ZM88.4951 315.594C89.0265 315.913 89.2258 316.232 88.8272 316.232C88.4951 316.232 87.6979 315.913 87.1665 315.594C86.6351 315.275 86.5022 314.956 86.8343 314.956C87.2329 314.956 87.9636 315.275 88.4951 315.594ZM92.8129 316.87C93.6765 317.189 93.7429 317.445 93.145 317.445C92.6136 317.445 91.5508 317.189 90.82 316.87C89.9565 316.551 89.8901 316.296 90.4879 316.296C91.0193 316.296 92.0822 316.551 92.8129 316.87ZM96.2672 317.891C96.0679 318.083 95.47 318.147 95.005 317.955C94.4736 317.764 94.6729 317.572 95.4036 317.572C96.1343 317.509 96.5329 317.7 96.2672 317.891ZM99.3229 318.593C98.8579 318.721 98.0607 318.721 97.6622 318.593C97.1972 318.402 97.5293 318.274 98.4593 318.274C99.3893 318.274 99.7215 318.402 99.3229 318.593ZM140.11 318.53C139.911 318.721 139.313 318.785 138.848 318.593C138.316 318.402 138.516 318.21 139.246 318.21C139.977 318.147 140.376 318.338 140.11 318.53ZM103.309 319.231C102.844 319.359 101.914 319.359 101.316 319.231C100.651 319.04 101.05 318.912 102.113 318.912C103.242 318.912 103.707 319.04 103.309 319.231ZM137.453 319.168C137.254 319.359 136.656 319.423 136.191 319.231C135.659 319.04 135.859 318.849 136.589 318.849C137.32 318.785 137.719 318.976 137.453 319.168ZM107.959 319.87C107.494 319.997 106.564 319.997 105.966 319.87C105.301 319.678 105.7 319.551 106.763 319.551C107.892 319.551 108.357 319.678 107.959 319.87ZM134.53 319.87C134.065 319.997 133.135 319.997 132.537 319.87C131.873 319.678 132.271 319.551 133.334 319.551C134.464 319.551 134.929 319.678 134.53 319.87ZM112.609 320.508C112.144 320.635 111.214 320.635 110.616 320.508C109.951 320.316 110.35 320.189 111.413 320.189C112.542 320.189 113.007 320.316 112.609 320.508ZM129.548 320.508C128.884 320.635 127.821 320.635 127.223 320.508C126.559 320.316 127.09 320.189 128.352 320.189C129.614 320.189 130.146 320.316 129.548 320.508ZM122.241 321.146C121.576 321.273 120.514 321.273 119.916 321.146C119.251 320.954 119.783 320.827 121.045 320.827C122.307 320.827 122.839 320.954 122.241 321.146Z" stroke="black" stroke-width="2" mask="url(#path-2-inside-1_302_63)"/>
<path d="M62.7019 154.798V153.588H65.2319V117.508H62.7019V116.298H71.1994C72.9227 116.298 74.5086 116.995 75.9569 118.388C77.4052 119.763 78.5602 121.853 79.4219 124.658C80.3019 127.463 80.7419 130.992 80.7419 135.246C80.7419 139.536 80.3019 143.138 79.4219 146.053C78.5602 148.95 77.3961 151.132 75.9294 152.598C74.4811 154.065 72.9044 154.798 71.1994 154.798H62.7019ZM69.3569 153.588H70.6219C71.6486 153.588 72.6019 152.947 73.4819 151.663C74.3802 150.362 75.1044 148.363 75.6544 145.668C76.2044 142.955 76.4794 139.481 76.4794 135.246C76.4794 131.506 76.2319 128.316 75.7369 125.676C75.2419 123.036 74.6002 121.019 73.8119 119.626C73.0236 118.214 72.1894 117.508 71.3094 117.508H69.3569V153.588ZM83.2079 154.798V153.588H85.8754V127.216H83.2079V126.006H90.0004V153.588H92.7504V154.798H83.2079ZM87.9104 120.726C87.0854 120.726 86.3795 120.442 85.7929 119.873C85.2245 119.287 84.9404 118.59 84.9404 117.783C84.9404 116.958 85.2245 116.262 85.7929 115.693C86.3795 115.125 87.0854 114.841 87.9104 114.841C88.6987 114.841 89.377 115.125 89.9454 115.693C90.5137 116.262 90.7979 116.958 90.7979 117.783C90.7979 118.59 90.5137 119.287 89.9454 119.873C89.377 120.442 88.6987 120.726 87.9104 120.726ZM100.705 155.376C99.6414 155.376 98.6789 155.128 97.8173 154.633C96.9556 154.12 96.2773 153.35 95.7823 152.323C95.2873 151.297 95.0398 149.995 95.0398 148.418C95.0398 146.677 95.3606 145.237 96.0023 144.101C96.6623 142.964 97.4781 142.011 98.4498 141.241C99.4214 140.452 100.384 139.756 101.337 139.151C102.309 138.527 103.125 137.877 103.785 137.198C104.445 136.52 104.775 135.695 104.775 134.723C104.775 133.33 104.674 132.056 104.472 130.901C104.289 129.746 103.968 128.829 103.51 128.151C103.051 127.472 102.401 127.133 101.557 127.133C100.677 127.133 99.9164 127.454 99.2748 128.096C98.6331 128.719 98.3123 129.452 98.3123 130.296C98.3123 130.717 98.3764 131.084 98.5048 131.396C98.6514 131.689 98.7798 131.992 98.8898 132.303C99.0181 132.615 99.0823 133.009 99.0823 133.486C99.0823 134.146 98.9264 134.687 98.6148 135.108C98.3214 135.53 97.8814 135.741 97.2948 135.741C96.7264 135.741 96.2864 135.493 95.9748 134.998C95.6814 134.503 95.5348 133.816 95.5348 132.936C95.5348 131.634 95.8189 130.442 96.3873 129.361C96.9556 128.279 97.7439 127.417 98.7523 126.776C99.7606 126.116 100.925 125.786 102.245 125.786C103.546 125.786 104.692 126.107 105.682 126.748C106.691 127.39 107.479 128.398 108.047 129.773C108.616 131.13 108.9 132.899 108.9 135.081V151.691C108.9 152.442 108.991 152.965 109.175 153.258C109.376 153.533 109.633 153.671 109.945 153.671C110.22 153.671 110.467 153.616 110.687 153.506C110.907 153.377 111.072 153.258 111.182 153.148L111.815 154.166C111.613 154.404 111.228 154.624 110.66 154.826C110.11 155.046 109.45 155.156 108.68 155.156C107.983 155.156 107.369 155.046 106.837 154.826C106.324 154.606 105.911 154.276 105.6 153.836C105.288 153.396 105.114 152.864 105.077 152.241C104.986 152.607 104.775 153.038 104.445 153.533C104.115 154.028 103.647 154.459 103.042 154.826C102.437 155.192 101.658 155.376 100.705 155.376ZM101.915 153.561C102.483 153.561 102.978 153.35 103.4 152.928C103.84 152.488 104.179 151.966 104.417 151.361C104.656 150.756 104.775 150.187 104.775 149.656V137.473C104.72 137.987 104.408 138.527 103.84 139.096C103.29 139.664 102.666 140.324 101.97 141.076C101.273 141.809 100.65 142.726 100.1 143.826C99.5681 144.926 99.3023 146.264 99.3023 147.841C99.3023 149.674 99.5039 151.086 99.9073 152.076C100.311 153.066 100.98 153.561 101.915 153.561ZM112.724 154.798V153.588H115.364V127.216H112.724V126.006H119.434V129.526C119.581 128.994 119.846 128.444 120.231 127.876C120.616 127.289 121.13 126.794 121.771 126.391C122.431 125.987 123.201 125.786 124.081 125.786C124.943 125.786 125.777 125.997 126.584 126.418C127.391 126.84 128.051 127.656 128.564 128.866C129.077 130.057 129.334 131.836 129.334 134.201V153.588H131.891V154.798H123.009V153.588H125.209V134.696C125.209 132.202 125.007 130.397 124.604 129.278C124.201 128.16 123.559 127.601 122.679 127.601C122.257 127.601 121.854 127.784 121.469 128.151C121.084 128.499 120.745 128.967 120.451 129.553C120.158 130.122 119.92 130.736 119.736 131.396C119.571 132.056 119.489 132.67 119.489 133.238V153.588H121.689V154.798H112.724ZM139.914 155.376C138.85 155.376 137.888 155.128 137.026 154.633C136.165 154.12 135.486 153.35 134.991 152.323C134.496 151.297 134.249 149.995 134.249 148.418C134.249 146.677 134.57 145.237 135.211 144.101C135.871 142.964 136.687 142.011 137.659 141.241C138.63 140.452 139.593 139.756 140.546 139.151C141.518 138.527 142.334 137.877 142.994 137.198C143.654 136.52 143.984 135.695 143.984 134.723C143.984 133.33 143.883 132.056 143.681 130.901C143.498 129.746 143.177 128.829 142.719 128.151C142.26 127.472 141.61 127.133 140.766 127.133C139.886 127.133 139.125 127.454 138.484 128.096C137.842 128.719 137.521 129.452 137.521 130.296C137.521 130.717 137.585 131.084 137.714 131.396C137.86 131.689 137.989 131.992 138.099 132.303C138.227 132.615 138.291 133.009 138.291 133.486C138.291 134.146 138.135 134.687 137.824 135.108C137.53 135.53 137.09 135.741 136.504 135.741C135.935 135.741 135.495 135.493 135.184 134.998C134.89 134.503 134.744 133.816 134.744 132.936C134.744 131.634 135.028 130.442 135.596 129.361C136.165 128.279 136.953 127.417 137.961 126.776C138.97 126.116 140.134 125.786 141.454 125.786C142.755 125.786 143.901 126.107 144.891 126.748C145.9 127.39 146.688 128.398 147.256 129.773C147.825 131.13 148.109 132.899 148.109 135.081V151.691C148.109 152.442 148.2 152.965 148.384 153.258C148.585 153.533 148.842 153.671 149.154 153.671C149.429 153.671 149.676 153.616 149.896 153.506C150.116 153.377 150.281 153.258 150.391 153.148L151.024 154.166C150.822 154.404 150.437 154.624 149.869 154.826C149.319 155.046 148.659 155.156 147.889 155.156C147.192 155.156 146.578 155.046 146.046 154.826C145.533 154.606 145.12 154.276 144.809 153.836C144.497 153.396 144.323 152.864 144.286 152.241C144.195 152.607 143.984 153.038 143.654 153.533C143.324 154.028 142.856 154.459 142.251 154.826C141.646 155.192 140.867 155.376 139.914 155.376ZM141.124 153.561C141.692 153.561 142.187 153.35 142.609 152.928C143.049 152.488 143.388 151.966 143.626 151.361C143.865 150.756 143.984 150.187 143.984 149.656V137.473C143.929 137.987 143.617 138.527 143.049 139.096C142.499 139.664 141.875 140.324 141.179 141.076C140.482 141.809 139.859 142.726 139.309 143.826C138.777 144.926 138.511 146.264 138.511 147.841C138.511 149.674 138.713 151.086 139.116 152.076C139.52 153.066 140.189 153.561 141.124 153.561ZM160.718 154.798V153.588H163.248V117.508H160.718V116.298H167.895L176.668 145.393H176.42V117.508H173.89V116.298H180.105V117.508H177.685V154.798H175.32L164.265 118.883H164.485V153.588H167.263V154.798H160.718ZM188.307 155.376C187.244 155.376 186.281 155.128 185.42 154.633C184.558 154.12 183.88 153.35 183.385 152.323C182.89 151.297 182.642 149.995 182.642 148.418C182.642 146.677 182.963 145.237 183.605 144.101C184.265 142.964 185.081 142.011 186.052 141.241C187.024 140.452 187.986 139.756 188.94 139.151C189.911 138.527 190.727 137.877 191.387 137.198C192.047 136.52 192.377 135.695 192.377 134.723C192.377 133.33 192.276 132.056 192.075 130.901C191.891 129.746 191.571 128.829 191.112 128.151C190.654 127.472 190.003 127.133 189.16 127.133C188.28 127.133 187.519 127.454 186.877 128.096C186.236 128.719 185.915 129.452 185.915 130.296C185.915 130.717 185.979 131.084 186.107 131.396C186.254 131.689 186.382 131.992 186.492 132.303C186.621 132.615 186.685 133.009 186.685 133.486C186.685 134.146 186.529 134.687 186.217 135.108C185.924 135.53 185.484 135.741 184.897 135.741C184.329 135.741 183.889 135.493 183.577 134.998C183.284 134.503 183.137 133.816 183.137 132.936C183.137 131.634 183.421 130.442 183.99 129.361C184.558 128.279 185.346 127.417 186.355 126.776C187.363 126.116 188.527 125.786 189.847 125.786C191.149 125.786 192.295 126.107 193.285 126.748C194.293 127.39 195.081 128.398 195.65 129.773C196.218 131.13 196.502 132.899 196.502 135.081V151.691C196.502 152.442 196.594 152.965 196.777 153.258C196.979 153.533 197.236 153.671 197.547 153.671C197.822 153.671 198.07 153.616 198.29 153.506C198.51 153.377 198.675 153.258 198.785 153.148L199.417 154.166C199.216 154.404 198.831 154.624 198.262 154.826C197.712 155.046 197.052 155.156 196.282 155.156C195.586 155.156 194.971 155.046 194.44 154.826C193.926 154.606 193.514 154.276 193.202 153.836C192.891 153.396 192.716 152.864 192.68 152.241C192.588 152.607 192.377 153.038 192.047 153.533C191.717 154.028 191.25 154.459 190.645 154.826C190.04 155.192 189.261 155.376 188.307 155.376ZM189.517 153.561C190.086 153.561 190.581 153.35 191.002 152.928C191.442 152.488 191.781 151.966 192.02 151.361C192.258 150.756 192.377 150.187 192.377 149.656V137.473C192.322 137.987 192.011 138.527 191.442 139.096C190.892 139.664 190.269 140.324 189.572 141.076C188.876 141.809 188.252 142.726 187.702 143.826C187.171 144.926 186.905 146.264 186.905 147.841C186.905 149.674 187.106 151.086 187.51 152.076C187.913 153.066 188.582 153.561 189.517 153.561ZM206.182 154.908L200.985 127.216H198.812V126.006H207.365V127.216H205.385L208.492 146.026L211.6 127.216H209.647V126.006H215.01V127.216H212.947L207.97 154.908H206.182ZM224.2 155.376C222.862 155.376 221.716 154.972 220.762 154.166C219.827 153.341 219.057 152.222 218.452 150.811C217.847 149.399 217.398 147.795 217.105 145.998C216.83 144.202 216.692 142.313 216.692 140.333C216.692 137.877 216.894 135.741 217.297 133.926C217.701 132.092 218.251 130.58 218.947 129.388C219.644 128.178 220.432 127.28 221.312 126.693C222.211 126.088 223.137 125.786 224.09 125.786C225.208 125.786 226.18 126.134 227.005 126.831C227.848 127.509 228.545 128.426 229.095 129.581C229.663 130.736 230.085 132.056 230.36 133.541C230.653 135.007 230.8 136.52 230.8 138.078C230.8 138.427 230.791 138.775 230.772 139.123C230.772 139.453 230.763 139.783 230.745 140.113H220.487V138.903H226.702C226.702 136.428 226.62 134.302 226.455 132.523C226.308 130.745 226.042 129.379 225.657 128.426C225.291 127.472 224.768 126.996 224.09 126.996C223.43 126.996 222.852 127.463 222.357 128.398C221.881 129.315 221.514 130.717 221.257 132.606C221.001 134.476 220.872 136.841 220.872 139.701C220.872 141.681 220.918 143.542 221.01 145.283C221.102 147.007 221.276 148.528 221.532 149.848C221.789 151.15 222.165 152.177 222.66 152.928C223.173 153.662 223.852 154.028 224.695 154.028C225.978 154.028 226.987 153.68 227.72 152.983C228.453 152.268 228.948 151.526 229.205 150.756L230.25 151.388C229.865 152.433 229.15 153.359 228.105 154.166C227.06 154.972 225.758 155.376 224.2 155.376ZM232.976 154.798V153.588H235.616V127.216H232.976V126.006H239.576L239.686 129.086C239.723 128.847 239.897 128.462 240.209 127.931C240.52 127.399 240.951 126.913 241.501 126.473C242.07 126.015 242.748 125.786 243.536 125.786C244.453 125.786 245.205 126.116 245.791 126.776C246.378 127.417 246.818 128.279 247.111 129.361C247.423 130.442 247.579 131.634 247.579 132.936C247.579 133.834 247.423 134.531 247.111 135.026C246.8 135.502 246.36 135.741 245.791 135.741C245.241 135.741 244.81 135.521 244.499 135.081C244.205 134.641 244.059 134.054 244.059 133.321C244.059 132.862 244.132 132.468 244.279 132.138C244.444 131.79 244.6 131.442 244.746 131.093C244.893 130.727 244.966 130.305 244.966 129.828C244.966 128.912 244.801 128.242 244.471 127.821C244.141 127.381 243.71 127.161 243.179 127.161C242.482 127.161 241.877 127.491 241.364 128.151C240.85 128.792 240.447 129.608 240.154 130.598C239.879 131.57 239.741 132.56 239.741 133.568V153.588H242.436V154.798H232.976ZM256.267 155.293C255.534 155.293 254.819 155.156 254.122 154.881C253.425 154.624 252.857 154.12 252.417 153.368C251.977 152.617 251.757 151.526 251.757 150.096V127.216H248.622V126.006H251.757C252.197 125.767 252.61 125.254 252.995 124.466C253.38 123.659 253.71 122.697 253.985 121.578C254.278 120.442 254.489 119.296 254.617 118.141H255.882V126.006H259.65V127.216H255.882V152.131C255.882 152.846 256.038 153.332 256.35 153.588C256.661 153.845 256.964 153.973 257.257 153.973C257.642 153.973 257.99 153.882 258.302 153.698C258.614 153.515 258.843 153.341 258.99 153.176L259.677 154.111C259.31 154.441 258.834 154.716 258.247 154.936C257.679 155.174 257.019 155.293 256.267 155.293Z" fill="#B85A25"/>
</g>
</svg>
