<svg width="207" height="201" viewBox="0 0 207 201" fill="none" xmlns="http://www.w3.org/2000/svg">
<path fill-rule="evenodd" clip-rule="evenodd" d="M98.7289 0.0979837C73.0781 1.19045 48.5356 11.752 30.3121 29.5393C2.77963 56.4121 -6.86247 95.2015 4.96302 131.516C18.728 173.786 61.8357 202.912 107.653 200.902C134.525 199.723 157.326 189.975 176.793 171.343C190.329 158.387 199.823 142.037 204.136 124.254C210.953 96.1433 205.511 67.5228 188.772 43.4548C183.103 35.3021 169.871 22.4272 162.046 17.4473C142.62 5.0861 120.96 -0.849586 98.7289 0.0979837ZM89.38 12.6066C75.604 15.0632 59.2375 21.678 49.8071 28.6C23.5562 47.8691 10.1669 76.9713 12.9801 108.648C16.112 143.911 41.5613 174.084 77.0565 184.617C119.692 197.269 164.704 178.501 184.883 139.658C193.43 123.207 196.593 103.695 193.5 86.5137C188.067 56.3347 169.694 32.7056 141.822 20.0546C129.631 14.5206 120.673 12.5646 105.953 12.2213C98.9414 12.0583 91.4835 12.232 89.38 12.6066ZM94.1233 15.143C48.6554 20.5576 15.4389 56.5216 15.4389 100.336C15.4389 133.578 35.5815 164.174 66.6648 178.148C86.787 187.194 113.096 188.267 133.494 180.872C165.922 169.116 188.208 140.961 191.25 107.906C194.8 69.3183 171.303 33.4852 133.466 19.7878C122.236 15.7218 105.676 13.7674 94.1233 15.143ZM113.177 64.8678C113.177 66.4904 113.56 67.8175 114.027 67.8175C114.495 67.8175 114.877 66.8913 114.877 65.7594C114.877 64.6274 114.906 63.4328 114.941 63.1044C114.976 62.7759 114.593 62.375 114.091 62.2128C113.553 62.0391 113.177 63.1299 113.177 64.8678ZM117.86 66.1628C116.522 67.5162 115.689 68.8787 116.01 69.1899C116.632 69.7917 121.676 65.5017 121.676 64.3705C121.676 63.0681 120.264 63.7309 117.86 66.1628ZM101.928 69.1092C101.663 69.3669 99.5907 69.832 97.3249 70.144C93.4714 70.6734 93.1876 70.8784 92.9445 73.3045C92.6666 76.0715 92.902 76.3613 98.5827 80.2322L102.261 82.7399L98.4612 86.675C93.8054 91.496 92.0606 94.6541 91.3747 99.4989C90.9498 102.503 91.0977 103.218 92.143 103.218C93.0201 103.218 93.6168 102.053 93.9967 99.5969C94.5652 95.9276 98.5351 89.2123 101.234 87.3559C105.307 84.5535 104.863 80.3137 100.26 78.0481C94.3808 75.1552 94.538 73.7326 100.927 72.0145C111.056 69.2903 116.08 72.4607 114.507 80.5838C113.847 83.9904 111.879 84.3897 110.473 81.4013C109.445 79.2163 107.228 78.5783 107.228 80.4669C107.228 82.4805 110.689 85.9292 112.71 85.9292C115.292 85.9292 116.63 84.2407 117.177 80.2948C117.733 76.2732 116.176 71.509 113.773 69.8781C112.009 68.6811 102.976 68.0941 101.928 69.1092ZM120.189 70.0452C119.137 70.2412 118.277 70.9319 118.277 71.5798C118.277 72.9769 118.382 72.9909 121.196 71.9544C123.121 71.2456 124.392 69.2854 122.739 69.576C122.388 69.6377 121.241 69.8485 120.189 70.0452ZM103.403 74.4036C103.692 74.8564 104.671 75.2268 105.578 75.2268C106.486 75.2268 107.228 74.8564 107.228 74.4036C107.228 73.9508 106.249 73.5803 105.053 73.5803C103.82 73.5803 103.105 73.9368 103.403 74.4036ZM112.403 90.6629C112.483 92.3613 112.262 96.0264 111.913 98.809C111.306 103.65 111.365 103.897 113.29 104.512L115.302 105.155L113.339 105.626C110.457 106.32 110.653 107.708 113.674 107.993C118.174 108.419 119.973 103.708 115.723 102.631C113.798 102.144 113.74 101.718 114.92 96.7567C115.946 92.4494 115.178 87.5757 113.473 87.5757C112.61 87.5757 112.3 88.4706 112.403 90.6629ZM106.602 89.4214C106.873 90.108 106.783 92.0106 106.401 93.6505C105.782 96.3072 105.892 96.6315 107.408 96.6315C108.435 96.6315 108.937 97.0399 108.675 97.6606C108.436 98.227 107.972 99.3376 107.643 100.13C107.281 101.006 107.432 101.571 108.03 101.571C108.572 101.571 109.605 100.203 110.327 98.53C111.494 95.8214 111.498 95.3892 110.356 94.58C109.651 94.0811 108.946 92.6066 108.788 91.305C108.631 90.0026 107.964 88.7661 107.305 88.5562C106.512 88.3035 106.274 88.5965 106.602 89.4214ZM97.0291 96.1623C97.0291 96.8102 97.8892 97.4589 98.9414 97.603C100.357 97.7981 100.928 98.5077 101.141 100.336C101.494 103.359 102.529 104.657 104.953 105.114C105.97 105.306 102.925 105.514 98.1858 105.575C91.0186 105.668 89.2483 105.436 87.6666 104.196C86.2728 103.102 85.9218 102.222 86.3544 100.903C86.679 99.9122 87.3012 99.1013 87.7372 99.1013C88.1732 99.1013 88.5301 98.5184 88.5301 97.8063C88.5301 95.8395 85.7985 96.7361 84.392 99.1639C82.7041 102.076 83.7282 105.369 86.8006 106.907C88.5888 107.803 91.9484 108.157 98.6566 108.157C106.917 108.157 108.118 107.977 108.865 106.624C109.872 104.801 108.503 102.679 106.047 102.258C104.974 102.074 104.351 101.167 104.172 99.5277C104.023 98.1784 103.238 96.6035 102.428 96.0289C100.424 94.6096 97.0291 94.6936 97.0291 96.1623ZM36.6863 130.385V139.441L40.7233 139.438C48.5619 139.432 53.3367 133.967 51.1388 127.517C49.6694 123.204 46.6726 121.329 41.246 121.329H36.6863V130.385ZM58.0332 122.672C52.5675 126.38 53.08 135.348 58.9239 138.276C66.2874 141.965 74.3921 136.222 72.875 128.39C71.7259 122.454 63.1972 119.168 58.0332 122.672ZM80.4561 122.285C77.3472 123.941 75.8199 126.558 75.8003 130.262C75.785 133.249 76.2601 134.306 78.6713 136.642C80.9643 138.863 82.2417 139.441 84.856 139.441C90.031 139.441 91.9297 137.66 91.9297 132.808V128.739H88.5301C85.6974 128.739 85.1305 129.013 85.1305 130.385C85.1305 131.501 85.6974 132.032 86.8898 132.032C88.2276 132.032 88.5837 132.475 88.3771 133.884C88.1698 135.295 87.4592 135.797 85.3931 135.991C81.7726 136.33 79.1812 133.828 79.1812 129.992C79.1812 126.3 82.1253 124.202 86.3688 124.868C88.276 125.168 89.6035 124.942 90.2325 124.208C92.2671 121.832 84.2619 120.257 80.4561 122.285ZM106.935 122.835C105.267 124.62 105.106 127.877 106.59 129.798C107.175 130.554 109.183 131.475 111.052 131.845C113.623 132.353 114.452 132.909 114.452 134.127C114.452 136.202 110.029 136.918 109.257 134.968C108.605 133.321 105.528 133.276 105.528 134.913C105.528 137.14 108.767 139.441 111.902 139.441C115.445 139.441 118.277 137.063 118.277 134.09C118.277 131.535 115.511 128.743 112.965 128.726C110.25 128.708 108.592 127.481 109.202 125.94C109.863 124.271 113.917 124.208 114.569 125.857C115.171 127.375 118.277 127.505 118.277 126.013C118.277 125.418 117.496 124.122 116.544 123.131C114.325 120.824 108.968 120.658 106.935 122.835ZM121.706 122.358C121.723 122.925 122.283 124.314 122.951 125.446C124.516 128.097 124.516 128.739 122.951 128.739C121.949 128.739 121.676 129.882 121.676 134.09C121.676 138.892 121.85 139.441 123.376 139.441C124.824 139.441 125.076 138.892 125.076 135.736C125.076 132.042 125.084 132.032 128.089 132.032C130.155 132.032 131.758 131.396 133.188 130.01C135.728 127.551 135.833 125.514 133.542 123.131C132.133 121.667 130.86 121.329 126.742 121.329C123.24 121.329 121.686 121.647 121.706 122.358ZM139.756 124.233C136.977 126.925 136.792 127.418 137.208 130.998C138.033 138.095 145.179 141.647 151.431 138.07C154.396 136.373 155.672 133.778 155.672 129.442C155.672 124.673 151.921 121.329 146.573 121.329C143.336 121.329 142.297 121.771 139.756 124.233ZM156.679 122.77C156.849 123.638 157.886 124.314 159.292 124.471L161.621 124.732V132.086C161.621 138.892 161.748 139.441 163.321 139.441C164.895 139.441 165.021 138.892 165.021 132.032C165.021 124.677 165.037 124.622 167.146 124.622C168.704 124.622 169.27 124.183 169.27 122.976C169.27 121.474 168.704 121.329 162.834 121.329C157.163 121.329 156.431 121.5 156.679 122.77ZM40.9358 130.385C40.9358 135.487 41.1202 136.148 42.5413 136.148C43.4243 136.148 45.0179 135.465 46.0828 134.63C49.8487 131.676 47.6262 124.622 42.9288 124.622C41.0276 124.622 40.9358 124.888 40.9358 130.385ZM59.3404 126.128C57.236 128.38 57.5071 133.295 59.8231 134.866C62.5394 136.709 65.3508 136.448 67.7458 134.127C70.2947 131.659 70.3839 129.64 68.0705 126.792C65.9356 124.162 61.4923 123.825 59.3404 126.128ZM126.776 125.318C126.776 125.701 127.485 126.636 128.354 127.397C129.74 128.613 130.058 128.632 130.977 127.56C131.551 126.89 131.775 125.954 131.473 125.482C130.82 124.458 126.776 124.318 126.776 125.318ZM142.222 126.527C139.801 129.024 139.883 131.631 142.46 134.127C146.354 137.899 152.272 135.642 152.272 130.385C152.272 125.18 145.901 122.734 142.222 126.527Z" fill="black"/>
</svg>
